<?xml version="1.0" encoding="utf-8"?>
<!-- Generator: Adobe Illustrator 16.0.0, SVG Export Plug-In . SVG Version: 6.00 Build 0)  -->
<!DOCTYPE svg PUBLIC "-//W3C//DTD SVG 1.1//EN" "http://www.w3.org/Graphics/SVG/1.1/DTD/svg11.dtd">
<svg version="1.1" id="Layer_1" xmlns="http://www.w3.org/2000/svg" xmlns:xlink="http://www.w3.org/1999/xlink" x="0px" y="0px"
	 width="292px" height="310px" viewBox="127.14 195.445 292 310" enable-background="new 127.14 195.445 292 310"
	 xml:space="preserve">
<rect x="127.14" y="195.445" fill="#FFFFFF" width="292" height="310"/>
<g>
	<g>
		<path fill="#118341" d="M307.657,425.302c-0.541,2.578-1.498,4.99-2.746,7.277c-5.363,9.857-16.717,16.678-29.734,16.678
			c-13.059,0-24.37-6.82-29.734-16.678c-1.248-2.287-2.163-4.699-2.745-7.277h7.527c0.79,2.662,2.162,5.074,3.951,7.277
			c4.699,5.697,12.351,9.398,21.001,9.398s16.344-3.701,21.002-9.398c1.788-2.162,3.16-4.615,3.951-7.277H307.657z"/>
	</g>
	<g>
		<g>
			<path fill="#118341" d="M184.642,308.692c0,0.499,0,0.998,0.041,1.497v-2.246C184.642,308.193,184.642,308.401,184.642,308.692z"
				/>
			<path fill="#118341" d="M361.638,395.817c0,48.573-39.508,88.081-88.083,88.081c-47.825,0-86.875-38.301-88.04-85.876
				c-0.041-0.167-0.041-0.375-0.041-0.583v-0.25l-0.042-0.832v-0.832l-0.749-85.337v-2.911c0-0.624,0.042-1.206,0.042-1.83
				c1.705-43.417,37.512-78.184,81.345-78.184c15.429,0,29.859,4.325,42.169,11.811c7.07,4.284,13.432,9.648,18.838,15.845
				c12.686,14.348,20.379,33.187,20.379,53.772c0,10.938-2.162,21.376-6.113,30.899c-2.828-3.369-5.863-6.571-9.148-9.482
				c2.203-6.737,3.367-13.973,3.367-21.417c0-24.121-12.309-45.372-30.982-57.848c-6.32-4.242-13.391-7.485-20.959-9.44
				c-5.614-1.497-11.52-2.246-17.592-2.246c-38.052,0-69.076,30.691-69.492,68.661c-0.041,0.292-0.041,0.583-0.041,0.874
				c0,0.624,0,1.248,0.041,1.872l0.375,41.046v0.79l0.374,43.084l0.041,1.082c0.375,41.67,34.435,75.439,76.188,75.439
				c42.002,0,76.229-34.227,76.229-76.23c0-2.745-0.166-5.489-0.457-8.151c3.783-2.579,7.402-5.49,10.688-8.692
				C361.097,384.381,361.638,390.037,361.638,395.817z"/>
		</g>
		<path fill="#118341" d="M356.357,365.625c-3.494-9.565-8.609-18.34-15.014-25.992c-2.828-3.369-5.863-6.571-9.148-9.482
			c-15.555-13.932-36.14-22.416-58.639-22.416c-14.14,0-27.53,3.369-39.383,9.315c-4.159,2.038-8.109,4.45-11.853,7.195
			c0.208,4.658,0.79,9.19,1.83,13.641c2.994,13.682,9.481,26.117,18.423,36.264c5.406,6.196,11.77,11.561,18.839,15.845
			c12.31,7.486,26.741,11.811,42.169,11.811c16.969,0,32.688-5.198,45.746-14.098c3.785-2.578,7.402-5.489,10.688-8.691
			C359.142,374.316,357.894,369.867,356.357,365.625z M286.032,387.625c-7.569-1.996-14.598-5.198-20.918-9.44
			c-16.053-10.729-27.448-27.988-30.276-47.95c11.354-6.778,24.62-10.646,38.76-10.646c20.918,0,39.882,8.442,53.648,22.166
			c2.994,2.953,5.738,6.155,8.15,9.565c3.451,4.782,6.322,10.022,8.609,15.554c-10.189-3.244-20.336-6.529-30.484-9.981
			c-12.893-4.408-25.743-8.9-38.385-14.098c11.728,6.987,23.872,13.308,36.057,19.587c10.396,5.323,20.793,10.48,31.314,15.554
			c-11.104,7.527-24.494,11.977-38.926,11.977C297.552,389.87,291.646,389.08,286.032,387.625z"/>
	</g>
</g>
</svg>
