<?xml version="1.0" encoding="utf-8"?>
<!-- Generator: Adobe Illustrator 16.0.0, SVG Export Plug-In . SVG Version: 6.00 Build 0)  -->
<!DOCTYPE svg PUBLIC "-//W3C//DTD SVG 1.1//EN" "http://www.w3.org/Graphics/SVG/1.1/DTD/svg11.dtd">
<svg version="1.1" id="Layer_1" xmlns="http://www.w3.org/2000/svg" xmlns:xlink="http://www.w3.org/1999/xlink" x="0px" y="0px"
	 width="219.14px" height="237px" viewBox="0 303.445 219.14 237" enable-background="new 0 303.445 219.14 237"
	 xml:space="preserve">
<g>
	<g>
		<path fill="#00480F" d="M137.466,471.492c-0.388,1.85-1.074,3.58-1.969,5.223c-3.85,7.07-11.995,11.965-21.335,11.965
			c-9.339,0-17.485-4.895-21.334-11.965c-0.896-1.643-1.552-3.373-1.97-5.223h5.4c0.567,1.91,1.552,3.641,2.835,5.223
			c3.372,4.088,8.862,6.742,15.068,6.742c6.207,0,11.727-2.654,15.068-6.742c1.283-1.553,2.268-3.313,2.835-5.223H137.466z"/>
	</g>
	<g>
		<g>
			<path fill="#00480F" d="M49.234,387.824c0,0.358,0,0.716,0.03,1.074v-1.641C49.234,387.466,49.234,387.615,49.234,387.824z"/>
			<path fill="#00480F" d="M176.227,450.335c0,34.852-28.347,63.199-63.198,63.199c-34.314,0-62.333-27.482-63.168-61.617
				c-0.03-0.119-0.03-0.268-0.03-0.418v-0.18l-0.029-0.596v-0.598l-0.567-61.228v-2.089c0-0.447,0.03-0.865,0.03-1.313
				c1.223-31.151,26.914-56.096,58.364-56.096c11.069,0,21.424,3.103,30.256,8.474c5.072,3.073,9.638,6.922,13.517,11.368
				c9.102,10.294,14.621,23.812,14.621,38.582c0,7.848-1.552,15.337-4.386,22.17c-2.029-2.417-4.207-4.714-6.564-6.803
				c1.581-4.833,2.417-10.025,2.417-15.367c0-17.307-8.833-32.554-22.23-41.505c-4.535-3.043-9.607-5.371-15.038-6.773
				c-4.028-1.074-8.266-1.611-12.622-1.611c-27.302,0-49.562,22.021-49.86,49.264c-0.029,0.208-0.029,0.417-0.029,0.626
				c0,0.448,0,0.895,0.029,1.343l0.269,29.451v0.567l0.269,30.913l0.03,0.775C58.573,480.771,83.011,505,112.969,505
				c30.137,0,54.694-24.557,54.694-54.693c0-1.969-0.119-3.939-0.328-5.848c2.715-1.85,5.311-3.939,7.668-6.236
				C175.809,442.16,176.227,446.189,176.227,450.335z"/>
		</g>
		<path fill="#00480F" d="M172.407,428.673c-2.507-6.863-6.177-13.159-10.771-18.649c-2.029-2.417-4.207-4.714-6.564-6.803
			c-11.16-9.996-25.93-16.083-42.072-16.083c-10.146,0-19.754,2.417-28.258,6.684c-2.983,1.462-5.818,3.193-8.504,5.162
			c0.149,3.342,0.567,6.594,1.313,9.787c2.148,9.817,6.804,18.738,13.219,26.02c3.879,4.445,8.444,8.295,13.518,11.369
			c8.832,5.369,19.186,8.473,30.256,8.473c12.174,0,23.453-3.729,32.822-10.115c2.716-1.85,5.312-3.938,7.669-6.236
			C174.406,434.939,173.512,431.716,172.407,428.673z M121.95,444.458c-5.431-1.434-10.474-3.73-15.009-6.773
			c-11.518-7.699-19.693-20.082-21.723-34.404c8.146-4.864,17.664-7.639,27.81-7.639c15.009,0,28.615,6.057,38.492,15.904
			c2.148,2.119,4.117,4.416,5.848,6.863c2.477,3.432,4.536,7.19,6.177,11.159c-7.311-2.326-14.591-4.684-21.871-7.16
			c-9.25-3.164-18.471-6.386-27.541-10.116c8.414,5.013,17.127,9.548,25.87,14.053c7.459,3.82,14.919,7.52,22.468,11.16
			c-7.967,5.4-17.574,8.594-27.929,8.594C130.216,446.07,125.979,445.501,121.95,444.458z"/>
	</g>
</g>
</svg>
