<?xml version="1.0" encoding="utf-8"?>
<!-- Generator: Adobe Illustrator 16.0.0, SVG Export Plug-In . SVG Version: 6.00 Build 0)  -->
<!DOCTYPE svg PUBLIC "-//W3C//DTD SVG 1.1//EN" "http://www.w3.org/Graphics/SVG/1.1/DTD/svg11.dtd">
<svg version="1.1" id="Layer_1" xmlns="http://www.w3.org/2000/svg" xmlns:xlink="http://www.w3.org/1999/xlink" x="0px" y="0px"
	 width="800px" height="800px" viewBox="0 0 800 800" enable-background="new 0 0 800 800" xml:space="preserve">
<path fill="#2E8B57" d="M485.206,518.257l-15.184,15.983c0,0-36.086,37.993-134.586-65.71
	c-98.499-103.704-62.413-141.694-62.413-141.694l9.561-10.065c23.551-24.796,25.771-64.605,5.224-93.667l-42.032-59.45
	c-25.433-35.97-74.577-40.722-103.728-10.033l-52.319,55.083c-14.454,15.217-24.141,34.944-22.966,56.827
	c3.005,55.984,26.928,176.436,160.416,316.976C368.737,731.54,501.56,737.463,555.876,732.104
	c17.181-1.697,32.12-10.96,44.16-23.637l47.354-49.854c31.963-33.65,22.95-91.34-17.946-114.88l-63.684-36.656
	C538.906,491.62,506.193,496.16,485.206,518.257z"/>
<path fill="#17462C" d="M566.666,400c92.047,0,166.667-74.619,166.667-166.667S658.713,66.667,566.666,66.667
	S400,141.286,400,233.333c0,26.661,6.26,51.86,17.39,74.208c2.96,5.938,3.943,12.726,2.229,19.135l-9.927,37.1
	c-4.31,16.106,10.424,30.84,26.53,26.53l37.101-9.927c6.409-1.713,13.196-0.73,19.137,2.23C514.807,393.74,540.006,400,566.666,400z
	"/>
</svg>
