<?xml version="1.0" encoding="utf-8"?>
<!-- Generator: Adobe Illustrator 16.0.0, SVG Export Plug-In . SVG Version: 6.00 Build 0)  -->
<!DOCTYPE svg PUBLIC "-//W3C//DTD SVG 1.1//EN" "http://www.w3.org/Graphics/SVG/1.1/DTD/svg11.dtd">
<svg version="1.1" id="央铋_1" xmlns="http://www.w3.org/2000/svg" xmlns:xlink="http://www.w3.org/1999/xlink" x="0px" y="0px"
	 width="3000px" height="1637px" viewBox="0 0 3000 1637" enable-background="new 0 0 3000 1637" xml:space="preserve">
<rect id="_x37_" fill="#DDEEE0" width="3000" height="1637"/>
<g>
	<g id="_x36_">
		<path fill="#AA5635" d="M801.966,941.863c0.101,0.002,0.376,0.015,0.312,0.006l0.009-0.012
			C510.859,906.994,399.851,727.46,433.369,443.195c8.778-42.996-48.744-63.525-67.739-23.018
			c-154.988,330.517,36.63,705.9,414.964,717.281C915.112,1153.364,937.26,953.805,801.966,941.863z"/>
		<rect x="796.298" y="839.103" fill="#AA5635" width="88.064" height="103.991"/>
		<path fill="#E8C0A6" d="M506.534,1600.876c0.391,18.317,1.389,35.235,3.046,50.414c0,0,411.218,77.746,667.458,0
			c1.924-15.498,3.797-32.385,5.413-50.414c17.216-192.685,5.207-515.813-273.98-675.413c0,0,3.036-24.831-25.058-38.096
			c0,0-39.928,10.301-88.068-0.288c0,0-26.941,12.245-21.518,38.281c-89.406,64.708-190.378,106.417-213.028,211.207
			C530.007,1278.971,503.817,1473.579,506.534,1600.876z"/>
		<path fill="#AA5635" d="M695.766,707.33c10.69,49.381,70.984,36.633,60.772-12.848
			C745.849,645.104,685.554,657.852,695.766,707.33z"/>
		<path fill="#AA5635" d="M990.399,707.33c-10.69,49.381-70.984,36.633-60.772-12.848
			C940.316,645.104,1000.611,657.852,990.399,707.33z"/>
		<path fill="#AA5635" d="M719.144,760.677c6.877,165.351,272.056,141.108,245.891-24.938c-3.619-32.931-15.41-54.827-20.94-107.324
			c-12.797-121.502-185.459-127.969-200.981-0.908C737.017,677.63,718.755,714.582,719.144,760.677z"/>
		<path fill="#7C3021" d="M809.833,686.254c3.977-7.551-7.975-13.623-11.728-5.957C794.129,687.848,806.081,693.919,809.833,686.254
			z"/>
		<path fill="#7C3021" d="M888.678,686.406c3.976-7.553-7.975-13.623-11.728-5.958C872.974,688,884.925,694.07,888.678,686.406z"/>
		<path fill="#7C3021" d="M848.855,737.951c12.042-0.144,30.76-8.262,15.538-18.961c-12.436-6.735-21.558-32.486-21.65-32.745
			c-1.007-3.05-5.815-1.403-4.697,1.644c0.396,1.132,9.866,27.836,23.973,35.479c9.751,5.972-10.569,11.755-18.946,8.801
			c-1.318-0.422-2.711,0.301-3.131,1.609C839.231,738.248,845.74,737.617,848.855,737.951z"/>
		<path fill="#7C3021" d="M924.297,620.708c-59.655,27.705-128.09-62.503-164.627-21.142l-4.473-25.268l69.562-32.632
			l111.013,38.646L924.297,620.708z"/>
		<path fill="#3D0B0B" d="M735.813,665.785c0,0,20.802-39.891,23.856-66.218c3.055-26.327,38.412-30.917,67.454-10.305
			c29.043,20.611,65.284,29.979,103.375,15.926c38.091-14.053,62.735-71.801,23.989-105.865
			c-38.363-33.728-78.266-7.446-112.778,5.621C797.172,521.808,685.272,487.791,735.813,665.785z"/>
		<path fill="#3D0B0B" d="M949.142,663.889c0,0-31.142-35.279-33.016-82.122l33.349-13.116
			C949.475,568.65,963.064,614.226,949.142,663.889z"/>
		<path fill="#7C3021" d="M708.389,717.18c1.601,0.02,2.819-1.609,2.324-3.141c-8.511-24.26,0.32-36.663,19.481-29.317
			c2.905,1.208,4.734-3.427,1.772-4.526c-20.249-8.283-36.877,4.549-25.9,35.264C706.384,716.506,707.347,717.18,708.389,717.18z"/>
		<path fill="#7C3021" d="M731.081,713.783c7.552-0.602-6.839-23.896-25.277-25.145c-1.328-0.068-2.498,0.925-2.586,2.266
			c-0.089,1.34,0.925,2.498,2.264,2.586C724.342,695.44,726.618,713.154,731.081,713.783z"/>
		<path fill="#7C3021" d="M976.246,717.18c1.042,0,2.005-0.674,2.324-1.722c10.989-30.727-5.694-43.544-25.905-35.262
			c-2.938,1.112-1.153,5.709,1.773,4.525c17.339-7.117,28.658,3.668,19.482,29.317C973.425,715.566,974.647,717.203,976.246,717.18z
			"/>
		<path fill="#7C3021" d="M953.551,713.781c4.41-0.582,6.844-18.379,25.603-20.29c1.339-0.089,2.352-1.247,2.264-2.587
			c-0.088-1.341-1.275-2.346-2.585-2.266C960.395,689.895,946.01,713.151,953.551,713.781z"/>
		<path fill="#3D0B0B" d="M965.953,737.478c-0.597-3.813-1.364-7.688-2.291-11.648c-1.352-5.849-3.058-11.843-5.142-17.996
			c0-0.013,0-0.013,0-0.024c-0.536-2.279-1.035-4.618-1.522-7.019c-1.048-5.13-2.035-10.515-3.083-15.925
			c-0.292-1.548-0.597-3.083-0.901-4.631c-0.012-0.049-0.024-0.109-0.037-0.158c-0.89-4.398-1.84-8.785-2.924-13.049
			c-0.085-0.354-0.183-0.719-0.268-1.072c-0.208-0.744-0.402-1.499-0.609-2.23c-2.022-7.335-4.496-14.256-7.798-20.201
			c0.975,4.41,1.888,9.102,2.741,13.951c0.622,3.473,1.207,7.042,1.767,10.661c3.96,25.417,6.543,53.222,7.761,70.109v0.013
			c4.837,30.132-15.791,36.273-37.504,27.172c-116.386-64.006-178.04,50.188-185.399-26.965c-0.28-8.164,0.207-16.498,1.182-24.893
			c0.195-1.646,0.402-3.291,0.622-4.936c1.852-13.513,4.801-27.159,7.664-40.537c1.486-6.934,2.949-13.793,4.216-20.52
			c0.792-4.154,1.511-8.261,2.12-12.306c-3.558,9.845-6.787,18.667-9.784,27.683c0,0,0,0-0.024,0h-0.012
			c-0.292,0.902-0.561,1.864-0.889,2.729v0.036c-0.013,0.025-0.013,0.037-0.024,0.062c-1.584,4.825-3.034,9.553-4.362,14.22
			c-0.451,1.571-0.89,3.131-1.304,4.69c-1.353,4.935-2.583,9.821-3.716,14.768c-0.5,2.157-0.987,4.338-1.462,6.531
			c-2.132,9.894-3.984,20.092-5.824,31.168c0,0.061-0.012,0.109-0.024,0.171c-5.617,73.35,30.681,116.154,77.177,132.141
			c27.976,9.638,59.631,9.553,88.069,0.561C936.114,853.693,977.188,807.88,965.953,737.478z M781.261,773.459
			c36.602-21.348,91.311-17.254,125.159,7.48c19.958,13.501,17.606,44.108-4.667,53.369c-46.337,19.653-43.974-30.547-58.814-30.912
			c-18.472-0.463-14.512,33.031-38.99,32.289C772.585,834.613,746.876,794.197,781.261,773.459z"/>
		<path fill="#D1A68F" d="M774.019,925.027c-0.055,0.111-0.137,0.221-0.192,0.331c68.004,17.634,135.737,0.061,135.592,0.11
			c0,0,3.041-24.842-25.057-38.106c0,0-39.931,10.311-88.064-0.284C796.298,887.078,768.598,898.994,774.019,925.027z"/>
		<path fill="#E8C0A6" d="M909.423,925.457c0,0,54.283,200.818,181.927,390.075c26.437,39.194,60.356,72.409,97.558,100.471
			c53.118,40.054,112.86,69.587,166.96,90.871c91.117,35.883,166.132,48.365,166.132,48.365c25.24-44.163,18.922-78.85,18.922-78.85
			c-94.612-72.531-145.093-129.33-287.028-326.499C1111.959,952.69,909.423,925.457,909.423,925.457z"/>
		<path fill="#D1A68F" d="M1026.148,1110.174c108.046,126.08,161.378,303.683,161.378,303.683l1.381,2.146
			c53.118,40.054,112.86,69.587,166.96,90.871c0,0-152.823-136.077-202.537-227.193
			C1104.384,1189.975,1028.51,1112.566,1026.148,1110.174z"/>
		<path fill="#4F1237" d="M1117.945,1049.175c0,0,345.886,231.777,410.223,79.673c68.477-161.894-29.271-219.266-18.852-323.392
			l-238.711-133.392c0,0-41.268,16.131-102.045,190.49C1128.98,976.102,1117.945,1049.175,1117.945,1049.175z"/>
		<path fill="#AA5635" d="M1400.1,1213.257c92.814,49.615,165.031,138.085,271.793,163.501
			c206.037,54.523,298.311-131.782,322.346-304.51c4.654-30.648,7.752-61.215,9.06-92.128c3.023-24.002-4.551-45.743-31.754-47.863
			c-23.367-0.382-33.301,18.192-36.364,38.341c-2.978,11.733-6.19,23.451-9.607,35.08c-17.898,59.547-40.375,119.547-74.742,171.238
			c-24.628,35.838-60.98,77.248-107.866,61.907c-32.596-9.327-57.965-28.253-83.129-51.549
			c-50.939-48.513-98.201-103.79-158.981-142.508C1385.611,969.354,1278.834,1147.238,1400.1,1213.257z"/>
		<path fill="#4F1237" d="M1358.574,660.41c113.666-50.515,189.77,130.029,130.677,223.279L1358.574,660.41z"/>
		<path fill="#AA5635" d="M1565.479,1669.206h-384.458c-1.984-152.024,15.561-305.711,51.271-453.342
			c21.311-86.158,33.565-155.052,115.668-201.091c-5.851-51.023,2.13-124.603,9.246-154.912
			c3.743-16.368,15.456-28.75,28.622-32.859c33.678-11.695,73.551,16.998,63.187,54.958c-3.054-1.921-12.83,106.314-6.082,136.363
			c166.87,53.255,81.809,242.842,93.212,370.038C1537.024,1481.819,1546.038,1577.842,1565.479,1669.206z"/>
		<path fill="#7C3021" d="M1449.923,877.034c-0.233,1.646-0.525,3.315-0.908,4.926c-2.202-1.458-8.366,58.261-8.422,101.605
			c-40.73,18.521-86.139,10.375-94.449,8.669c2.473-59.514-4.593-149.078,39.685-165.232
			C1417.62,813.406,1455.519,842.383,1449.923,877.034z"/>
		<path fill="#AA5635" d="M1259.872,834.545c6.84,42.436,21.165,90.267,54.684,118.338h0.055
			c13.539,11.248,30.042,18.409,47.528,21.851c99.02,27.694,215.147-87.418,137.765-171.263
			c-28.12-25.983-34.085-72.016-56.499-97.858c-32.594-47.3-104.124-44.851-142.748-6.272
			C1265.75,734.219,1253.817,782.287,1259.872,834.545z"/>
		<path fill="#D1A68F" d="M506.534,1600.876c0.391,18.317,1.389,35.235,3.046,50.414c0,0,411.218,77.746,667.458,0
			c1.924-15.498,3.797-32.385,5.413-50.414h-0.01C888.3,1678.921,506.534,1600.876,506.534,1600.876z"/>
		<path fill="#7C3021" d="M1421.822,808.374c3.884-7.376-7.789-13.306-11.454-5.818
			C1406.485,809.93,1418.157,815.859,1421.822,808.374z"/>
		<path fill="#1D3F70" d="M1460.661,1024.891c0,0,0.021,5.732,0.36,15.715c1.811,52.945,12.678,225.418,77.705,294.428
			c2.871,3.046,5.865,6,8.963,8.871c11.33,10.476,24.132,19.737,37.983,27.774c30.77,17.875,66.756,29.751,103.453,35.72
			c63.782,10.394,129.776,2.933,174.469-21.899c68.701-38.158,93.255-140.849,100.181-179.12c1.656-9.18,2.305-14.654,2.305-14.654
			c-67.815,11.042-100.016-39.938-100.016-39.938c-2.273,3.139-4.548,6.134-6.854,8.983
			c-72.734,90.291-158.807,38.776-216.404-22.547c-59.223-63.062-134.582-96.002-166.617-107.98
			C1466.403,1026.589,1460.661,1024.891,1460.661,1024.891z"/>
		<path fill="#10325B" d="M1535.352,1151.786l12.338,192.118c36.512,33.754,88.213,54.839,141.437,63.494
			c-46.195-19.471-88.079-50.003-95.509-97.434C1575.855,1196.633,1535.352,1151.786,1535.352,1151.786z"/>
		<path fill="#10325B" d="M1859.211,1160.77c36.233,59.965,104.555,45.619,104.555,45.619l0.01-0.01
			c1.656-9.18,2.305-14.654,2.305-14.654c-67.815,11.042-100.016-39.938-100.016-39.938
			C1863.791,1154.925,1861.517,1157.92,1859.211,1160.77z"/>
		<path fill="#7C3021" d="M1475.827,799.295c3.883-7.375-7.789-13.305-11.454-5.818
			C1460.489,800.852,1472.161,806.781,1475.827,799.295z"/>
		<path fill="#7C3021" d="M1455.405,855.161c11.759-0.14,30.045-8.068,15.176-18.519c-12.13-6.568-21.056-31.728-21.144-31.98
			c-12.548-9.474,5.313,29.705,18.826,36.254c9.517,5.832-10.305,11.481-18.505,8.598c-1.284-0.413-2.649,0.293-3.057,1.572
			C1446.006,855.451,1452.363,854.836,1455.405,855.161z"/>
		<path fill="#1D3F70" d="M1163.536,1544.718c15.225,90.333,17.839,179.392,19.954,270.605h497.002
			c-33.136-167.396-62.17-258.553-87.956-348.466c-4.933-110.31-18.901-223.205-57.175-315.061
			c-20.037-48.751-46.366-88.01-74.7-126.906c-37.267,24.227-110.145,60.594-135.931,4.837
			C1126.558,1047.778,1146.841,1407.49,1163.536,1544.718z"/>
		<path fill="#7C3021" d="M1259.872,834.545c6.84,42.436,21.165,90.267,54.684,118.338h0.055
			c-18.577-23.063-30.163-74.663-30.163-74.663l8.78-22.952c147.344-47.555,134.711-165.893,134.711-165.893
			c-21.982-19.206-51.657-23.092-79.892-16.071C1278.874,691.191,1251.169,765.898,1259.872,834.545z"/>
		<path fill="#4F1237" d="M1412.279,678.849c0,0,11.857,116.691-120.005,164.591l-47.326-26.123
			C1198.795,726.77,1282.354,593.78,1412.279,678.849z"/>
		<path fill="#4F1237" d="M1258.377,642.908c30.576,111.127,159.94,77.605,132.714-34.379
			C1360.516,497.404,1231.151,530.927,1258.377,642.908z"/>
		<path fill="#AA5635" d="M1232.92,855.985c10.44,48.228,69.327,35.778,59.354-12.548
			C1281.834,795.211,1222.947,807.662,1232.92,855.985z"/>
		<path fill="#7C3021" d="M1248.228,865.952c1.601,0.019,2.82-1.61,2.325-3.142c-9.191-25.654,2.18-36.437,19.483-29.314
			c2.902,1.195,4.729-3.428,1.77-4.528c-20.251-8.276-36.875,4.546-25.9,35.264C1246.223,865.277,1247.187,865.952,1248.228,865.952
			z"/>
		<path fill="#7C3021" d="M1270.92,862.555c7.552-0.602-6.839-23.896-25.277-25.145c-1.304-0.084-2.498,0.926-2.587,2.266
			c-0.088,1.34,0.925,2.498,2.264,2.587C1264.181,844.212,1266.458,861.928,1270.92,862.555z"/>
		<path fill="#F4D4BE" d="M1259.492,878.232c-0.104,7.08,11.018,7.08,10.914-0.001
			C1270.509,871.152,1259.387,871.152,1259.492,878.232z"/>
		<path fill="#AA5635" d="M1578.068,1428.827c1.307-0.013,1.598,0.019,2.269,0.05c0.578,0.033,1.118,0.081,1.649,0.137
			c1.062,0.112,2.082,0.275,3.095,0.472c2.016,0.402,4.001,1.002,5.884,1.817c1.881,0.805,3.658,1.844,5.15,3.07
			c1.54,1.21,2.71,2.605,3.681,4.029c2.877,4.217,0.309,9.709-5.735,12.267c-4.26,1.803-9.11,1.667-12.609-0.048l-5.313-2.618
			c-0.104-0.052,0.115,0.074,0.07,0.057c0,0-0.088-0.045-0.233-0.072l-0.212-0.031c-0.03-0.002-0.042-0.005-0.042-0.005l0.557-0.001
			c-7.153,0.168-12.551-3.975-12.057-9.256C1564.716,1433.414,1570.915,1428.996,1578.068,1428.827z"/>
		<path fill="#AA5635" d="M1583.597,1446.678c1.05,0.158,1.349,0.228,1.938,0.344l1.472,0.336c0.957,0.234,1.874,0.501,2.788,0.801
			c1.822,0.602,3.619,1.35,5.367,2.301c1.745,0.939,3.439,2.164,4.914,3.605c1.494,1.445,2.655,3.218,3.452,5.074
			c1.977,4.906-2.008,10.473-8.9,12.433c-6.893,1.962-14.082-0.426-16.059-5.332c0.047,0.239,0.277,0.261-0.225-0.028
			c-0.241-0.127-0.605-0.294-1.06-0.444c-0.226-0.073-0.472-0.146-0.707-0.203l-0.329-0.077c-0.02-0.009-0.332-0.056,0.098,0.008
			c-6.886-0.956-10.844-5.943-8.841-11.14C1569.507,1449.158,1576.711,1445.722,1583.597,1446.678z"/>
		<path fill="#AA5635" d="M1590.083,1465.191l10.763,4.614c5.913,2.535,7.416,8.348,3.359,12.983
			c-4.058,4.635-12.139,6.338-18.051,3.803l-10.763-4.615c-5.911-2.534-7.415-8.347-3.358-12.982
			S1584.172,1462.656,1590.083,1465.191z"/>
		<path fill="#AA5635" d="M1592.765,1482.15l10.763,4.614c5.912,2.535,7.416,8.348,3.358,12.983
			c-4.056,4.635-12.138,6.338-18.05,3.803l-10.763-4.615c-5.912-2.535-7.415-8.347-3.358-12.982S1586.853,1479.615,1592.765,1482.15
			z"/>
		<path fill="#E8C0A6" d="M303.323,833.875c12.205,65.635,47.626,122.718,90.023,169.952c0.01,0.011,0.01,0.011,0.021,0.011
			c56.116,62.526,124.477,107.785,167.41,132.729c25.254,14.665,41.708,22.311,41.708,22.311L773.826,925.36
			c-196.11-44.415-270.698-165.866-300.14-227.899c-22.67-47.77-34.886-167.245-39.3-219.686
			c-1.317-15.673-1.945-25.356-1.945-25.356c-57.474,7.883-76.872-10.497-76.872-10.497s-3.746,7.821-9.375,22.001
			C324.162,519.308,273.181,671.756,303.323,833.875z"/>
		<path fill="#10325B" d="M1309.212,1031.446c32.056,74.917,117.026,31.212,151.81,9.159c2.819-1.791,5.31-3.438,7.419-4.868
			c4.93-3.345,7.749-5.495,7.749-5.495c-9.786-3.653-15.528-5.352-15.528-5.352c-115.411,73.836-135.931,4.837-135.931,4.837
			C1319.4,1030.026,1314.234,1030.603,1309.212,1031.446z"/>
		<path fill="#10325B" d="M1606.559,1816.935l15.096-3.224c-11.534-53.99-26.778-108.567-41.521-161.348
			c-8.422-30.151-17.131-61.329-25.126-92.287c-7.602-29.416-13.768-55.627-18.85-80.132c-2.068-9.897-3.98-19.664-5.686-29.039
			c-3.622-19.771-6.629-39.183-8.939-57.707c-1.679-13.429-3.041-26.785-4.05-39.696c-2.253-28.769-5.244-56.775-8.889-83.241
			c-4.901-35.484-11.057-68.72-18.295-98.784c-2.308-9.598-4.799-19.141-7.402-28.363c-2.88-10.194-5.939-20.084-9.091-29.396
			c-12.052-35.617-22.921-55.668-28.328-64.449c-1.863-3.019-2.97-4.526-3.09-4.689l-12.397,9.197l0,0c0,0,0.853,1.17,2.347,3.59
			c4.073,6.617,14.851,25.848,26.847,61.3c3.069,9.065,6.049,18.703,8.857,28.644c2.549,9.028,4.988,18.375,7.25,27.779
			c7.12,29.573,13.18,62.304,18.012,97.282c3.603,26.165,6.561,53.868,8.791,82.336c1.027,13.146,2.413,26.741,4.121,40.405
			c2.347,18.813,5.399,38.517,9.071,58.565c1.728,9.497,3.665,19.396,5.759,29.414c5.132,24.74,11.353,51.188,19.018,80.846
			c8.031,31.104,16.761,62.356,25.203,92.579C1579.945,1709.07,1595.125,1763.414,1606.559,1816.935z"/>
		<path fill="#10325B" d="M1450.234,1815.69l15.419-0.735c-2.474-51.843-5.368-101.066-8.604-146.302
			c-5.643-78.967-12.31-145.66-19.816-198.225c-2.256-15.807-4.623-30.526-7.035-43.752c-1.472-8.118-2.874-16.204-4.166-24.024
			c-6.188-37.354-11.422-77.301-15.557-118.738c-3.522-35.308-6.266-71.729-8.154-108.25c-3.104-60.167-2.885-100.219-2.851-104.588
			l0-0.968h-15.437v0.905c-0.035,4.354-0.256,44.832,2.871,105.446c1.9,36.767,4.663,73.436,8.209,108.986
			c4.167,41.767,9.445,82.049,15.687,119.725c1.304,7.896,2.72,16.063,4.208,24.268c2.378,13.038,4.713,27.561,6.941,43.172
			c7.456,52.207,14.084,118.536,19.7,197.144C1444.88,1714.869,1447.768,1763.969,1450.234,1815.69z"/>
		<path fill="#10325B" d="M1313.854,1815.447l15.435-0.249c-0.777-48.216-2.025-97.425-3.709-146.26
			c-2.166-63.029-5.08-126.481-8.663-188.591c-1.063-18.379-1.957-37.175-2.657-55.868c-1.299-34.787-1.914-69.809-1.827-104.091
			c0.039-15.889,0.236-31.826,0.585-47.37c0.806-36.689,2.438-72.44,4.85-106.267c0.341-4.948,0.709-9.888,1.128-15.123
			c4.919-62.154,10.882-97.033,10.943-97.38l-15.21-2.632c-0.249,1.434-6.138,35.837-11.121,98.788
			c-0.423,5.286-0.795,10.283-1.137,15.27c-2.429,34.056-4.073,70.063-4.884,107.001c-0.351,15.643-0.549,31.684-0.589,47.675
			c-0.086,34.484,0.532,69.714,1.837,104.706c0.705,18.799,1.604,37.7,2.673,56.181c3.575,61.99,6.484,125.321,8.646,188.232
			C1311.833,1718.211,1313.079,1767.325,1313.854,1815.447z"/>
		<path fill="#10325B" d="M1232.902,1815.966l15.382-1.286c-3.942-47.174-7.31-96.26-10.007-145.895
			c-2.839-52.365-4.959-106.086-6.299-159.671c-0.839-33.698-0.33-67.628,1.513-100.846c0.448-8.196,1.007-16.687,1.708-25.964
			c3.125-40.543,8.306-80.912,15.396-119.977c7.885-43.425,18.13-85.442,30.45-124.881c1.419-4.536,2.813-8.892,4.144-12.941
			c16.53-50.305,30.745-78.193,30.886-78.469l-13.727-7.061c-0.599,1.165-14.87,29.117-31.825,80.711
			c-1.353,4.121-2.77,8.546-4.212,13.154c-12.508,40.045-22.906,82.682-30.904,126.729c-7.184,39.583-12.432,80.48-15.599,121.559
			c-0.71,9.396-1.276,17.992-1.729,26.29c-1.866,33.622-2.383,67.969-1.533,102.079c1.345,53.735,3.47,107.608,6.317,160.124
			C1225.569,1719.406,1228.947,1768.643,1232.902,1815.966z"/>
		<path fill="#4F1237" d="M1347.96,1014.773c0,0-5.116,66.355,0,143.632s-59.807,107.479-62.698,175.054
			c-5.082,118.788-129.918,86.213-144.085-31.541c-8.481-70.492-48.31-108.704-23.232-252.743
			C1133.915,957.454,1347.96,1014.773,1347.96,1014.773z"/>
		<path fill="#10325B" d="M1767.294,1269.775c25.438,0,52.186-10.572,78.747-31.35c27.163-21.248,44.5-45.457,45.225-46.478
			l-12.582-8.943c-0.651,0.916-65.98,91.245-135.526,67.299c-44.584-15.354-89.786-59.742-133.501-102.668
			c-49.961-49.062-101.623-99.792-157.263-114.056l-3.833,14.952c51.619,13.233,101.775,62.485,150.281,110.117
			c44.938,44.128,91.406,89.758,139.29,106.249C1747.592,1268.156,1757.344,1269.775,1767.294,1269.775z"/>
		<path fill="#10325B" d="M1739.813,1355.271c25.552,0,51.086-5.444,76.397-16.324c45.238-19.449,76.958-55.375,95.603-82.088
			c20.103-28.804,29.539-52.834,29.931-53.843l-14.387-5.594c-0.361,0.924-36.972,92.833-117.243,127.342
			c-110.265,47.404-196.52-29.619-228.486-64.937l-11.443,10.358c21.723,24,57.532,56.209,104.766,73.354
			C1696.496,1351.361,1718.16,1355.271,1739.813,1355.271z"/>
		<path fill="#D1A68F" d="M393.367,1003.838c56.116,62.526,124.477,107.785,167.41,132.729c0.011,0,0.021,0,0.021,0
			s14.316-42.805,29.051-66.364C589.848,1070.203,502.706,1098.842,393.367,1003.838z"/>
		<path fill="#7C3021" d="M1450.581,872.811c-0.061-0.023-0.122-0.061-0.195-0.098c-1.462-0.73-3.083-1.314-4.801-1.681
			c-8.724-1.876-17.034,2.218-18.521,9.114c-0.743,3.46,0.292,7.043,2.936,10.088c2.474,2.864,6.104,4.936,10.211,5.813
			c1.438,0.316,2.863,0.463,4.252,0.463c0.536,0,1.06-0.024,1.572-0.072c0.012,0.012,0.012,0.012,0.024,0
			c2.9-0.232,5.568-1.134,7.713-2.547c2.534-1.67,4.351-4.058,4.972-6.945C1459.914,881.475,1456.441,875.846,1450.581,872.811z
			 M1454.248,885.982c-0.658,3.07-3.68,5.203-7.567,5.775c0,0,0,0-0.012,0c-1.706,0.256-3.57,0.207-5.483-0.207
			c-3.144-0.67-5.885-2.205-7.712-4.325c-1.669-1.925-2.34-4.095-1.913-6.116c0.78-3.607,4.825-5.947,9.698-5.947
			c1.085,0,2.218,0.123,3.363,0.366c1.962,0.414,3.729,1.17,5.203,2.145c0.049,0.013,0.085,0.049,0.134,0.085
			c2.729,1.815,4.423,4.398,4.423,6.994C1454.382,885.166,1454.333,885.58,1454.248,885.982z"/>
		<path fill="#7C3021" d="M1475.021,775.939c0.718,0,1.425-0.335,1.874-0.964c0.738-1.033,0.499-2.47-0.535-3.208
			c-0.373-0.268-9.35-6.502-26.314-3.259c-1.248,0.238-2.066,1.443-1.827,2.691c0.238,1.247,1.442,2.067,2.691,1.827
			c15.051-2.878,22.702,2.429,22.777,2.482C1474.091,775.8,1474.559,775.939,1475.021,775.939z"/>
		<path fill="#7C3021" d="M1391.758,791.339c0.659,0,1.313-0.282,1.768-0.828c13.4-16.083,27.576-14.606,27.719-14.588
			c1.257,0.147,2.405-0.751,2.555-2.013s-0.751-2.406-2.014-2.556c-0.681-0.08-16.813-1.769-31.794,16.212
			c-0.813,0.976-0.682,2.426,0.295,3.238C1390.717,791.164,1391.239,791.339,1391.758,791.339z"/>
		<path fill="#7C3021" d="M902.363,660.678c0.715,0,1.421-0.332,1.87-0.957c0.741-1.031,0.506-2.467-0.523-3.208
			c-0.76-0.547-18.925-13.394-46.76-13.394c-1.27,0-2.3,1.029-2.3,2.3s1.03,2.301,2.3,2.301c26.283,0,43.899,12.403,44.074,12.528
			C901.43,660.539,901.898,660.678,902.363,660.678z"/>
		<path fill="#7C3021" d="M787.262,655.395c0.413,0,0.83-0.111,1.207-0.344c20.303-12.543,40.754-8.112,40.959-8.065
			c1.242,0.281,2.471-0.497,2.75-1.735c0.28-1.239-0.497-2.471-1.736-2.752c-0.907-0.205-22.505-4.88-44.392,8.639
			c-1.081,0.668-1.416,2.086-0.748,3.166C785.739,655.007,786.491,655.395,787.262,655.395z"/>
		<path fill="#7C3021" d="M846.536,777.694c14.967,0,23.797-2.394,24.392-2.562c1.631-0.456,2.583-2.148,2.126-3.779
			c-0.457-1.631-2.151-2.582-3.778-2.127c-0.318,0.087-23.167,6.172-57.954-1.862c-1.649-0.382-3.298,0.647-3.678,2.298
			c-0.382,1.65,0.647,3.297,2.297,3.679C824.365,776.672,836.76,777.694,846.536,777.694z"/>
		<path fill="#D1A68F" d="M346.194,463.923c34.598,28.063,88.192,13.852,88.192,13.852c-1.317-15.673-1.945-25.356-1.945-25.356
			c-57.474,7.883-76.872-10.497-76.872-10.497S351.823,449.743,346.194,463.923z"/>
		<path fill="#AA5635" d="M494.501,349.243c-3.592-2.976-8.953-2.213-11.675,1.542c-8.338,10.677-17.7,20.681-28.251,29.119
			c-2.178-24.459,2.702-49.739,2.595-49.865c11.083-28.325,23.678-55.998,37.527-83.111c4.648-8.581-8.467-16.489-13.842-8.194
			c-16.673,24.573-32.322,49.957-46.622,76.024c-0.145-0.046-0.293-0.083-0.439-0.128c5.163-31.435,12.06-62.645,21.537-93.066
			c-11.577-48.961-44.138,80.869-47.198,90.849c-0.076,0.006-0.151,0.014-0.226,0.021c-0.146-30.327,3.407-60.69,10.136-90.284
			c-16.479-47.77-38.494,85.265-38.078,96.684c-0.114,0.04-0.227,0.08-0.34,0.12c-3.591-23.852-4.137-48.156-3.441-72.29
			c-21.593-41.421-24.29,73.697-23.132,84.038c-2.063,11.573-7.54,51.372,6.537,106.718c4.369,17.266,57.731,17.521,70.42,5.483
			c11.898-11.287,24.804-29.566,29.159-36.375C468.506,396.965,505.642,361.506,494.501,349.243z"/>
	</g>
	<g id="_x35_">
		<path fill="#AA5635" d="M2107.121,707.046c-10.168,46.968-67.517,34.843-57.803-12.22
			C2059.485,647.859,2116.834,659.984,2107.121,707.046z"/>
		<path fill="#7C3021" d="M2093.658,716.413c-1.521,0.019-2.681-1.531-2.212-2.987c8.1-23.072-0.311-34.876-18.527-27.885
			c-2.767,1.139-4.503-3.258-1.687-4.306c19.263-7.873,35.073,4.326,24.637,33.542
			C2095.565,715.771,2094.649,716.413,2093.658,716.413z"/>
		<path fill="#7C3021" d="M2072.074,713.182c-7.014-0.988,6.289-22.466,24.044-23.914c1.284-0.094,2.378,0.881,2.462,2.154
			c0.083,1.275-0.882,2.376-2.155,2.459C2078.485,695.736,2076.32,712.586,2072.074,713.182z"/>
		<path fill="#AA5635" d="M1808.444,707.046c10.167,46.968,67.516,34.843,57.803-12.22
			C1856.08,647.859,1798.731,659.984,1808.444,707.046z"/>
		<path fill="#7C3021" d="M1821.907,716.413c-0.991,0-1.906-0.642-2.212-1.638c-10.451-29.225,5.414-41.418,24.64-33.539
			c2.801,1.06,1.088,5.43-1.686,4.305c-16.488-6.768-27.263,3.485-18.528,27.885C1824.59,714.879,1823.428,716.436,1821.907,716.413
			z"/>
		<path fill="#7C3021" d="M1843.492,713.18c-4.194-0.552-6.508-17.48-24.352-19.298c-1.272-0.084-2.238-1.185-2.154-2.46
			c0.086-1.273,1.195-2.251,2.461-2.154C1836.984,690.461,1850.664,712.583,1843.492,713.18z"/>
		<rect x="1911.717" y="829.258" fill="#AA5635" width="86.979" height="102.717"/>
		<path fill="#7C3021" d="M1911.717,829.258v46.127c49.033,17.096,86.979,0,86.979,0v-46.127H1911.717z"/>
		<path fill="#EB5648" d="M1679.647,1482.819c-4.53-92.634,56.048-174.054,86.054-261.153
			c30.572-87.737,29.07-181.644,29.926-277.242c29.72-17.555,116.151-43.4,111.523-40.092c17.334,11.379,72.236,19.092,96.111,0
			c41.216,10.455,75.81,22.908,111.359,40.118c-1.279,72.558,13.124,221.851,49.115,303.772
			c42.596,103.178,52.316,200.467,46.397,312.035c-168.399,38.059-357.069,37.476-528.828,0
			C1680.508,1547.188,1679.002,1520.817,1679.647,1482.819z"/>
		<path fill="#CE3932" d="M1768.918,1294.285c0.135,0.391,0.269,0.78,0.391,1.17l1.863-1.852
			C1770.404,1293.773,1769.649,1293.993,1768.918,1294.285z M1833.703,1057.467l0.365-0.365
			C1834.021,1056.943,1833.703,1057.467,1833.703,1057.467z M1910.551,1192.947l-0.036,0.036c0.073,0.062,0.134,0.098,0.207,0.135
			L1910.551,1192.947z M2211.009,1493.393c-14.715-14.701-44.519-44.506-59.424-59.411c0.982-0.982,50.583-50.583,51.54-51.541
			c-1.925-10.828-4.137-21.242-6.688-31.777c-12.37,12.383-51.108,51.13-64.066,64.091c-20.061-20.05-47.672-47.689-67.575-67.6
			c15.336-15.336,52.676-52.678,67.575-67.563c18.632,18.631,42.983,42.983,61.702,61.701
			c-4.892-18.823-10.657-37.151-16.875-55.317c-6.05-6.068-19.449-19.428-25.612-25.6c3.558-3.549,8.582-8.559,12.148-12.147
			c-3.473-9.541-6.934-18.947-10.223-28.22c-2.399,2.396-18.365,18.375-21.141,21.152l-67.575-67.575
			c13.804-13.809,47.79-47.791,63.286-63.311c-2.997-19.752-5.337-37.833-7.177-54.197c-13.258-13.248-42.584-42.569-56.109-56.098
			l47.446-47.446l2.242-2.241c0.024-3.619,0.109-5.568,0.134-5.837c-7.274-3.569-14.84-7.032-22.443-10.284
			c-11.752,11.752-42.598,42.598-46.594,46.594c-20.442-20.424-46.192-46.187-66.589-66.563c-13.417,3.165-27.784,2.86-40.83,0.378
			c-15.728,15.728-50.784,50.783-66.187,66.186l-49.006-49.006c-8.775,3.762-17.635,7.855-26.282,12.148
			c17.527,17.527,38.581,38.58,56.073,56.072c-17.339,17.339-41.918,41.919-59.74,59.741c-1.151,16.714-2.588,33.344-4.302,49.798
			c17.159,17.156,57.319,57.347,64.042,64.066c-16.575,16.575-50.869,50.869-67.575,67.575l-19.483-19.495
			c-3.381,9.351-6.976,18.528-10.734,27.695c1.973,1.968,9.2,9.209,11.003,11.015c-7.736,7.723-20.05,20.024-27.781,27.744
			c-12.218,27.169-25.329,54.174-36.492,81.575c18.346,18.339,46.043,46.06,64.273,64.286c-16.933,16.92-51.011,50.983-67.6,67.563
			l-18.728-18.728c-0.481,25.467,0.135,51.739,1.474,74.424c0.005-0.005,17.246-17.259,17.254-17.266
			c2.51,2.511,27.915,27.93,29.571,29.584c15.39,2.741,30.645,5.13,45.644,7.201c-1.293-1.291-52.646-52.659-55.988-56
			c18.566-18.567,49.054-49.04,67.588-67.563c12.31,12.313,54.565,54.557,67.575,67.563l-58.656,58.656
			c11.563,1.381,23.315,2.647,34.763,3.667c4.094-4.072,38.145-38.145,43.108-43.108c5.969,5.973,43.169,43.212,48.166,48.201
			c26.774,0.531,51.957,0.274,78.041-0.791c2.582-2.602,43.474-43.484,47.398-47.41c2.231,2.232,39.733,39.747,40.903,40.915
			c11.562-1.27,22.884-2.653,34.227-4.216c-10.42-10.419-46.151-46.15-55.915-55.914c20.716-20.709,46.88-46.881,67.575-67.563
			c15.286,15.266,51.837,51.826,67.575,67.563l-51.833,51.832c20.738-3.362,36.798-6.604,47.374-8.906l14.975-14.975
			C2210.899,1531.445,2211.082,1512.035,2211.009,1493.393z M1958.766,1414.754c-13.557-13.563-54.726-54.755-67.576-67.6
			c19.852-19.846,47.688-47.67,67.576-67.563c19.604,19.575,47.885,47.863,67.6,67.563L1958.766,1414.754z M1999.534,1146.756
			l26.831,26.83c-15.654,15.654-52.473,52.45-67.6,67.575c-20.775-20.774-46.783-46.782-67.576-67.575
			c2.819-2.814,63.129-63.152,67.576-67.6L1999.534,1146.756z M1815.354,1249.435l56.621-56.634l67.575,67.575
			c-11.679,11.677-56.801,56.786-67.575,67.563c-16.693-16.694-50.719-50.72-67.563-67.563L1815.354,1249.435z M2113.155,1260.376
			c-16.097,16.091-51.809,51.794-67.575,67.563c-19.568-19.546-47.97-47.945-67.6-67.563l67.6-67.575L2113.155,1260.376z
			 M2092.368,1066.009c10.881,10.881,19.642,19.642,20.787,20.763c-18.804,18.803-48.772,48.782-67.575,67.6
			c-16.562-16.562-51.256-51.256-67.6-67.6c16.412-16.408,51.443-51.428,67.6-67.575
			C2048.869,1022.486,2073.727,1047.354,2092.368,1066.009z M1949.347,941.824l9.419-9.418c18.94,18.92,48.508,48.493,67.6,67.574
			l-4.472,4.473l-63.128,63.104c-18.688-18.688-48.875-48.875-67.576-67.576L1949.347,941.824z M1825.442,1107.814
			c-5.147-5.152-16.033-16.022-21.03-21.043c2.447-2.449,64.714-64.728,67.563-67.575c11.67,11.669,56.809,56.808,67.575,67.575
			c-16.353,16.357-51.496,51.512-67.575,67.6L1825.442,1107.814z M1785.185,1414.754c-16.71-16.719-50.619-50.635-67.588-67.6
			c21.162-21.139,46.47-46.467,67.588-67.563c16.186,16.177,51.896,51.89,67.575,67.563
			C1833.87,1366.07,1804.131,1395.795,1785.185,1414.754z M1804.412,1433.981c19.167-19.167,48.506-48.543,67.563-67.6
			c11.09,11.083,55.71,55.729,67.575,67.6c-9.905,9.897-56.745,56.729-67.575,67.563L1804.412,1433.981z M1965.894,1581.207
			l-7.128,7.128c-15.737-15.737-52.298-52.298-67.576-67.575c9.364-9.367,57.204-57.194,67.576-67.563l62.896,62.86l4.703,4.703
			L1965.894,1581.207z M2076.468,1470.656l-30.888,30.888c-19.405-19.401-48.239-48.209-67.6-67.563
			c20.271-20.271,47.188-47.188,67.6-67.6c19.125,19.121,48.434,48.469,67.575,67.6
			C2110.777,1436.357,2077.522,1469.622,2076.468,1470.656z"/>
		<path fill="#AA5635" d="M2032.425,1313.648c0,0,64.393-31.081,105.438,0c0,0-25.293,52.168-69.849,52.729L2032.425,1313.648z"/>
		<path fill="#FCB4B4" d="M1710.229,1472.922c68.774,8.865,178.685-11.749,226.084-27.745
			c96.328-31.558,131.582-82.113,131.582-82.113s4.077-39.005-35.471-49.415c0,0-191.407,33.324-243.539,10.41
			c-21.093-9.269-34.679-73.252-23.185-102.392c45.632-115.682,30.375-276.371,30.375-276.371
			C1586.315,1017.51,1442.259,1410.442,1710.229,1472.922z"/>
		<path fill="#FCB4B4" d="M1936.286,1445.149c506.165,161.265,537.364-318.265,178.335-500.699c0,0-1.469,154.844,25.277,234.026
			c40.728,120.576-17.418,170.196-72.008,184.585C2067.896,1363.063,1936.286,1445.149,1936.286,1445.149z"/>
		<path fill="#CE3932" d="M2247.904,2111.489c-0.051,5.161-0.129,10.345-0.22,15.511h-276.99
			c-8.329-112.975-13.538-226.355-13.891-339.51c-11.88,112.096-23.974,226.157-36.371,339.51h-278.696
			c-5.487-189.48,4.67-380.146,39.575-566.738c167.565,20.976,359.595,35.153,528.82,0
			C2237.579,1741.375,2250.141,1927.568,2247.904,2111.489z"/>
		<path fill="#AA5635" d="M1839.971,760.168c4.28,140.685,223.144,144.518,234.691,5.311c2.356-51.119-14.029-67.453-20.73-131.112
			c-12.173-115.566-176.399-121.717-191.162-0.864C1856.959,681.169,1839.552,716.506,1839.971,760.168z"/>
		<path fill="#F9F8F3" d="M1984.821,773.635l-59.046-14.725C1928.392,792.072,1966.548,804.798,1984.821,773.635z"/>
		<path fill="#7C3021" d="M1926.229,689.381c3.782-7.183-7.585-12.957-11.155-5.666
			C1911.293,690.896,1922.66,696.671,1926.229,689.381z"/>
		<path fill="#7C3021" d="M1876.397,620.085c0,0,76.177-23.521,171.817,0l-5.749-30.638h-177.021L1876.397,620.085z"/>
		<path fill="#7C3021" d="M2001.222,689.525c3.782-7.184-7.585-12.958-11.154-5.667
			C1986.285,691.041,1997.652,696.815,2001.222,689.525z"/>
		<path fill="#7C3021" d="M1984.822,776.004c-1.373-1.449-64.749-13.116-61.345-17.664c-1.759-5.789,60.922,13.98,61.915,12.996
			C1988.051,771.925,1987.524,776.085,1984.822,776.004z"/>
		<path fill="#7C3021" d="M1963.346,743.787c-2.965-0.297-9.151,0.268-8.479-3.969c0.4-1.244,1.727-1.936,2.978-1.532
			c7.981,2.829,27.29-2.704,18.022-8.371c-13.417-7.269-22.426-32.667-22.803-33.745c-1.051-2.865,3.486-4.489,4.469-1.563
			c0.087,0.247,8.779,24.749,20.589,31.146C1992.61,735.938,1974.794,743.639,1963.346,743.787z"/>
		<path fill="#7C3021" d="M2039.816,681.404c-0.28-1.559-0.694-3.095-1.242-4.605c-4.155-11.466-15.877-20.908-35.177-21.019
			c-22.518,0.122-34.727,12.965-36.614,26.88c-0.269,1.876-0.342,3.765-0.22,5.641c0.901,14.707,13.171,28.877,36.834,29.012
			C2030.751,717.166,2042.899,698.231,2039.816,681.404z M2003.397,712.585c-42.999-0.231-42.999-51.833,0-52.077
			C2046.396,660.74,2046.396,712.341,2003.397,712.585z"/>
		<path fill="#7C3021" d="M1949.895,682.574c-1.925-13.878-14.146-26.672-36.602-26.794c-19.775,0.11-31.607,10.04-35.47,21.884
			c-0.487,1.462-0.853,2.961-1.084,4.472c-2.596,16.644,9.589,35.03,36.554,35.177c23.479-0.135,35.762-14.098,36.809-28.695
			C1950.261,686.607,1950.188,684.585,1949.895,682.574z M1913.293,712.585c-43-0.231-43-51.833,0-52.077
			C1956.291,660.74,1956.291,712.341,1913.293,712.585z"/>
		<path fill="#7C3021" d="M1968.171,688.914c-2.433-0.073-8.77-7.83-17.591-0.62c-0.965,0.882-2.461,0.816-3.346-0.149
			c-0.882-0.963-0.814-2.462,0.148-3.344C1954.013,675.916,1977.523,683.756,1968.171,688.914z"/>
		<path fill="#3D0B0B" d="M2074.893,538.261c-24.18-53.023-190.214-61.666-239.713,3.702c0,0,0,75.824,19.439,129.547
			c0,0,24.854-26.762,31.232-65.241c89.21-22.656,150.759,0.66,150.759,0.66c2.905,25.041,23.081,64.581,23.081,64.581
			C2075.528,615.733,2074.893,538.261,2074.893,538.261z"/>
		<path fill="#F49F9F" d="M1941.86,1446.853c-5.656,0.168-7.167-8.49-1.582-10.111c72.942-23.432,119.956-74.531,120.423-75.044
			C2095.265,1354.725,2013.932,1426.098,1941.86,1446.853z"/>
		<path fill="#FCB4B4" d="M1997.099,902.59c0,0,36.122-4.529,51.59,14.982c-21.503,23.807-73.992,88.902-93.485-1.131
			c-6.662,70.754-63.341,51.717-93.457,0.504C1916.902,873.27,1919.756,940.295,1997.099,902.59z"/>
		<path fill="#7C3021" d="M2037.585,682.051c-2.536,0.086-3.279-3.765-0.819-4.588l22.104-8.173c2.858-1.105,4.542,3.418,1.641,4.44
			C2059.233,674.02,2039.036,682.001,2037.585,682.051z"/>
		<path fill="#7C3021" d="M1878.891,682.79c-1.152,0.07-22.987-8.854-24.033-9.071c-1.218-0.468-1.827-1.837-1.359-3.059
			c0.652-4.854,24.212,7.77,26.242,7.551C1882.164,679.059,1881.418,682.879,1878.891,682.79z"/>
		<path fill="#AA5635" d="M1705.652,1298.531c11.202-20.222,41.574-44.916,84.193-29.838l0,0l0,0c62.916,25.377,77,63.152,77,63.152
			c-22.057,0.319-49.559,6.217-68.097,1.504c-9.468,3.256-16.995,11.613-21.954,31.382c-4.691,20.816-23.436,10.215-20.303-8.322
			c-7.379,19.558-26.081,8.666-19.123-11.953c-26.664,14.891-12.471-33.559-3.38-45.337c-3.793,3.005-7.277,6.727-10.329,11.271
			C1709.729,1331.135,1694.86,1318.012,1705.652,1298.531z"/>
		<path fill="#7C3021" d="M1756.494,1358.776c-6.392-0.15,4.16-34.17,21.273-46.653c5.1-3.527,20.111-8.771,22.934-1.397
			c-1.937,4.044-14.051-1.055-20.26,5.31C1761.523,1328.951,1761.5,1358.016,1756.494,1358.776z"/>
		<path fill="#7C3021" d="M1737.371,1346.823c-9.544,3.126,18.471-73.552,42.416-55.716c-0.153,1.299-1.301,2.234-2.63,2.075
			C1749.193,1290.73,1741.984,1347.619,1737.371,1346.823z"/>
		<path fill="#7C3021" d="M1733.988,1301.488c-7.725-0.449,9.643-31.315,35.596-27.341c3.035,0.423,2.33,5.181-0.706,4.683
			C1743.171,1275.76,1738.336,1301.2,1733.988,1301.488z"/>
	</g>
	<g id="_x34_">
		<path fill="#5E1226" d="M2268.49,844.026c0,0-47.911-40.872-100.301,20.985c-52.389,61.855-25.48,74.227-97.235,139.796
			c-71.755,65.57,6.728,177.725,67.271,195.645s-8.284,89.867,112.459,107.71C2371.428,1326.005,2670.08,1010.086,2268.49,844.026z"
			/>
		<path fill="#1D3F70" d="M2207.198,1262.43l-20.57,35.051l-93.78,159.819l-20.699,35.28c-15.15,4.98-30.44,9.26-45.771,12.92
			c-5.58,1.33-11.16,2.58-16.729,3.75c-171.92,36.07-342.24-2.38-342.24-2.38l22.8-173.76c0,0,116.66-3.61,283.71-53.171
			c92.061-27.3,160.37-27.26,198.53-23.43C2195.168,1258.8,2207.198,1262.43,2207.198,1262.43z"/>
		<path fill="#AA5635" d="M2314.404,1250.388c141.623,8.958,321.132,98.483,407.865,210.673
			c134.166,173.543,8.215,394.166-115.264,437.678c-59.981,21.137-76.516-6.969-32.402-51.388
			c138.674-139.636,10.133-278.164-111.654-319.462C2420.49,1513.49,2327.723,1251.3,2314.404,1250.388z"/>
		<path fill="#103663" d="M2092.848,1457.3l-20.699,35.28c-20.66,6.79-41.59,12.28-62.5,16.67
			c-9.87-97.39,75.71-162.08,75.71-162.08L2092.848,1457.3z"/>
		<path fill="#AA5635" d="M2049.687,1942.049c533.96-27.906,370.149,119.415,363.865-298.021
			c-11.274-133.942,76.827-339.11-99.147-393.64c-5.409-39.218-1.287-110.131,6.47-145.058
			c16.732-62.429-83.96-87.098-97.661-23.537c-3.367,11.887-9.715,77.53-11.623,134.518c-0.556,22.251,3.529,44.81-15.066,59.988
			C2024.342,1456.685,2054.979,1708.286,2049.687,1942.049z"/>
		<path fill="#1D3F70" d="M2547.332,1959.341c-11.885-45.29-23.31-81.218-40.648-119.311
			c-30.342-54.084-70.741-88.934-58.002-164.742c2.125-45.771,12.521-83.85,14.677-127.398c0.46-10.06,0.409-20.22-0.41-30.609
			l-4.38-7.87c-8.832-15.735-138.913-249.682-144.16-259.021c-99.94,101.71-107.21,12.04-107.21,12.04
			c-291.757,143.543-128.686,282.066-166.699,519.848c-0.001,0-0.007-0.002-0.007-0.002v0.013
			c-46.58,81.902-78.892,233.728-81.636,344.712h621.629C2571.237,2066.224,2560.283,2009.541,2547.332,1959.341z"/>
		<path fill="#7C3021" d="M2211.719,1216.313c20.667,4.273,63.702,9.923,100.354-6.295c0-3.016,0.058-6.118,0.146-9.251
			c-0.669-30.097,2.588-56.316,4.83-73.158c5.154-31.565,10.938-43.383-6.527-66.426c-12.615-15.736-37.395-22.233-56.092-14.548
			C2205.732,1067.43,2220.141,1135.742,2211.719,1216.313z"/>
		<path fill="#103663" d="M2463.357,1547.89c-0.619,13.65-2.189,27.11-4.09,40.69c-42.05-25.71-73.68-110.8-73.68-110.8l72.98,31.63
			l4.38,7.87C2463.768,1527.67,2463.818,1537.83,2463.357,1547.89z"/>
		<path fill="#AA5635" d="M2150.757,1164.816c34.229,34.965,87.104,44.789,129.425,35.745c2.398-0.519,4.84-1.027,7.144-1.669
			c91.38-23.697,117.813-165.867,80.216-239.849c-22.699-50.432-86.579-81.107-137.771-55.828
			c-35.643,18.923-49.151,55.253-65.078,93.475c-4.776,9.95-13.974,22.926-22.98,31.763
			C2107.138,1063.291,2107.078,1117.948,2150.757,1164.816z"/>
		<path fill="#7C3021" d="M2285.1,985.156c73.627,23.918,65.284,83.463,65.284,83.463l29.216-31.061l-61.976-112.182l-61.652-30.271
			c-15.437,1.92-29.507,8.31-41.483,18.326C2214.488,913.433,2211.473,961.238,2285.1,985.156z"/>
		<path fill="#1D3F70" d="M2704.648,1861.15c-16.811,10.229-32.45,12.84-43.541,7.35c0,0-17.93-41.75-64.539-46.07
			c0,0-4.75-11.04-5.26-33.069c-0.311-12.841,0.779-29.33,5.06-49.53c19.03-89.48-76.761-168.43-132.98-191.93
			c-0.01,0-0.02-0.011-0.03-0.011c-52.829-22.12-102.449-106.31-102.449-106.31c-28.93-52.3-39.86-113.51-43.99-152.311
			c-2.51-23.58-2.51-38.88-2.51-38.88c11.62-1.26,25.31-1.51,40.6-0.67c145.32,7.86,434.23,113.16,443.26,377.16
			C2802.559,1752.59,2749.398,1833.91,2704.648,1861.15z"/>
		<path fill="#103663" d="M2355.008,1249.72c-11.743,14.938-36.1,38.501-50.33,50.115c-52.471,44.954-126.076,37.56-132.24-43.315
			l0.011-0.01c22.72,2.29,34.75,5.92,34.75,5.92s7.27,89.67,107.21-12.04C2326.028,1249.13,2339.718,1248.88,2355.008,1249.72z"/>
		<path fill="#F9F8F3" d="M2177.794,1109.065l55.916-28.565C2238.813,1114.442,2203.425,1136.127,2177.794,1109.065z"/>
		<path fill="#7C3021" d="M2220.201,1033.385c-3.902-7.411,7.827-13.37,11.51-5.847
			C2235.613,1034.948,2223.885,1040.906,2220.201,1033.385z"/>
		<path fill="#7C3021" d="M2165.935,1024.262c-3.902-7.411,7.826-13.369,11.51-5.847
			C2181.347,1025.825,2169.617,1031.784,2165.935,1024.262z"/>
		<path fill="#7C3021" d="M2177.797,1111.509c1.39,0.16,55.776-28.494,57.026-28.834c1.199-0.613,1.676-2.085,1.062-3.286
			c0.423-6.23-57.974,28.258-59.202,27.5C2174.414,1107.954,2175.325,1111.604,2177.797,1111.509z"/>
		<path fill="#7C3021" d="M2186.457,1080.4c3.058-0.308,9.44,0.274,8.746-4.096c-0.412-1.287-1.791-1.994-3.072-1.581
			c-8.226,2.916-28.159-2.788-18.598-8.638c13.849-7.5,23.142-33.707,23.531-34.818c1.084-2.959-3.603-4.629-4.611-1.613
			c-0.089,0.255-9.059,25.535-21.246,32.137C2156.258,1072.301,2174.644,1080.246,2186.457,1080.4z"/>
		<path fill="#5E1226" d="M2229.78,903.222c11.254-67.056,167.62-179.638,271.96-2.881c74.017,139.47,278.034,293.792,96.17,370.361
			c-68.771,11.951-14.955,77.429-59.802,110.465s-104.643,1.644-107.632,80.873c-2.99,79.229-53.212,97.323-108.078,92.761
			c-54.865-4.562-118.57-152.873-55.34-203.699s10.102-92.018,40.417-159.462c30.317-67.446,64.506-81.591,64.506-81.591
			l-12.118-61.086C2358.473,969.662,2225.154,976.441,2229.78,903.222z"/>
		<path fill="#AA5635" d="M2410.022,1081.227c-10.491,48.463-69.665,35.952-59.642-12.607
			C2360.871,1020.158,2420.043,1032.669,2410.022,1081.227z"/>
		<path fill="#7C3021" d="M2394.641,1091.242c1.047,0,2.015-0.678,2.336-1.73c11.04-30.873-5.72-43.756-26.03-35.434
			c-2.954,1.119-1.159,5.736,1.78,4.55c17.418-7.157,28.802,3.687,19.575,29.459
			C2391.806,1089.622,2393.034,1091.267,2394.641,1091.242z"/>
		<path fill="#7C3021" d="M2371.838,1087.827c4.429-0.585,6.875-18.47,25.724-20.39c1.347-0.09,2.365-1.252,2.276-2.6
			c-0.089-1.346-1.233-2.395-2.599-2.275C2378.476,1064.104,2364.442,1086.756,2371.838,1087.827z"/>
		<path fill="#7C3021" d="M2253.95,1021.304c-0.861,0-1.712-0.38-2.288-1.106c-11.52-14.51-30.73-17.526-30.925-17.554
			c-1.592-0.239-2.692-1.721-2.456-3.313c0.233-1.597,1.688-2.672,3.308-2.463c0.878,0.129,21.655,3.34,34.645,19.705
			c1.001,1.261,0.79,3.097-0.471,4.1C2255.227,1021.099,2254.586,1021.304,2253.95,1021.304z"/>
		<path fill="#7C3021" d="M2165.609,1005.653c-0.912,0-1.809-0.426-2.379-1.224c-0.933-1.307-0.635-3.123,0.671-4.062
			c0.583-0.415,14.471-10.172,34.01-5.43c1.567,0.376,2.528,1.952,2.151,3.522c-0.379,1.561-1.949,2.529-3.522,2.146
			c-16.872-4.069-29.118,4.422-29.241,4.506C2166.785,1005.479,2166.194,1005.653,2165.609,1005.653z"/>
		<circle fill="#103663" cx="2213.837" cy="1351.439" r="11.575"/>
		<circle fill="#103663" cx="2198.025" cy="1400.849" r="11.575"/>
		<path fill="#F39200" d="M2377.915,1142.639c-12.335,0-22.37-10.035-22.37-22.37s10.035-22.37,22.37-22.37
			c1.288,0,2.332,1.045,2.332,2.332s-1.044,2.332-2.332,2.332c-9.764,0-17.706,7.943-17.706,17.706
			c0,9.764,7.942,17.706,17.706,17.706s17.706-7.942,17.706-17.706c0-3.759-0.788-6.54-2.635-9.296
			c-0.717-1.07-0.432-2.519,0.639-3.235c1.068-0.718,2.519-0.432,3.234,0.64c2.369,3.534,3.426,7.201,3.426,11.892
			C2400.285,1132.604,2390.25,1142.639,2377.915,1142.639z"/>
	</g>
	<g id="_x33_">
		<path fill="#EB5648" d="M1345.958,1515.58c-85.55,88.14-271.19,154.07-406.23,119.689c-23.01-5.3-45.22-13.35-66.16-23.989
			c-35.54-18.04-67.4-43.55-93.25-75.7c-0.1-0.12-0.2-0.25-0.3-0.37c-51.54-60.59-160.99-360.03-197.52-426.49
			c315.97,81.23,372.83,417.58,746.58,324.88L1345.958,1515.58z"/>
		<path fill="#D1E0F2" d="M1134.956,1629.217v0.022c-0.203,0.045-0.383,0.112-0.586,0.158
			C1134.572,1629.329,1134.752,1629.284,1134.956,1629.217z"/>
		<path fill="#5E1226" d="M584.778,705.439c0,0,28.869-15.992,46.191,9.671c17.323,25.663-2.181,43.113,19.376,65.696
			c21.557,22.584,34.902,26.689,28.743,48.246c-6.159,21.558-22.689,23.938-15.451,50.977
			C659.106,879.259,519.838,734.809,584.778,705.439z"/>
		<path fill="#CE3932" d="M873.578,1611.28h-0.01c-35.54-18.04-67.4-43.55-93.25-75.7l-31.26-240.12
			C749.058,1295.46,826.568,1413.72,873.578,1611.28z"/>
		<path fill="#1D3F70" d="M856.546,2126.963L220.748,2127c0,0-39.622-273.752,63.551-506.065c0,0,508.376,43.603,523.176,36.643
			C833,1810.354,848.253,1970.784,856.546,2126.963z"/>
		<path fill="#AA5635" d="M582.468,1108.727c6.411-55.905-2.334-136.526-10.131-169.736
			c-14.055-65.447-117.842-40.12-100.594,24.213c3.346-2.104,14.057,116.488,6.664,149.413
			C381.011,1141.835,673.937,1237.914,582.468,1108.727z"/>
		<path fill="#EB5648" d="M843.648,1899.05c-30.38,112.561-330.87,12.351-442.37-56.5c-9.09-5.61-19.91-9.09-31.43-11.09
			c-46.74-8.12-105.07,8.12-106.86,4.95c-41.54-73.41,54.01-317.38,118.83-491.86c28.8-77.53,51.53-141.34,53.47-170.37
			c-1.9-17.96,27.04-50.41,43.11-61.57c48.75,34.061,117.75,57.23,104.12-3.84c34.93,29.11,74.05,60.69,107.33,97.69
			C807.338,1325.71,894.728,1746.11,843.648,1899.05z"/>
		<path fill="#CE3932" d="M381.498,1529.26c-55.43,117.04-43.07,199.19-11.65,302.2c-46.74-8.12-105.07,8.12-106.86,4.95
			c-41.54-73.41,54.01-317.38,118.83-491.86l89.97-33.2C471.788,1311.35,436.918,1412.23,381.498,1529.26z"/>
		<path fill="#7C3021" d="M470.748,957.807c0.255,1.803,0.575,3.633,0.996,5.396c2.413-1.598,9.167,63.836,9.227,111.329
			c44.628,20.293,94.382,11.368,103.488,9.498c0.975-60.16-4.55-114.964-13.387-149.383
			C551.835,876.26,462.476,896.996,470.748,957.807z"/>
		<path fill="#AA5635" d="M653.8,1028.734c-52.252,50.777-137.958,57.256-193.196,14.986h-0.061
			c-60.63-55.709-78.998-168.018-43.152-239.39c26.84-61.452,113.217-95.427,167.388-49.332
			c27.854,23.327,39.263,56.214,53.822,90.37c5.169,10.842,15.259,25.008,25.029,34.646
			C701.353,918.01,701.413,977.594,653.8,1028.734z"/>
		<path fill="#EB5648" d="M471.783,1311.349c-56.571,185.181-236.061,268.142-93.792,575.883
			c-45.198,60.123-102.917,49.273-102.917,49.273c-38.553-41.737-69.826-83.063-94.646-123.662
			c-214.517-350.938,52.927-648.361,269.932-695.515c9.464-2.047,18.817-3.625,28.042-4.718
			C494.465,1193.313,488.462,1256.77,471.783,1311.349z"/>
		<path fill="#CE3932" d="M616.145,1118.621c0,0,5.955,48.288-33.647,55.823c-76.158,14.492-139.949-55.314-139.949-55.314
			c17.194-9.087,35.853-6.52,35.853-6.52c33.366,21.342,55.17,29.772,70.958,32.655c42.958,7.839,33.703-34.252,33.161-36.492
			c0,0,0.009,0.009,0.028,0.027C600.411,1108.72,616.145,1118.621,616.145,1118.621z"/>
		<path fill="#7C3021" d="M578.073,885.396c4.255-8.081-8.534-14.578-12.55-6.375C561.268,887.101,574.057,893.598,578.073,885.396z
			"/>
		<path fill="#7C3021" d="M637.245,875.448c4.255-8.081-8.534-14.578-12.55-6.375C620.44,877.153,633.229,883.65,637.245,875.448z"
			/>
		<path fill="#7C3021" d="M611.434,786.84c-41.627,35.906-89.067-19.309-89.92,33.5c0.786,21.531-38.475,15.199-43.119,25.301
			c-4.613,10.102,0.754,29.34-8.081,42.426c-8.835,13.087-53.101,29.189-53.101,29.189c10.434,44.193,3.944,82.017,52.95,133.491
			c-3.317-2.142-6.513-4.493-9.559-7.026h-0.061c-70.441-66.668-86.398-205.594-16.949-276.147
			C490.768,717.947,579.316,723.333,611.434,786.84z"/>
		<path fill="#7C3021" d="M614.868,936.66c-3.334-0.334-10.296,0.3-9.538-4.466c0.45-1.403,1.956-2.177,3.349-1.724
			c8.974,3.176,30.705-3.04,20.278-9.416c-14.809-7.192-34.375-50.076-20.629-39.729c0.098,0.279,9.877,27.847,23.166,35.044
			C647.796,927.83,627.748,936.492,614.868,936.66z"/>
		<path fill="#5E1226" d="M601.732,772.803c0,0,22.654-27.924-1.321-48.454c-23.974-20.53-22.485-51.325-55.564-46.192
			c-33.08,5.132-45.398,9.129-81.327-0.568c-35.928-9.697-66.396,24.844-65.02,47.607c1.375,22.764-46.87,22.764-54.056,53.559
			c-7.186,30.796,0,40.034,0,53.379s-42.087,30.795-33.875,62.617c8.212,31.822,34.901,26.944,40.034,47.348
			c5.133,20.402-10.574,55.398,12.978,66.891c34.919,17.038,64.978-5.418,64.978-5.418
			c-64.259-136.567,38.734-74.365,29.707-150.905c-7.063-29.771,36.934-20.532,47.27-35.93c10.337-15.397,2.88-33.875,22.006-37.981
			C546.668,774.648,559.277,797.646,601.732,772.803z"/>
		<path fill="#AA5635" d="M371.094,937.563c11.439,52.844,75.961,39.202,65.033-13.748
			C424.688,870.974,360.166,884.615,371.094,937.563z"/>
		<path fill="#7C3021" d="M387.865,948.484c-1.141,0-2.196-0.74-2.547-1.888c-12.039-33.661,6.238-47.718,28.383-38.636
			c3.223,1.222,1.261,6.25-1.942,4.959c-18.996-7.798-31.401,4.018-21.343,32.123C390.958,946.715,389.618,948.51,387.865,948.484z"
			/>
		<path fill="#7C3021" d="M412.729,944.76c-4.83-0.639-7.498-20.139-28.05-22.232c-1.467-0.098-2.579-1.366-2.482-2.835
			c0.097-1.468,1.316-2.562,2.834-2.481C405.235,918.587,420.992,944.07,412.729,944.76z"/>
		<path fill="#7C3021" d="M613.072,969.882c-25.293,0-42.268-14.587-43.134-15.347c-1.17-1.027-1.287-2.81-0.259-3.98
			c1.026-1.17,2.806-1.286,3.977-0.262l0,0c0.239,0.209,24.262,20.736,56.54,11.507c1.497-0.429,3.058,0.438,3.487,1.936
			c0.428,1.497-0.438,3.059-1.936,3.487C625.145,969.11,618.888,969.882,613.072,969.882z"/>
		<path fill="#7C3021" d="M533.588,871.713c-0.359,0-0.725-0.068-1.077-0.215c-1.436-0.596-2.121-2.238-1.529-3.676
			c0.435-1.057,11.043-25.951,44.962-32.794c1.52-0.308,3.014,0.679,3.321,2.206c0.309,1.527-0.68,3.014-2.207,3.322
			c-30.852,6.225-40.47,28.476-40.864,29.42C535.743,871.059,534.693,871.713,533.588,871.713z"/>
		<path fill="#7C3021" d="M632.947,844.356c-0.589,0-1.182-0.184-1.69-0.563c-13.61-10.208-29.89-5.645-30.053-5.598
			c-1.491,0.433-3.058-0.423-3.496-1.916c-0.437-1.492,0.414-3.055,1.905-3.495c0.772-0.229,19.103-5.447,35.028,6.497
			c1.246,0.934,1.498,2.701,0.563,3.947C634.651,843.967,633.804,844.356,632.947,844.356z"/>
	</g>
	<g id="_x32__6_">
		<path fill="#D1A68F" d="M1605.338,1253.926c0,0-117.686,28.39-183.471,122.219c-121.879,173.834-103.18,390.583-76.104,603.371
			h274.515L1605.338,1253.926z"/>
		<path fill="#D1A68F" d="M1781.295,1259.22c0,0,155.389,29.676,244.668,233.921c106.11,242.746-57.225,563.968-57.225,563.968
			l-139.649-55.354L1781.295,1259.22z"/>
		<path fill="#3D0B0B" d="M1587.591,966.59c0,0-14.92-84.107,58.897-111.331l46.622,35.031L1587.591,966.59z"/>
		<path fill="#AA5635" d="M1637.591,1248.414c-2.054-64.005-10.01-190.941,41.934-207.961
			c37.305-12.952,81.465,18.826,69.986,60.868c-3.382-2.128-14.209,117.755-6.735,151.025
			C1841.223,1281.881,1545.135,1378.996,1637.591,1248.414z"/>
		<path fill="#7C3021" d="M1750.517,1095.865c-0.258,1.823-0.581,3.672-1.006,5.456c-2.438-1.615-9.266,64.524-9.327,112.53
			c-45.109,20.512-94.22,12.474-103.424,10.584c-2.516-66.26-6.563-165.477,42.771-183.981
			C1714.74,1025.396,1756.714,1057.488,1750.517,1095.865z"/>
		<path fill="#AA5635" d="M1821.4,1051.652c-7.575,46.998-23.44,99.973-60.563,131.062h-0.061
			c-54.113,40.977-133.383,36.611-188.423-8.564h-0.031c-42.478-39.687-55.914-93.124-33.557-134.292
			c14.625-24.268,41.559-45.619,48.825-73.273C1650.622,782.6,1848.154,885.496,1821.4,1051.652z"/>
		<path fill="#7C3021" d="M1642.034,1022.674c-4.301-8.168,8.626-14.736,12.686-6.444
			C1659.021,1024.396,1646.094,1030.965,1642.034,1022.674z"/>
		<path fill="#7C3021" d="M1582.223,1012.619c-4.301-8.169,8.627-14.736,12.687-6.444
			C1599.209,1014.342,1586.283,1020.91,1582.223,1012.619z"/>
		<path fill="#7C3021" d="M1821.386,1051.661c-7.574,46.997-23.44,99.973-60.563,131.061h-0.062
			c-3.077,2.561-5.187,3.798-8.539,5.962c28.254-28.041,43.5-87.037,43.5-87.037l-6.646-50.931
			c-45.597-46.206-25.968-98.173-25.968-98.173c-76.26,21.396-101.953-25.664-101.953-25.664
			c-24.109,3.109-50.595-7.677-50.595-7.677C1699.035,778.484,1848.236,925.547,1821.386,1051.661z"/>
		<path fill="#3D0B0B" d="M1798.004,929.175c-32.416,12.815-43.797,88.108,32.806,139.578
			C1830.81,1068.753,1867.92,944.713,1798.004,929.175z"/>
		<path fill="#7C3021" d="M1604.843,1074.492c-13.023-0.156-33.276-8.937-16.808-20.51c13.432-7.276,23.317-35.141,23.416-35.42
			c1.096-3.293,6.291-1.518,5.082,1.778c-0.429,1.226-10.674,30.108-25.932,38.375c-10.544,6.459,11.423,12.72,20.494,9.521
			c1.428-0.455,2.933,0.326,3.388,1.74C1615.249,1074.812,1608.214,1074.131,1604.843,1074.492z"/>
		<path fill="#E8C0A6" d="M1971.686,2001.754c-178.444,88.903-578.766,56.978-620.552,12.363
			c-72.321-77.214,30.271-118.791,40.952-332.941c9.618-192.839,110.167-370.211,213.254-427.24
			c1.389-0.769,21.167-5.44,32.199-5.459c-0.761,3.077-20.243,84.121,105.24,3.87c0.715,0.848,30.613,1.378,38.578,6.874
			c0,0,118.434,87.696,156.193,426.623C1953.36,1827.747,2032.253,1971.578,1971.686,2001.754z"/>
		<path fill="#3D0B0B" d="M1572.569,850.125c2.419-16.529,19.655-33.967,54.429-23.787c-5.605-11.438-6.652-28.625,6.652-36.789
			c17.459-10.713,35.476,0.433,47.775,14.212c4.84-32.254,32.959-39.611,57.149-35.378c61.119,10.695,58.561,89.807,58.561,89.807
			s135.063,10.043,43.124,132.656l-45.915-59.348c-47.673,29.262-96.969,15.848-127.838-13.691
			C1629.311,917.595,1565.476,898.6,1572.569,850.125z"/>
		<path fill="#AA5635" d="M1851.247,1075.404c-11.563,53.413-76.781,39.624-65.735-13.897
			C1797.074,1008.096,1862.292,1021.885,1851.247,1075.404z"/>
		<path fill="#7C3021" d="M1834.294,1086.442c-1.771,0.022-3.122-1.784-2.574-3.479c10.18-28.414-2.417-40.356-21.578-32.468
			c-18.847-6.432,47.862-23.813,26.724,34.042C1836.515,1085.696,1835.447,1086.442,1834.294,1086.442z"/>
		<path fill="#7C3021" d="M1809.161,1082.678c-8.162-1.15,7.321-26.158,27.996-27.846c3.495-0.304,3.842,5.198,0.358,5.373
			C1816.701,1062.356,1814.09,1081.989,1809.161,1082.678z"/>
		<path fill="#D1A68F" d="M1781.295,1259.22c-19.941,28.157-190.595,134.416-175.957-5.294c1.531-0.415,21.169-5.431,32.201-5.449
			c-0.761,3.077-13.433,78.898,105.24,3.87C1743.285,1252.025,1773.528,1254.134,1781.295,1259.22z"/>
		<path fill="#7C3021" d="M1679.838,1017.686c0.425,0.145,0.896,0.16,1.356,0.017c1.157-0.361,1.801-1.591,1.44-2.747
			c-8.953-28.693-25.966-37.158-26.686-37.504c-1.092-0.529-2.402-0.066-2.927,1.025c-0.524,1.09-0.067,2.396,1.021,2.924
			c0.235,0.117,16.083,8.188,24.406,34.861C1678.665,1016.957,1679.196,1017.468,1679.838,1017.686z"/>
		<path fill="#7C3021" d="M1621.745,974.059c-17.119-0.486-27.834,4.939-31.864,6.982c-0.447,0.229-0.963,0.485-1.168,0.57
			l-0.036,0.008c-1.132,0.299-1.838,1.463-1.572,2.614c0.271,1.175,1.455,1.915,2.631,1.644c0.534-0.123,1.106-0.406,2.124-0.928
			c3.762-1.906,13.76-6.967,29.76-6.51c0.2,0.004,0.385-0.014,0.563-0.055c0.949-0.22,1.668-1.061,1.695-2.08
			C1623.91,975.097,1622.953,974.092,1621.745,974.059z"/>
		<path fill="#722310" d="M1627.174,1106.725c-4.691,0.001-8.651-1.779-10.652-5.246c-3.612-6.256,0.726-15.295,9.875-20.576
			c4.187-2.418,8.766-3.654,12.883-3.477c4.539,0.192,8.046,2.044,9.875,5.213c1.829,3.168,1.68,7.131-0.423,11.158
			c-1.909,3.657-5.267,7.002-9.452,9.419C1635.199,1105.571,1630.95,1106.725,1627.174,1106.725z M1638.49,1082.408
			c-3.04,0-6.422,0.992-9.594,2.824c-6.497,3.75-10.182,10.046-8.045,13.746c2.137,3.701,9.432,3.658,15.928-0.093
			c3.374-1.948,6.045-4.577,7.52-7.403c0.743-1.422,1.799-4.139,0.525-6.344l0,0c-1.273-2.206-4.153-2.649-5.757-2.718
			C1638.877,1082.413,1638.684,1082.408,1638.49,1082.408z"/>
		<path fill="#D1A68F" d="M1658.397,1418.752c-59.361,0-91.467-20.706-93.29-21.917l6.918-10.413l6.855-10.45
			c0.134,0.086,13.612,8.686,39.045,13.85c23.557,4.783,62.501,7.515,114.23-6.644l6.6,24.113
			C1708.059,1415.692,1681.214,1418.752,1658.397,1418.752z"/>
		<path fill="#D1A68F" d="M1649.705,1486.145c-59.405,0-96.624-21.88-98.804-23.195l12.881-21.426
			c0.167,0.1,17.073,10.017,45.676,15.65c26.281,5.176,68.191,7.699,118.606-9.688l8.15,23.635
			C1704.048,1482.213,1674.882,1486.145,1649.705,1486.145z"/>
		<path fill="#D1A68F" d="M1644.102,1554.437c-16.588,0-31.093-1.746-42.956-4.021c-33.654-6.457-53.992-18.401-54.842-18.907
			l12.751-21.504c0.178,0.104,18.201,10.542,47.899,16.066c39.613,7.369,80.186,2.994,120.583-13.006l9.205,23.244
			C1702.115,1550.021,1670.478,1554.437,1644.102,1554.437z"/>
	</g>
	<g id="_x31_">
		<path fill="#3D0B0B" d="M1199.8,1056.404c0,0,28.832-172.873-88.235-147.855L1199.8,1056.404z"/>
		<path fill="#3D0B0B" d="M942.262,1110.486c0,0-57.671,40.596-84.114,111.011c-28.479,75.835,2.289,117.476,70.659,133.342
			c68.371,15.865,221.429,19.599,310.091-11.199c88.662-30.799-1.556-177.946-65.104-216.522L942.262,1110.486z"/>
		<rect x="1025.477" y="1184.528" fill="#AA5635" width="92.229" height="109.418"/>
		<path fill="#7C3021" d="M1024.898,1192.882v49.136c51.994,18.212,92.228,0,92.228,0v-49.136H1024.898z"/>
		<path fill="#1D3F70" d="M782.476,1889.09c-4.816-98.616,59.421-185.406,91.249-278.194c32.424-93.5,30.822-193.498,31.733-295.334
			c31.457-18.681,123.211-46.244,118.254-42.707c18.372,12.12,76.607,20.337,101.913,0c43.705,11.137,80.397,24.409,118.082,42.736
			c-1.354,77.274,13.904,236.283,52.081,323.594c44.968,108.918,55.581,214.575,49.198,332.396
			c-178.536,40.541-378.649,39.921-560.75,0C783.388,1957.659,781.791,1929.566,782.476,1889.09z"/>
		<path fill="#4B89BC" d="M814.903,1878.546c72.926,9.443,189.471-12.516,239.732-29.556
			c102.143-33.616,139.525-87.471,139.525-87.471s4.323-41.55-37.612-52.64c0,0-202.961,35.498-258.241,11.09
			c-22.365-9.874-36.771-78.032-24.583-109.073c48.386-123.23,32.208-294.405,32.208-294.405
			C683.208,1393.69,530.935,1812.095,814.903,1878.546z"/>
		<path fill="#4B89BC" d="M1054.606,1848.961c536.72,171.788,569.801-339.032,189.1-533.37c0,0-1.557,164.947,26.804,249.297
			c43.186,128.444-18.47,181.302-76.354,196.63C1194.16,1761.52,1054.606,1848.961,1054.606,1848.961z"/>
		<path fill="#4B89BC" d="M1119.089,1270.998c0,0,38.303-4.824,54.705,15.96c-22.82,25.367-78.438,94.711-99.129-1.203
			c-7.048,75.271-67.069,55.21-99.099,0.536C1034.127,1239.757,1037.08,1311.178,1119.089,1270.998z"/>
		<path fill="#AA5635" d="M962.592,1068.844c2.327,57.559,20.409,128.205,80.045,148.775c2.221,0.883,4.585,1.652,6.917,2.399
			c96.126,38.323,223.453-64.896,155.408-156.677c-7.975-9.771-15.729-23.662-19.408-34.064c0,0,0,0,0.001-0.014
			C1151.047,844.295,958.694,903.722,962.592,1068.844z"/>
		<path fill="#7C3021" d="M1118.936,922.805l-1.392,13.119c29.976,7.293,67.621,92.288,67.621,92.288
			C1179.894,991.688,1160.167,941.15,1118.936,922.805z"/>
		<path fill="#7C3021" d="M966.77,1107.396c6.324,38.783,22.62,80.77,56.679,100.835c-40.89-30.227-39.872-94.163-39.872-94.163
			L966.77,1107.396z"/>
		<path fill="#7C3021" d="M962.592,1068.844l29.063,16.863c39.636-13.555,82.57-71.756,82.57-71.756l-85.751-43.686
			C971.396,997.033,961.759,1031.582,962.592,1068.844z"/>
		<path fill="#7C3021" d="M1126.668,1059.926c4.649-6.943-6.326-14.152-10.791-7.043
			C1111.229,1059.826,1122.204,1067.035,1126.668,1059.926z"/>
		<path fill="#7C3021" d="M1181.419,1056.602c4.649-6.944-6.326-14.154-10.791-7.044
			C1165.98,1056.501,1176.955,1063.711,1181.419,1056.602z"/>
		<path fill="#7C3021" d="M1158.46,1110.486c11.109-0.235,26.498-6.053,13.778-17.068c-11.4-7.877-17.605-33.995-17.666-34.257
			c-0.672-3.078-5.521-1.976-4.754,1.108c0.269,1.148,6.712,28.229,19.643,37.164c1.474,1.019,3.083,2.496,2.38,3.75
			c-7.731,9.146-23.058,0.355-24.932,4.129C1146.039,1110.557,1154.622,1110.031,1158.46,1110.486z"/>
		<path fill="#7C3021" d="M1088.029,1043.987c-0.674,0-1.34-0.301-1.785-0.874c-0.764-0.984-0.584-2.402,0.4-3.165
			c19.131-14.836,43.938-16.898,44.985-16.979c1.237-0.1,2.325,0.834,2.421,2.076s-0.833,2.326-2.074,2.423
			c-0.243,0.02-24.532,2.059-42.567,16.046C1088.999,1043.832,1088.512,1043.987,1088.029,1043.987z"/>
		<path fill="#7C3021" d="M1180.568,1030.468c-0.36,0-0.725-0.086-1.064-0.269c-0.145-0.076-11.561-6.002-27.707-2.769
			c-1.225,0.248-2.411-0.547-2.655-1.769s0.547-2.41,1.769-2.655c17.841-3.573,30.212,2.94,30.729,3.219
			c1.097,0.591,1.507,1.959,0.916,3.056C1182.148,1030.038,1181.371,1030.468,1180.568,1030.468z"/>
		<path fill="#3D0B0B" d="M1127.793,927.426c0,0-18.638,87.025-136.223,142.736l-54.833-5.723c0,0-37.321-71.816,13.776-141.635
			C1009.311,842.467,1100.239,881.693,1127.793,927.426z"/>
		<path fill="#AA5635" d="M933.471,1087.423c5.293,49.394,65.259,43.165,60.447-6.226
			C988.625,1031.805,928.659,1038.033,933.471,1087.423z"/>
		<path fill="#7C3021" d="M947.915,1099.035c1.513,0.014,2.7-1.412,2.399-2.899c-6.404-26.573,5.938-36.261,22.503-27.265
			c2.772,1.506,5.09-2.908,2.257-4.329c-19.391-10.466-37.202,0.689-29.553,32.514
			C945.744,1098.223,946.767,1099.035,947.915,1099.035z"/>
		<path fill="#7C3021" d="M970.878,1098.055c6.841-0.77-4.301-24.236-22.762-27.854c-1.318-0.236-2.593,0.655-2.825,1.984
			c-0.232,1.327,0.656,2.592,1.984,2.823C966.083,1079.008,965.973,1097.191,970.878,1098.055z"/>
		<path fill="#F39200" d="M966.77,1152.896c-12.335,0-22.37-10.036-22.37-22.371c0-4.688,1.056-8.356,3.425-11.892
			c0.716-1.07,2.166-1.356,3.235-0.64c1.07,0.717,1.356,2.165,0.639,3.235c-1.848,2.758-2.636,5.537-2.636,9.296
			c0,9.764,7.943,17.707,17.707,17.707s17.707-7.943,17.707-17.707c0-9.763-7.943-17.706-17.707-17.706
			c-1.288,0-2.332-1.045-2.332-2.332s1.044-2.332,2.332-2.332c12.335,0,22.37,10.035,22.37,22.37S979.104,1152.896,966.77,1152.896z
			"/>
		<path fill="#722310" d="M1140.34,1132.524c-0.024,0-0.048,0-0.072-0.001c-16.335-0.575-24.597-17.24-24.941-17.949
			c-0.482-0.994-0.066-2.189,0.928-2.672c0.993-0.482,2.188-0.066,2.671,0.926l0,0c0.074,0.151,7.579,15.208,21.483,15.697
			c1.104,0.039,1.967,0.966,1.928,2.069C1142.299,1131.675,1141.412,1132.524,1140.34,1132.524z"/>
	</g>
</g>
<text transform="matrix(1 0 0 1 1852.501 113.7617)"><tspan x="0" y="0" fill="#00480F" font-family="'Poppins-Medium'" font-size="82.8783">YEAR-LONG  </tspan><tspan x="0" y="79.011" fill="#00480F" font-family="'Poppins-Medium'" font-size="82.8783">EATING </tspan><tspan x="0" y="158.021" fill="#00480F" font-family="'Poppins-Medium'" font-size="82.8783">RIGHT </tspan><tspan x="0" y="237.032" fill="#00480F" font-family="'Poppins-Medium'" font-size="82.8783">PROGRAM</tspan></text>
<g>
	<rect x="1034.329" y="41.377" fill="#00480F" width="791.81" height="325.714"/>
	<g>
		<path fill="#FFFFFF" d="M1070.951,120.694h46.173l32.369,69.974l32.131-69.974h45.697l-57.835,111.863v55.218h-40.699v-55.218
			L1070.951,120.694z"/>
		<path fill="#FFFFFF" d="M1389.301,153.301h-61.645v33.797h54.504v31.417h-54.504v36.653h61.645v32.607h-102.343V120.694h102.343
			V153.301z"/>
		<path fill="#FFFFFF" d="M1531.05,120.694c40.936,0,61.404,23.563,61.404,52.6c0,20.944-11.424,40.699-37.129,48.315l38.559,66.166
			h-45.936l-34.75-63.072h-9.758v63.072h-40.699V120.694H1531.05z M1528.669,154.491h-25.229v41.413h25.229
			c15.232,0,22.373-7.854,22.373-20.944C1551.042,162.583,1543.901,154.491,1528.669,154.491z"/>
		<path fill="#FFFFFF" d="M1728.112,227.797h-25.23v59.978h-40.697V120.694h65.928c40.936,0,61.404,23.086,61.404,53.79
			C1789.517,202.092,1770.714,227.797,1728.112,227.797z M1725.017,195.428c16.186,0,23.088-8.092,23.088-20.944
			c0-12.853-6.902-20.945-23.088-20.945h-22.135v41.889H1725.017z"/>
	</g>
</g>
</svg>
