<?xml version="1.0" encoding="UTF-8" ?>
<svg xmlns="http://www.w3.org/2000/svg" xmlns:xlink="http://www.w3.org/1999/xlink" height="500" width="500">
  <g id="qrcode:https://bionutra.co.tz/">
    <rect x="0" y="0" width="500px" height="500px" style="fill:#B1DDB8;"/>
    <rect x="48.39" y="48.39" width="16.13" height="16.13" stroke="#2E8B57" stroke-width="0.2" stroke-linecap="butt" fill="#2E8B57"/>
    <rect x="48.39" y="64.52" width="16.13" height="16.13" stroke="#2E8B57" stroke-width="0.2" stroke-linecap="butt" fill="#2E8B57"/>
    <rect x="48.39" y="80.65" width="16.13" height="16.13" stroke="#2E8B57" stroke-width="0.2" stroke-linecap="butt" fill="#2E8B57"/>
    <rect x="48.39" y="96.77" width="16.13" height="16.13" stroke="#2E8B57" stroke-width="0.2" stroke-linecap="butt" fill="#2E8B57"/>
    <rect x="48.39" y="112.90" width="16.13" height="16.13" stroke="#2E8B57" stroke-width="0.2" stroke-linecap="butt" fill="#2E8B57"/>
    <rect x="48.39" y="129.03" width="16.13" height="16.13" stroke="#2E8B57" stroke-width="0.2" stroke-linecap="butt" fill="#2E8B57"/>
    <rect x="48.39" y="145.16" width="16.13" height="16.13" stroke="#2E8B57" stroke-width="0.2" stroke-linecap="butt" fill="#2E8B57"/>
    <rect x="48.39" y="177.42" width="16.13" height="16.13" stroke="#2E8B57" stroke-width="0.2" stroke-linecap="butt" fill="#2E8B57"/>
    <rect x="48.39" y="193.55" width="16.13" height="16.13" stroke="#2E8B57" stroke-width="0.2" stroke-linecap="butt" fill="#2E8B57"/>
    <rect x="48.39" y="209.68" width="16.13" height="16.13" stroke="#2E8B57" stroke-width="0.2" stroke-linecap="butt" fill="#2E8B57"/>
    <rect x="48.39" y="241.94" width="16.13" height="16.13" stroke="#2E8B57" stroke-width="0.2" stroke-linecap="butt" fill="#2E8B57"/>
    <rect x="48.39" y="274.19" width="16.13" height="16.13" stroke="#2E8B57" stroke-width="0.2" stroke-linecap="butt" fill="#2E8B57"/>
    <rect x="48.39" y="306.45" width="16.13" height="16.13" stroke="#2E8B57" stroke-width="0.2" stroke-linecap="butt" fill="#2E8B57"/>
    <rect x="48.39" y="338.71" width="16.13" height="16.13" stroke="#2E8B57" stroke-width="0.2" stroke-linecap="butt" fill="#2E8B57"/>
    <rect x="48.39" y="354.84" width="16.13" height="16.13" stroke="#2E8B57" stroke-width="0.2" stroke-linecap="butt" fill="#2E8B57"/>
    <rect x="48.39" y="370.97" width="16.13" height="16.13" stroke="#2E8B57" stroke-width="0.2" stroke-linecap="butt" fill="#2E8B57"/>
    <rect x="48.39" y="387.10" width="16.13" height="16.13" stroke="#2E8B57" stroke-width="0.2" stroke-linecap="butt" fill="#2E8B57"/>
    <rect x="48.39" y="403.23" width="16.13" height="16.13" stroke="#2E8B57" stroke-width="0.2" stroke-linecap="butt" fill="#2E8B57"/>
    <rect x="48.39" y="419.35" width="16.13" height="16.13" stroke="#2E8B57" stroke-width="0.2" stroke-linecap="butt" fill="#2E8B57"/>
    <rect x="48.39" y="435.48" width="16.13" height="16.13" stroke="#2E8B57" stroke-width="0.2" stroke-linecap="butt" fill="#2E8B57"/>
    <rect x="64.52" y="48.39" width="16.13" height="16.13" stroke="#2E8B57" stroke-width="0.2" stroke-linecap="butt" fill="#2E8B57"/>
    <rect x="64.52" y="145.16" width="16.13" height="16.13" stroke="#2E8B57" stroke-width="0.2" stroke-linecap="butt" fill="#2E8B57"/>
    <rect x="64.52" y="177.42" width="16.13" height="16.13" stroke="#2E8B57" stroke-width="0.2" stroke-linecap="butt" fill="#2E8B57"/>
    <rect x="64.52" y="193.55" width="16.13" height="16.13" stroke="#2E8B57" stroke-width="0.2" stroke-linecap="butt" fill="#2E8B57"/>
    <rect x="64.52" y="241.94" width="16.13" height="16.13" stroke="#2E8B57" stroke-width="0.2" stroke-linecap="butt" fill="#2E8B57"/>
    <rect x="64.52" y="258.06" width="16.13" height="16.13" stroke="#2E8B57" stroke-width="0.2" stroke-linecap="butt" fill="#2E8B57"/>
    <rect x="64.52" y="290.32" width="16.13" height="16.13" stroke="#2E8B57" stroke-width="0.2" stroke-linecap="butt" fill="#2E8B57"/>
    <rect x="64.52" y="306.45" width="16.13" height="16.13" stroke="#2E8B57" stroke-width="0.2" stroke-linecap="butt" fill="#2E8B57"/>
    <rect x="64.52" y="338.71" width="16.13" height="16.13" stroke="#2E8B57" stroke-width="0.2" stroke-linecap="butt" fill="#2E8B57"/>
    <rect x="64.52" y="435.48" width="16.13" height="16.13" stroke="#2E8B57" stroke-width="0.2" stroke-linecap="butt" fill="#2E8B57"/>
    <rect x="80.65" y="48.39" width="16.13" height="16.13" stroke="#2E8B57" stroke-width="0.2" stroke-linecap="butt" fill="#2E8B57"/>
    <rect x="80.65" y="80.65" width="16.13" height="16.13" stroke="#2E8B57" stroke-width="0.2" stroke-linecap="butt" fill="#2E8B57"/>
    <rect x="80.65" y="96.77" width="16.13" height="16.13" stroke="#2E8B57" stroke-width="0.2" stroke-linecap="butt" fill="#2E8B57"/>
    <rect x="80.65" y="112.90" width="16.13" height="16.13" stroke="#2E8B57" stroke-width="0.2" stroke-linecap="butt" fill="#2E8B57"/>
    <rect x="80.65" y="145.16" width="16.13" height="16.13" stroke="#2E8B57" stroke-width="0.2" stroke-linecap="butt" fill="#2E8B57"/>
    <rect x="80.65" y="209.68" width="16.13" height="16.13" stroke="#2E8B57" stroke-width="0.2" stroke-linecap="butt" fill="#2E8B57"/>
    <rect x="80.65" y="225.81" width="16.13" height="16.13" stroke="#2E8B57" stroke-width="0.2" stroke-linecap="butt" fill="#2E8B57"/>
    <rect x="80.65" y="241.94" width="16.13" height="16.13" stroke="#2E8B57" stroke-width="0.2" stroke-linecap="butt" fill="#2E8B57"/>
    <rect x="80.65" y="258.06" width="16.13" height="16.13" stroke="#2E8B57" stroke-width="0.2" stroke-linecap="butt" fill="#2E8B57"/>
    <rect x="80.65" y="274.19" width="16.13" height="16.13" stroke="#2E8B57" stroke-width="0.2" stroke-linecap="butt" fill="#2E8B57"/>
    <rect x="80.65" y="306.45" width="16.13" height="16.13" stroke="#2E8B57" stroke-width="0.2" stroke-linecap="butt" fill="#2E8B57"/>
    <rect x="80.65" y="338.71" width="16.13" height="16.13" stroke="#2E8B57" stroke-width="0.2" stroke-linecap="butt" fill="#2E8B57"/>
    <rect x="80.65" y="370.97" width="16.13" height="16.13" stroke="#2E8B57" stroke-width="0.2" stroke-linecap="butt" fill="#2E8B57"/>
    <rect x="80.65" y="387.10" width="16.13" height="16.13" stroke="#2E8B57" stroke-width="0.2" stroke-linecap="butt" fill="#2E8B57"/>
    <rect x="80.65" y="403.23" width="16.13" height="16.13" stroke="#2E8B57" stroke-width="0.2" stroke-linecap="butt" fill="#2E8B57"/>
    <rect x="80.65" y="435.48" width="16.13" height="16.13" stroke="#2E8B57" stroke-width="0.2" stroke-linecap="butt" fill="#2E8B57"/>
    <rect x="96.77" y="48.39" width="16.13" height="16.13" stroke="#2E8B57" stroke-width="0.2" stroke-linecap="butt" fill="#2E8B57"/>
    <rect x="96.77" y="80.65" width="16.13" height="16.13" stroke="#2E8B57" stroke-width="0.2" stroke-linecap="butt" fill="#2E8B57"/>
    <rect x="96.77" y="96.77" width="16.13" height="16.13" stroke="#2E8B57" stroke-width="0.2" stroke-linecap="butt" fill="#2E8B57"/>
    <rect x="96.77" y="112.90" width="16.13" height="16.13" stroke="#2E8B57" stroke-width="0.2" stroke-linecap="butt" fill="#2E8B57"/>
    <rect x="96.77" y="145.16" width="16.13" height="16.13" stroke="#2E8B57" stroke-width="0.2" stroke-linecap="butt" fill="#2E8B57"/>
    <rect x="96.77" y="177.42" width="16.13" height="16.13" stroke="#2E8B57" stroke-width="0.2" stroke-linecap="butt" fill="#2E8B57"/>
    <rect x="96.77" y="209.68" width="16.13" height="16.13" stroke="#2E8B57" stroke-width="0.2" stroke-linecap="butt" fill="#2E8B57"/>
    <rect x="96.77" y="241.94" width="16.13" height="16.13" stroke="#2E8B57" stroke-width="0.2" stroke-linecap="butt" fill="#2E8B57"/>
    <rect x="96.77" y="306.45" width="16.13" height="16.13" stroke="#2E8B57" stroke-width="0.2" stroke-linecap="butt" fill="#2E8B57"/>
    <rect x="96.77" y="338.71" width="16.13" height="16.13" stroke="#2E8B57" stroke-width="0.2" stroke-linecap="butt" fill="#2E8B57"/>
    <rect x="96.77" y="370.97" width="16.13" height="16.13" stroke="#2E8B57" stroke-width="0.2" stroke-linecap="butt" fill="#2E8B57"/>
    <rect x="96.77" y="387.10" width="16.13" height="16.13" stroke="#2E8B57" stroke-width="0.2" stroke-linecap="butt" fill="#2E8B57"/>
    <rect x="96.77" y="403.23" width="16.13" height="16.13" stroke="#2E8B57" stroke-width="0.2" stroke-linecap="butt" fill="#2E8B57"/>
    <rect x="96.77" y="435.48" width="16.13" height="16.13" stroke="#2E8B57" stroke-width="0.2" stroke-linecap="butt" fill="#2E8B57"/>
    <rect x="112.90" y="48.39" width="16.13" height="16.13" stroke="#2E8B57" stroke-width="0.2" stroke-linecap="butt" fill="#2E8B57"/>
    <rect x="112.90" y="80.65" width="16.13" height="16.13" stroke="#2E8B57" stroke-width="0.2" stroke-linecap="butt" fill="#2E8B57"/>
    <rect x="112.90" y="96.77" width="16.13" height="16.13" stroke="#2E8B57" stroke-width="0.2" stroke-linecap="butt" fill="#2E8B57"/>
    <rect x="112.90" y="112.90" width="16.13" height="16.13" stroke="#2E8B57" stroke-width="0.2" stroke-linecap="butt" fill="#2E8B57"/>
    <rect x="112.90" y="145.16" width="16.13" height="16.13" stroke="#2E8B57" stroke-width="0.2" stroke-linecap="butt" fill="#2E8B57"/>
    <rect x="112.90" y="193.55" width="16.13" height="16.13" stroke="#2E8B57" stroke-width="0.2" stroke-linecap="butt" fill="#2E8B57"/>
    <rect x="112.90" y="209.68" width="16.13" height="16.13" stroke="#2E8B57" stroke-width="0.2" stroke-linecap="butt" fill="#2E8B57"/>
    <rect x="112.90" y="274.19" width="16.13" height="16.13" stroke="#2E8B57" stroke-width="0.2" stroke-linecap="butt" fill="#2E8B57"/>
    <rect x="112.90" y="290.32" width="16.13" height="16.13" stroke="#2E8B57" stroke-width="0.2" stroke-linecap="butt" fill="#2E8B57"/>
    <rect x="112.90" y="306.45" width="16.13" height="16.13" stroke="#2E8B57" stroke-width="0.2" stroke-linecap="butt" fill="#2E8B57"/>
    <rect x="112.90" y="338.71" width="16.13" height="16.13" stroke="#2E8B57" stroke-width="0.2" stroke-linecap="butt" fill="#2E8B57"/>
    <rect x="112.90" y="370.97" width="16.13" height="16.13" stroke="#2E8B57" stroke-width="0.2" stroke-linecap="butt" fill="#2E8B57"/>
    <rect x="112.90" y="387.10" width="16.13" height="16.13" stroke="#2E8B57" stroke-width="0.2" stroke-linecap="butt" fill="#2E8B57"/>
    <rect x="112.90" y="403.23" width="16.13" height="16.13" stroke="#2E8B57" stroke-width="0.2" stroke-linecap="butt" fill="#2E8B57"/>
    <rect x="112.90" y="435.48" width="16.13" height="16.13" stroke="#2E8B57" stroke-width="0.2" stroke-linecap="butt" fill="#2E8B57"/>
    <rect x="129.03" y="48.39" width="16.13" height="16.13" stroke="#2E8B57" stroke-width="0.2" stroke-linecap="butt" fill="#2E8B57"/>
    <rect x="129.03" y="145.16" width="16.13" height="16.13" stroke="#2E8B57" stroke-width="0.2" stroke-linecap="butt" fill="#2E8B57"/>
    <rect x="129.03" y="193.55" width="16.13" height="16.13" stroke="#2E8B57" stroke-width="0.2" stroke-linecap="butt" fill="#2E8B57"/>
    <rect x="129.03" y="225.81" width="16.13" height="16.13" stroke="#2E8B57" stroke-width="0.2" stroke-linecap="butt" fill="#2E8B57"/>
    <rect x="129.03" y="241.94" width="16.13" height="16.13" stroke="#2E8B57" stroke-width="0.2" stroke-linecap="butt" fill="#2E8B57"/>
    <rect x="129.03" y="274.19" width="16.13" height="16.13" stroke="#2E8B57" stroke-width="0.2" stroke-linecap="butt" fill="#2E8B57"/>
    <rect x="129.03" y="338.71" width="16.13" height="16.13" stroke="#2E8B57" stroke-width="0.2" stroke-linecap="butt" fill="#2E8B57"/>
    <rect x="129.03" y="435.48" width="16.13" height="16.13" stroke="#2E8B57" stroke-width="0.2" stroke-linecap="butt" fill="#2E8B57"/>
    <rect x="145.16" y="48.39" width="16.13" height="16.13" stroke="#2E8B57" stroke-width="0.2" stroke-linecap="butt" fill="#2E8B57"/>
    <rect x="145.16" y="64.52" width="16.13" height="16.13" stroke="#2E8B57" stroke-width="0.2" stroke-linecap="butt" fill="#2E8B57"/>
    <rect x="145.16" y="80.65" width="16.13" height="16.13" stroke="#2E8B57" stroke-width="0.2" stroke-linecap="butt" fill="#2E8B57"/>
    <rect x="145.16" y="96.77" width="16.13" height="16.13" stroke="#2E8B57" stroke-width="0.2" stroke-linecap="butt" fill="#2E8B57"/>
    <rect x="145.16" y="112.90" width="16.13" height="16.13" stroke="#2E8B57" stroke-width="0.2" stroke-linecap="butt" fill="#2E8B57"/>
    <rect x="145.16" y="129.03" width="16.13" height="16.13" stroke="#2E8B57" stroke-width="0.2" stroke-linecap="butt" fill="#2E8B57"/>
    <rect x="145.16" y="145.16" width="16.13" height="16.13" stroke="#2E8B57" stroke-width="0.2" stroke-linecap="butt" fill="#2E8B57"/>
    <rect x="145.16" y="177.42" width="16.13" height="16.13" stroke="#2E8B57" stroke-width="0.2" stroke-linecap="butt" fill="#2E8B57"/>
    <rect x="145.16" y="209.68" width="16.13" height="16.13" stroke="#2E8B57" stroke-width="0.2" stroke-linecap="butt" fill="#2E8B57"/>
    <rect x="145.16" y="241.94" width="16.13" height="16.13" stroke="#2E8B57" stroke-width="0.2" stroke-linecap="butt" fill="#2E8B57"/>
    <rect x="145.16" y="274.19" width="16.13" height="16.13" stroke="#2E8B57" stroke-width="0.2" stroke-linecap="butt" fill="#2E8B57"/>
    <rect x="145.16" y="306.45" width="16.13" height="16.13" stroke="#2E8B57" stroke-width="0.2" stroke-linecap="butt" fill="#2E8B57"/>
    <rect x="145.16" y="338.71" width="16.13" height="16.13" stroke="#2E8B57" stroke-width="0.2" stroke-linecap="butt" fill="#2E8B57"/>
    <rect x="145.16" y="354.84" width="16.13" height="16.13" stroke="#2E8B57" stroke-width="0.2" stroke-linecap="butt" fill="#2E8B57"/>
    <rect x="145.16" y="370.97" width="16.13" height="16.13" stroke="#2E8B57" stroke-width="0.2" stroke-linecap="butt" fill="#2E8B57"/>
    <rect x="145.16" y="387.10" width="16.13" height="16.13" stroke="#2E8B57" stroke-width="0.2" stroke-linecap="butt" fill="#2E8B57"/>
    <rect x="145.16" y="403.23" width="16.13" height="16.13" stroke="#2E8B57" stroke-width="0.2" stroke-linecap="butt" fill="#2E8B57"/>
    <rect x="145.16" y="419.35" width="16.13" height="16.13" stroke="#2E8B57" stroke-width="0.2" stroke-linecap="butt" fill="#2E8B57"/>
    <rect x="145.16" y="435.48" width="16.13" height="16.13" stroke="#2E8B57" stroke-width="0.2" stroke-linecap="butt" fill="#2E8B57"/>
    <rect x="161.29" y="177.42" width="16.13" height="16.13" stroke="#2E8B57" stroke-width="0.2" stroke-linecap="butt" fill="#2E8B57"/>
    <rect x="161.29" y="193.55" width="16.13" height="16.13" stroke="#2E8B57" stroke-width="0.2" stroke-linecap="butt" fill="#2E8B57"/>
    <rect x="161.29" y="225.81" width="16.13" height="16.13" stroke="#2E8B57" stroke-width="0.2" stroke-linecap="butt" fill="#2E8B57"/>
    <rect x="161.29" y="258.06" width="16.13" height="16.13" stroke="#2E8B57" stroke-width="0.2" stroke-linecap="butt" fill="#2E8B57"/>
    <rect x="161.29" y="274.19" width="16.13" height="16.13" stroke="#2E8B57" stroke-width="0.2" stroke-linecap="butt" fill="#2E8B57"/>
    <rect x="161.29" y="290.32" width="16.13" height="16.13" stroke="#2E8B57" stroke-width="0.2" stroke-linecap="butt" fill="#2E8B57"/>
    <rect x="161.29" y="306.45" width="16.13" height="16.13" stroke="#2E8B57" stroke-width="0.2" stroke-linecap="butt" fill="#2E8B57"/>
    <rect x="177.42" y="64.52" width="16.13" height="16.13" stroke="#2E8B57" stroke-width="0.2" stroke-linecap="butt" fill="#2E8B57"/>
    <rect x="177.42" y="80.65" width="16.13" height="16.13" stroke="#2E8B57" stroke-width="0.2" stroke-linecap="butt" fill="#2E8B57"/>
    <rect x="177.42" y="112.90" width="16.13" height="16.13" stroke="#2E8B57" stroke-width="0.2" stroke-linecap="butt" fill="#2E8B57"/>
    <rect x="177.42" y="129.03" width="16.13" height="16.13" stroke="#2E8B57" stroke-width="0.2" stroke-linecap="butt" fill="#2E8B57"/>
    <rect x="177.42" y="145.16" width="16.13" height="16.13" stroke="#2E8B57" stroke-width="0.2" stroke-linecap="butt" fill="#2E8B57"/>
    <rect x="177.42" y="161.29" width="16.13" height="16.13" stroke="#2E8B57" stroke-width="0.2" stroke-linecap="butt" fill="#2E8B57"/>
    <rect x="177.42" y="258.06" width="16.13" height="16.13" stroke="#2E8B57" stroke-width="0.2" stroke-linecap="butt" fill="#2E8B57"/>
    <rect x="177.42" y="274.19" width="16.13" height="16.13" stroke="#2E8B57" stroke-width="0.2" stroke-linecap="butt" fill="#2E8B57"/>
    <rect x="177.42" y="290.32" width="16.13" height="16.13" stroke="#2E8B57" stroke-width="0.2" stroke-linecap="butt" fill="#2E8B57"/>
    <rect x="177.42" y="306.45" width="16.13" height="16.13" stroke="#2E8B57" stroke-width="0.2" stroke-linecap="butt" fill="#2E8B57"/>
    <rect x="177.42" y="322.58" width="16.13" height="16.13" stroke="#2E8B57" stroke-width="0.2" stroke-linecap="butt" fill="#2E8B57"/>
    <rect x="177.42" y="338.71" width="16.13" height="16.13" stroke="#2E8B57" stroke-width="0.2" stroke-linecap="butt" fill="#2E8B57"/>
    <rect x="177.42" y="387.10" width="16.13" height="16.13" stroke="#2E8B57" stroke-width="0.2" stroke-linecap="butt" fill="#2E8B57"/>
    <rect x="177.42" y="419.35" width="16.13" height="16.13" stroke="#2E8B57" stroke-width="0.2" stroke-linecap="butt" fill="#2E8B57"/>
    <rect x="177.42" y="435.48" width="16.13" height="16.13" stroke="#2E8B57" stroke-width="0.2" stroke-linecap="butt" fill="#2E8B57"/>
    <rect x="193.55" y="48.39" width="16.13" height="16.13" stroke="#2E8B57" stroke-width="0.2" stroke-linecap="butt" fill="#2E8B57"/>
    <rect x="193.55" y="80.65" width="16.13" height="16.13" stroke="#2E8B57" stroke-width="0.2" stroke-linecap="butt" fill="#2E8B57"/>
    <rect x="193.55" y="96.77" width="16.13" height="16.13" stroke="#2E8B57" stroke-width="0.2" stroke-linecap="butt" fill="#2E8B57"/>
    <rect x="193.55" y="129.03" width="16.13" height="16.13" stroke="#2E8B57" stroke-width="0.2" stroke-linecap="butt" fill="#2E8B57"/>
    <rect x="193.55" y="161.29" width="16.13" height="16.13" stroke="#2E8B57" stroke-width="0.2" stroke-linecap="butt" fill="#2E8B57"/>
    <rect x="193.55" y="209.68" width="16.13" height="16.13" stroke="#2E8B57" stroke-width="0.2" stroke-linecap="butt" fill="#2E8B57"/>
    <rect x="193.55" y="258.06" width="16.13" height="16.13" stroke="#2E8B57" stroke-width="0.2" stroke-linecap="butt" fill="#2E8B57"/>
    <rect x="193.55" y="290.32" width="16.13" height="16.13" stroke="#2E8B57" stroke-width="0.2" stroke-linecap="butt" fill="#2E8B57"/>
    <rect x="193.55" y="306.45" width="16.13" height="16.13" stroke="#2E8B57" stroke-width="0.2" stroke-linecap="butt" fill="#2E8B57"/>
    <rect x="193.55" y="354.84" width="16.13" height="16.13" stroke="#2E8B57" stroke-width="0.2" stroke-linecap="butt" fill="#2E8B57"/>
    <rect x="193.55" y="403.23" width="16.13" height="16.13" stroke="#2E8B57" stroke-width="0.2" stroke-linecap="butt" fill="#2E8B57"/>
    <rect x="209.68" y="80.65" width="16.13" height="16.13" stroke="#2E8B57" stroke-width="0.2" stroke-linecap="butt" fill="#2E8B57"/>
    <rect x="209.68" y="96.77" width="16.13" height="16.13" stroke="#2E8B57" stroke-width="0.2" stroke-linecap="butt" fill="#2E8B57"/>
    <rect x="209.68" y="145.16" width="16.13" height="16.13" stroke="#2E8B57" stroke-width="0.2" stroke-linecap="butt" fill="#2E8B57"/>
    <rect x="209.68" y="177.42" width="16.13" height="16.13" stroke="#2E8B57" stroke-width="0.2" stroke-linecap="butt" fill="#2E8B57"/>
    <rect x="209.68" y="193.55" width="16.13" height="16.13" stroke="#2E8B57" stroke-width="0.2" stroke-linecap="butt" fill="#2E8B57"/>
    <rect x="209.68" y="209.68" width="16.13" height="16.13" stroke="#2E8B57" stroke-width="0.2" stroke-linecap="butt" fill="#2E8B57"/>
    <rect x="209.68" y="258.06" width="16.13" height="16.13" stroke="#2E8B57" stroke-width="0.2" stroke-linecap="butt" fill="#2E8B57"/>
    <rect x="209.68" y="274.19" width="16.13" height="16.13" stroke="#2E8B57" stroke-width="0.2" stroke-linecap="butt" fill="#2E8B57"/>
    <rect x="209.68" y="290.32" width="16.13" height="16.13" stroke="#2E8B57" stroke-width="0.2" stroke-linecap="butt" fill="#2E8B57"/>
    <rect x="209.68" y="338.71" width="16.13" height="16.13" stroke="#2E8B57" stroke-width="0.2" stroke-linecap="butt" fill="#2E8B57"/>
    <rect x="209.68" y="354.84" width="16.13" height="16.13" stroke="#2E8B57" stroke-width="0.2" stroke-linecap="butt" fill="#2E8B57"/>
    <rect x="209.68" y="370.97" width="16.13" height="16.13" stroke="#2E8B57" stroke-width="0.2" stroke-linecap="butt" fill="#2E8B57"/>
    <rect x="209.68" y="403.23" width="16.13" height="16.13" stroke="#2E8B57" stroke-width="0.2" stroke-linecap="butt" fill="#2E8B57"/>
    <rect x="225.81" y="64.52" width="16.13" height="16.13" stroke="#2E8B57" stroke-width="0.2" stroke-linecap="butt" fill="#2E8B57"/>
    <rect x="225.81" y="80.65" width="16.13" height="16.13" stroke="#2E8B57" stroke-width="0.2" stroke-linecap="butt" fill="#2E8B57"/>
    <rect x="225.81" y="96.77" width="16.13" height="16.13" stroke="#2E8B57" stroke-width="0.2" stroke-linecap="butt" fill="#2E8B57"/>
    <rect x="225.81" y="129.03" width="16.13" height="16.13" stroke="#2E8B57" stroke-width="0.2" stroke-linecap="butt" fill="#2E8B57"/>
    <rect x="225.81" y="193.55" width="16.13" height="16.13" stroke="#2E8B57" stroke-width="0.2" stroke-linecap="butt" fill="#2E8B57"/>
    <rect x="225.81" y="258.06" width="16.13" height="16.13" stroke="#2E8B57" stroke-width="0.2" stroke-linecap="butt" fill="#2E8B57"/>
    <rect x="225.81" y="306.45" width="16.13" height="16.13" stroke="#2E8B57" stroke-width="0.2" stroke-linecap="butt" fill="#2E8B57"/>
    <rect x="225.81" y="354.84" width="16.13" height="16.13" stroke="#2E8B57" stroke-width="0.2" stroke-linecap="butt" fill="#2E8B57"/>
    <rect x="225.81" y="370.97" width="16.13" height="16.13" stroke="#2E8B57" stroke-width="0.2" stroke-linecap="butt" fill="#2E8B57"/>
    <rect x="225.81" y="387.10" width="16.13" height="16.13" stroke="#2E8B57" stroke-width="0.2" stroke-linecap="butt" fill="#2E8B57"/>
    <rect x="225.81" y="403.23" width="16.13" height="16.13" stroke="#2E8B57" stroke-width="0.2" stroke-linecap="butt" fill="#2E8B57"/>
    <rect x="225.81" y="419.35" width="16.13" height="16.13" stroke="#2E8B57" stroke-width="0.2" stroke-linecap="butt" fill="#2E8B57"/>
    <rect x="225.81" y="435.48" width="16.13" height="16.13" stroke="#2E8B57" stroke-width="0.2" stroke-linecap="butt" fill="#2E8B57"/>
    <rect x="241.94" y="48.39" width="16.13" height="16.13" stroke="#2E8B57" stroke-width="0.2" stroke-linecap="butt" fill="#2E8B57"/>
    <rect x="241.94" y="64.52" width="16.13" height="16.13" stroke="#2E8B57" stroke-width="0.2" stroke-linecap="butt" fill="#2E8B57"/>
    <rect x="241.94" y="80.65" width="16.13" height="16.13" stroke="#2E8B57" stroke-width="0.2" stroke-linecap="butt" fill="#2E8B57"/>
    <rect x="241.94" y="145.16" width="16.13" height="16.13" stroke="#2E8B57" stroke-width="0.2" stroke-linecap="butt" fill="#2E8B57"/>
    <rect x="241.94" y="161.29" width="16.13" height="16.13" stroke="#2E8B57" stroke-width="0.2" stroke-linecap="butt" fill="#2E8B57"/>
    <rect x="241.94" y="241.94" width="16.13" height="16.13" stroke="#2E8B57" stroke-width="0.2" stroke-linecap="butt" fill="#2E8B57"/>
    <rect x="241.94" y="258.06" width="16.13" height="16.13" stroke="#2E8B57" stroke-width="0.2" stroke-linecap="butt" fill="#2E8B57"/>
    <rect x="241.94" y="274.19" width="16.13" height="16.13" stroke="#2E8B57" stroke-width="0.2" stroke-linecap="butt" fill="#2E8B57"/>
    <rect x="241.94" y="290.32" width="16.13" height="16.13" stroke="#2E8B57" stroke-width="0.2" stroke-linecap="butt" fill="#2E8B57"/>
    <rect x="241.94" y="370.97" width="16.13" height="16.13" stroke="#2E8B57" stroke-width="0.2" stroke-linecap="butt" fill="#2E8B57"/>
    <rect x="241.94" y="387.10" width="16.13" height="16.13" stroke="#2E8B57" stroke-width="0.2" stroke-linecap="butt" fill="#2E8B57"/>
    <rect x="241.94" y="403.23" width="16.13" height="16.13" stroke="#2E8B57" stroke-width="0.2" stroke-linecap="butt" fill="#2E8B57"/>
    <rect x="241.94" y="419.35" width="16.13" height="16.13" stroke="#2E8B57" stroke-width="0.2" stroke-linecap="butt" fill="#2E8B57"/>
    <rect x="241.94" y="435.48" width="16.13" height="16.13" stroke="#2E8B57" stroke-width="0.2" stroke-linecap="butt" fill="#2E8B57"/>
    <rect x="258.06" y="64.52" width="16.13" height="16.13" stroke="#2E8B57" stroke-width="0.2" stroke-linecap="butt" fill="#2E8B57"/>
    <rect x="258.06" y="177.42" width="16.13" height="16.13" stroke="#2E8B57" stroke-width="0.2" stroke-linecap="butt" fill="#2E8B57"/>
    <rect x="258.06" y="225.81" width="16.13" height="16.13" stroke="#2E8B57" stroke-width="0.2" stroke-linecap="butt" fill="#2E8B57"/>
    <rect x="258.06" y="241.94" width="16.13" height="16.13" stroke="#2E8B57" stroke-width="0.2" stroke-linecap="butt" fill="#2E8B57"/>
    <rect x="258.06" y="290.32" width="16.13" height="16.13" stroke="#2E8B57" stroke-width="0.2" stroke-linecap="butt" fill="#2E8B57"/>
    <rect x="258.06" y="338.71" width="16.13" height="16.13" stroke="#2E8B57" stroke-width="0.2" stroke-linecap="butt" fill="#2E8B57"/>
    <rect x="258.06" y="370.97" width="16.13" height="16.13" stroke="#2E8B57" stroke-width="0.2" stroke-linecap="butt" fill="#2E8B57"/>
    <rect x="258.06" y="419.35" width="16.13" height="16.13" stroke="#2E8B57" stroke-width="0.2" stroke-linecap="butt" fill="#2E8B57"/>
    <rect x="274.19" y="48.39" width="16.13" height="16.13" stroke="#2E8B57" stroke-width="0.2" stroke-linecap="butt" fill="#2E8B57"/>
    <rect x="274.19" y="80.65" width="16.13" height="16.13" stroke="#2E8B57" stroke-width="0.2" stroke-linecap="butt" fill="#2E8B57"/>
    <rect x="274.19" y="96.77" width="16.13" height="16.13" stroke="#2E8B57" stroke-width="0.2" stroke-linecap="butt" fill="#2E8B57"/>
    <rect x="274.19" y="112.90" width="16.13" height="16.13" stroke="#2E8B57" stroke-width="0.2" stroke-linecap="butt" fill="#2E8B57"/>
    <rect x="274.19" y="145.16" width="16.13" height="16.13" stroke="#2E8B57" stroke-width="0.2" stroke-linecap="butt" fill="#2E8B57"/>
    <rect x="274.19" y="161.29" width="16.13" height="16.13" stroke="#2E8B57" stroke-width="0.2" stroke-linecap="butt" fill="#2E8B57"/>
    <rect x="274.19" y="225.81" width="16.13" height="16.13" stroke="#2E8B57" stroke-width="0.2" stroke-linecap="butt" fill="#2E8B57"/>
    <rect x="274.19" y="258.06" width="16.13" height="16.13" stroke="#2E8B57" stroke-width="0.2" stroke-linecap="butt" fill="#2E8B57"/>
    <rect x="274.19" y="274.19" width="16.13" height="16.13" stroke="#2E8B57" stroke-width="0.2" stroke-linecap="butt" fill="#2E8B57"/>
    <rect x="274.19" y="338.71" width="16.13" height="16.13" stroke="#2E8B57" stroke-width="0.2" stroke-linecap="butt" fill="#2E8B57"/>
    <rect x="274.19" y="435.48" width="16.13" height="16.13" stroke="#2E8B57" stroke-width="0.2" stroke-linecap="butt" fill="#2E8B57"/>
    <rect x="290.32" y="48.39" width="16.13" height="16.13" stroke="#2E8B57" stroke-width="0.2" stroke-linecap="butt" fill="#2E8B57"/>
    <rect x="290.32" y="64.52" width="16.13" height="16.13" stroke="#2E8B57" stroke-width="0.2" stroke-linecap="butt" fill="#2E8B57"/>
    <rect x="290.32" y="80.65" width="16.13" height="16.13" stroke="#2E8B57" stroke-width="0.2" stroke-linecap="butt" fill="#2E8B57"/>
    <rect x="290.32" y="112.90" width="16.13" height="16.13" stroke="#2E8B57" stroke-width="0.2" stroke-linecap="butt" fill="#2E8B57"/>
    <rect x="290.32" y="129.03" width="16.13" height="16.13" stroke="#2E8B57" stroke-width="0.2" stroke-linecap="butt" fill="#2E8B57"/>
    <rect x="290.32" y="161.29" width="16.13" height="16.13" stroke="#2E8B57" stroke-width="0.2" stroke-linecap="butt" fill="#2E8B57"/>
    <rect x="290.32" y="290.32" width="16.13" height="16.13" stroke="#2E8B57" stroke-width="0.2" stroke-linecap="butt" fill="#2E8B57"/>
    <rect x="290.32" y="338.71" width="16.13" height="16.13" stroke="#2E8B57" stroke-width="0.2" stroke-linecap="butt" fill="#2E8B57"/>
    <rect x="290.32" y="403.23" width="16.13" height="16.13" stroke="#2E8B57" stroke-width="0.2" stroke-linecap="butt" fill="#2E8B57"/>
    <rect x="290.32" y="435.48" width="16.13" height="16.13" stroke="#2E8B57" stroke-width="0.2" stroke-linecap="butt" fill="#2E8B57"/>
    <rect x="306.45" y="64.52" width="16.13" height="16.13" stroke="#2E8B57" stroke-width="0.2" stroke-linecap="butt" fill="#2E8B57"/>
    <rect x="306.45" y="129.03" width="16.13" height="16.13" stroke="#2E8B57" stroke-width="0.2" stroke-linecap="butt" fill="#2E8B57"/>
    <rect x="306.45" y="145.16" width="16.13" height="16.13" stroke="#2E8B57" stroke-width="0.2" stroke-linecap="butt" fill="#2E8B57"/>
    <rect x="306.45" y="161.29" width="16.13" height="16.13" stroke="#2E8B57" stroke-width="0.2" stroke-linecap="butt" fill="#2E8B57"/>
    <rect x="306.45" y="177.42" width="16.13" height="16.13" stroke="#2E8B57" stroke-width="0.2" stroke-linecap="butt" fill="#2E8B57"/>
    <rect x="306.45" y="193.55" width="16.13" height="16.13" stroke="#2E8B57" stroke-width="0.2" stroke-linecap="butt" fill="#2E8B57"/>
    <rect x="306.45" y="274.19" width="16.13" height="16.13" stroke="#2E8B57" stroke-width="0.2" stroke-linecap="butt" fill="#2E8B57"/>
    <rect x="306.45" y="290.32" width="16.13" height="16.13" stroke="#2E8B57" stroke-width="0.2" stroke-linecap="butt" fill="#2E8B57"/>
    <rect x="306.45" y="306.45" width="16.13" height="16.13" stroke="#2E8B57" stroke-width="0.2" stroke-linecap="butt" fill="#2E8B57"/>
    <rect x="306.45" y="322.58" width="16.13" height="16.13" stroke="#2E8B57" stroke-width="0.2" stroke-linecap="butt" fill="#2E8B57"/>
    <rect x="306.45" y="338.71" width="16.13" height="16.13" stroke="#2E8B57" stroke-width="0.2" stroke-linecap="butt" fill="#2E8B57"/>
    <rect x="306.45" y="354.84" width="16.13" height="16.13" stroke="#2E8B57" stroke-width="0.2" stroke-linecap="butt" fill="#2E8B57"/>
    <rect x="306.45" y="370.97" width="16.13" height="16.13" stroke="#2E8B57" stroke-width="0.2" stroke-linecap="butt" fill="#2E8B57"/>
    <rect x="306.45" y="419.35" width="16.13" height="16.13" stroke="#2E8B57" stroke-width="0.2" stroke-linecap="butt" fill="#2E8B57"/>
    <rect x="306.45" y="435.48" width="16.13" height="16.13" stroke="#2E8B57" stroke-width="0.2" stroke-linecap="butt" fill="#2E8B57"/>
    <rect x="322.58" y="193.55" width="16.13" height="16.13" stroke="#2E8B57" stroke-width="0.2" stroke-linecap="butt" fill="#2E8B57"/>
    <rect x="322.58" y="225.81" width="16.13" height="16.13" stroke="#2E8B57" stroke-width="0.2" stroke-linecap="butt" fill="#2E8B57"/>
    <rect x="322.58" y="241.94" width="16.13" height="16.13" stroke="#2E8B57" stroke-width="0.2" stroke-linecap="butt" fill="#2E8B57"/>
    <rect x="322.58" y="258.06" width="16.13" height="16.13" stroke="#2E8B57" stroke-width="0.2" stroke-linecap="butt" fill="#2E8B57"/>
    <rect x="322.58" y="306.45" width="16.13" height="16.13" stroke="#2E8B57" stroke-width="0.2" stroke-linecap="butt" fill="#2E8B57"/>
    <rect x="322.58" y="370.97" width="16.13" height="16.13" stroke="#2E8B57" stroke-width="0.2" stroke-linecap="butt" fill="#2E8B57"/>
    <rect x="322.58" y="419.35" width="16.13" height="16.13" stroke="#2E8B57" stroke-width="0.2" stroke-linecap="butt" fill="#2E8B57"/>
    <rect x="338.71" y="48.39" width="16.13" height="16.13" stroke="#2E8B57" stroke-width="0.2" stroke-linecap="butt" fill="#2E8B57"/>
    <rect x="338.71" y="64.52" width="16.13" height="16.13" stroke="#2E8B57" stroke-width="0.2" stroke-linecap="butt" fill="#2E8B57"/>
    <rect x="338.71" y="80.65" width="16.13" height="16.13" stroke="#2E8B57" stroke-width="0.2" stroke-linecap="butt" fill="#2E8B57"/>
    <rect x="338.71" y="96.77" width="16.13" height="16.13" stroke="#2E8B57" stroke-width="0.2" stroke-linecap="butt" fill="#2E8B57"/>
    <rect x="338.71" y="112.90" width="16.13" height="16.13" stroke="#2E8B57" stroke-width="0.2" stroke-linecap="butt" fill="#2E8B57"/>
    <rect x="338.71" y="129.03" width="16.13" height="16.13" stroke="#2E8B57" stroke-width="0.2" stroke-linecap="butt" fill="#2E8B57"/>
    <rect x="338.71" y="145.16" width="16.13" height="16.13" stroke="#2E8B57" stroke-width="0.2" stroke-linecap="butt" fill="#2E8B57"/>
    <rect x="338.71" y="177.42" width="16.13" height="16.13" stroke="#2E8B57" stroke-width="0.2" stroke-linecap="butt" fill="#2E8B57"/>
    <rect x="338.71" y="193.55" width="16.13" height="16.13" stroke="#2E8B57" stroke-width="0.2" stroke-linecap="butt" fill="#2E8B57"/>
    <rect x="338.71" y="241.94" width="16.13" height="16.13" stroke="#2E8B57" stroke-width="0.2" stroke-linecap="butt" fill="#2E8B57"/>
    <rect x="338.71" y="258.06" width="16.13" height="16.13" stroke="#2E8B57" stroke-width="0.2" stroke-linecap="butt" fill="#2E8B57"/>
    <rect x="338.71" y="290.32" width="16.13" height="16.13" stroke="#2E8B57" stroke-width="0.2" stroke-linecap="butt" fill="#2E8B57"/>
    <rect x="338.71" y="306.45" width="16.13" height="16.13" stroke="#2E8B57" stroke-width="0.2" stroke-linecap="butt" fill="#2E8B57"/>
    <rect x="338.71" y="338.71" width="16.13" height="16.13" stroke="#2E8B57" stroke-width="0.2" stroke-linecap="butt" fill="#2E8B57"/>
    <rect x="338.71" y="370.97" width="16.13" height="16.13" stroke="#2E8B57" stroke-width="0.2" stroke-linecap="butt" fill="#2E8B57"/>
    <rect x="338.71" y="419.35" width="16.13" height="16.13" stroke="#2E8B57" stroke-width="0.2" stroke-linecap="butt" fill="#2E8B57"/>
    <rect x="354.84" y="48.39" width="16.13" height="16.13" stroke="#2E8B57" stroke-width="0.2" stroke-linecap="butt" fill="#2E8B57"/>
    <rect x="354.84" y="145.16" width="16.13" height="16.13" stroke="#2E8B57" stroke-width="0.2" stroke-linecap="butt" fill="#2E8B57"/>
    <rect x="354.84" y="177.42" width="16.13" height="16.13" stroke="#2E8B57" stroke-width="0.2" stroke-linecap="butt" fill="#2E8B57"/>
    <rect x="354.84" y="209.68" width="16.13" height="16.13" stroke="#2E8B57" stroke-width="0.2" stroke-linecap="butt" fill="#2E8B57"/>
    <rect x="354.84" y="225.81" width="16.13" height="16.13" stroke="#2E8B57" stroke-width="0.2" stroke-linecap="butt" fill="#2E8B57"/>
    <rect x="354.84" y="258.06" width="16.13" height="16.13" stroke="#2E8B57" stroke-width="0.2" stroke-linecap="butt" fill="#2E8B57"/>
    <rect x="354.84" y="274.19" width="16.13" height="16.13" stroke="#2E8B57" stroke-width="0.2" stroke-linecap="butt" fill="#2E8B57"/>
    <rect x="354.84" y="306.45" width="16.13" height="16.13" stroke="#2E8B57" stroke-width="0.2" stroke-linecap="butt" fill="#2E8B57"/>
    <rect x="354.84" y="370.97" width="16.13" height="16.13" stroke="#2E8B57" stroke-width="0.2" stroke-linecap="butt" fill="#2E8B57"/>
    <rect x="354.84" y="387.10" width="16.13" height="16.13" stroke="#2E8B57" stroke-width="0.2" stroke-linecap="butt" fill="#2E8B57"/>
    <rect x="354.84" y="403.23" width="16.13" height="16.13" stroke="#2E8B57" stroke-width="0.2" stroke-linecap="butt" fill="#2E8B57"/>
    <rect x="354.84" y="435.48" width="16.13" height="16.13" stroke="#2E8B57" stroke-width="0.2" stroke-linecap="butt" fill="#2E8B57"/>
    <rect x="370.97" y="48.39" width="16.13" height="16.13" stroke="#2E8B57" stroke-width="0.2" stroke-linecap="butt" fill="#2E8B57"/>
    <rect x="370.97" y="80.65" width="16.13" height="16.13" stroke="#2E8B57" stroke-width="0.2" stroke-linecap="butt" fill="#2E8B57"/>
    <rect x="370.97" y="96.77" width="16.13" height="16.13" stroke="#2E8B57" stroke-width="0.2" stroke-linecap="butt" fill="#2E8B57"/>
    <rect x="370.97" y="112.90" width="16.13" height="16.13" stroke="#2E8B57" stroke-width="0.2" stroke-linecap="butt" fill="#2E8B57"/>
    <rect x="370.97" y="145.16" width="16.13" height="16.13" stroke="#2E8B57" stroke-width="0.2" stroke-linecap="butt" fill="#2E8B57"/>
    <rect x="370.97" y="177.42" width="16.13" height="16.13" stroke="#2E8B57" stroke-width="0.2" stroke-linecap="butt" fill="#2E8B57"/>
    <rect x="370.97" y="225.81" width="16.13" height="16.13" stroke="#2E8B57" stroke-width="0.2" stroke-linecap="butt" fill="#2E8B57"/>
    <rect x="370.97" y="274.19" width="16.13" height="16.13" stroke="#2E8B57" stroke-width="0.2" stroke-linecap="butt" fill="#2E8B57"/>
    <rect x="370.97" y="290.32" width="16.13" height="16.13" stroke="#2E8B57" stroke-width="0.2" stroke-linecap="butt" fill="#2E8B57"/>
    <rect x="370.97" y="306.45" width="16.13" height="16.13" stroke="#2E8B57" stroke-width="0.2" stroke-linecap="butt" fill="#2E8B57"/>
    <rect x="370.97" y="322.58" width="16.13" height="16.13" stroke="#2E8B57" stroke-width="0.2" stroke-linecap="butt" fill="#2E8B57"/>
    <rect x="370.97" y="338.71" width="16.13" height="16.13" stroke="#2E8B57" stroke-width="0.2" stroke-linecap="butt" fill="#2E8B57"/>
    <rect x="370.97" y="354.84" width="16.13" height="16.13" stroke="#2E8B57" stroke-width="0.2" stroke-linecap="butt" fill="#2E8B57"/>
    <rect x="370.97" y="370.97" width="16.13" height="16.13" stroke="#2E8B57" stroke-width="0.2" stroke-linecap="butt" fill="#2E8B57"/>
    <rect x="370.97" y="387.10" width="16.13" height="16.13" stroke="#2E8B57" stroke-width="0.2" stroke-linecap="butt" fill="#2E8B57"/>
    <rect x="370.97" y="403.23" width="16.13" height="16.13" stroke="#2E8B57" stroke-width="0.2" stroke-linecap="butt" fill="#2E8B57"/>
    <rect x="387.10" y="48.39" width="16.13" height="16.13" stroke="#2E8B57" stroke-width="0.2" stroke-linecap="butt" fill="#2E8B57"/>
    <rect x="387.10" y="80.65" width="16.13" height="16.13" stroke="#2E8B57" stroke-width="0.2" stroke-linecap="butt" fill="#2E8B57"/>
    <rect x="387.10" y="96.77" width="16.13" height="16.13" stroke="#2E8B57" stroke-width="0.2" stroke-linecap="butt" fill="#2E8B57"/>
    <rect x="387.10" y="112.90" width="16.13" height="16.13" stroke="#2E8B57" stroke-width="0.2" stroke-linecap="butt" fill="#2E8B57"/>
    <rect x="387.10" y="145.16" width="16.13" height="16.13" stroke="#2E8B57" stroke-width="0.2" stroke-linecap="butt" fill="#2E8B57"/>
    <rect x="387.10" y="241.94" width="16.13" height="16.13" stroke="#2E8B57" stroke-width="0.2" stroke-linecap="butt" fill="#2E8B57"/>
    <rect x="387.10" y="258.06" width="16.13" height="16.13" stroke="#2E8B57" stroke-width="0.2" stroke-linecap="butt" fill="#2E8B57"/>
    <rect x="387.10" y="306.45" width="16.13" height="16.13" stroke="#2E8B57" stroke-width="0.2" stroke-linecap="butt" fill="#2E8B57"/>
    <rect x="387.10" y="322.58" width="16.13" height="16.13" stroke="#2E8B57" stroke-width="0.2" stroke-linecap="butt" fill="#2E8B57"/>
    <rect x="387.10" y="338.71" width="16.13" height="16.13" stroke="#2E8B57" stroke-width="0.2" stroke-linecap="butt" fill="#2E8B57"/>
    <rect x="387.10" y="354.84" width="16.13" height="16.13" stroke="#2E8B57" stroke-width="0.2" stroke-linecap="butt" fill="#2E8B57"/>
    <rect x="387.10" y="370.97" width="16.13" height="16.13" stroke="#2E8B57" stroke-width="0.2" stroke-linecap="butt" fill="#2E8B57"/>
    <rect x="387.10" y="387.10" width="16.13" height="16.13" stroke="#2E8B57" stroke-width="0.2" stroke-linecap="butt" fill="#2E8B57"/>
    <rect x="387.10" y="419.35" width="16.13" height="16.13" stroke="#2E8B57" stroke-width="0.2" stroke-linecap="butt" fill="#2E8B57"/>
    <rect x="403.23" y="48.39" width="16.13" height="16.13" stroke="#2E8B57" stroke-width="0.2" stroke-linecap="butt" fill="#2E8B57"/>
    <rect x="403.23" y="80.65" width="16.13" height="16.13" stroke="#2E8B57" stroke-width="0.2" stroke-linecap="butt" fill="#2E8B57"/>
    <rect x="403.23" y="96.77" width="16.13" height="16.13" stroke="#2E8B57" stroke-width="0.2" stroke-linecap="butt" fill="#2E8B57"/>
    <rect x="403.23" y="112.90" width="16.13" height="16.13" stroke="#2E8B57" stroke-width="0.2" stroke-linecap="butt" fill="#2E8B57"/>
    <rect x="403.23" y="145.16" width="16.13" height="16.13" stroke="#2E8B57" stroke-width="0.2" stroke-linecap="butt" fill="#2E8B57"/>
    <rect x="403.23" y="177.42" width="16.13" height="16.13" stroke="#2E8B57" stroke-width="0.2" stroke-linecap="butt" fill="#2E8B57"/>
    <rect x="403.23" y="258.06" width="16.13" height="16.13" stroke="#2E8B57" stroke-width="0.2" stroke-linecap="butt" fill="#2E8B57"/>
    <rect x="403.23" y="274.19" width="16.13" height="16.13" stroke="#2E8B57" stroke-width="0.2" stroke-linecap="butt" fill="#2E8B57"/>
    <rect x="403.23" y="306.45" width="16.13" height="16.13" stroke="#2E8B57" stroke-width="0.2" stroke-linecap="butt" fill="#2E8B57"/>
    <rect x="403.23" y="354.84" width="16.13" height="16.13" stroke="#2E8B57" stroke-width="0.2" stroke-linecap="butt" fill="#2E8B57"/>
    <rect x="403.23" y="387.10" width="16.13" height="16.13" stroke="#2E8B57" stroke-width="0.2" stroke-linecap="butt" fill="#2E8B57"/>
    <rect x="403.23" y="403.23" width="16.13" height="16.13" stroke="#2E8B57" stroke-width="0.2" stroke-linecap="butt" fill="#2E8B57"/>
    <rect x="419.35" y="48.39" width="16.13" height="16.13" stroke="#2E8B57" stroke-width="0.2" stroke-linecap="butt" fill="#2E8B57"/>
    <rect x="419.35" y="145.16" width="16.13" height="16.13" stroke="#2E8B57" stroke-width="0.2" stroke-linecap="butt" fill="#2E8B57"/>
    <rect x="419.35" y="177.42" width="16.13" height="16.13" stroke="#2E8B57" stroke-width="0.2" stroke-linecap="butt" fill="#2E8B57"/>
    <rect x="419.35" y="209.68" width="16.13" height="16.13" stroke="#2E8B57" stroke-width="0.2" stroke-linecap="butt" fill="#2E8B57"/>
    <rect x="419.35" y="241.94" width="16.13" height="16.13" stroke="#2E8B57" stroke-width="0.2" stroke-linecap="butt" fill="#2E8B57"/>
    <rect x="419.35" y="290.32" width="16.13" height="16.13" stroke="#2E8B57" stroke-width="0.2" stroke-linecap="butt" fill="#2E8B57"/>
    <rect x="419.35" y="338.71" width="16.13" height="16.13" stroke="#2E8B57" stroke-width="0.2" stroke-linecap="butt" fill="#2E8B57"/>
    <rect x="419.35" y="435.48" width="16.13" height="16.13" stroke="#2E8B57" stroke-width="0.2" stroke-linecap="butt" fill="#2E8B57"/>
    <rect x="435.48" y="48.39" width="16.13" height="16.13" stroke="#2E8B57" stroke-width="0.2" stroke-linecap="butt" fill="#2E8B57"/>
    <rect x="435.48" y="64.52" width="16.13" height="16.13" stroke="#2E8B57" stroke-width="0.2" stroke-linecap="butt" fill="#2E8B57"/>
    <rect x="435.48" y="80.65" width="16.13" height="16.13" stroke="#2E8B57" stroke-width="0.2" stroke-linecap="butt" fill="#2E8B57"/>
    <rect x="435.48" y="96.77" width="16.13" height="16.13" stroke="#2E8B57" stroke-width="0.2" stroke-linecap="butt" fill="#2E8B57"/>
    <rect x="435.48" y="112.90" width="16.13" height="16.13" stroke="#2E8B57" stroke-width="0.2" stroke-linecap="butt" fill="#2E8B57"/>
    <rect x="435.48" y="129.03" width="16.13" height="16.13" stroke="#2E8B57" stroke-width="0.2" stroke-linecap="butt" fill="#2E8B57"/>
    <rect x="435.48" y="145.16" width="16.13" height="16.13" stroke="#2E8B57" stroke-width="0.2" stroke-linecap="butt" fill="#2E8B57"/>
    <rect x="435.48" y="193.55" width="16.13" height="16.13" stroke="#2E8B57" stroke-width="0.2" stroke-linecap="butt" fill="#2E8B57"/>
    <rect x="435.48" y="209.68" width="16.13" height="16.13" stroke="#2E8B57" stroke-width="0.2" stroke-linecap="butt" fill="#2E8B57"/>
    <rect x="435.48" y="241.94" width="16.13" height="16.13" stroke="#2E8B57" stroke-width="0.2" stroke-linecap="butt" fill="#2E8B57"/>
    <rect x="435.48" y="258.06" width="16.13" height="16.13" stroke="#2E8B57" stroke-width="0.2" stroke-linecap="butt" fill="#2E8B57"/>
    <rect x="435.48" y="274.19" width="16.13" height="16.13" stroke="#2E8B57" stroke-width="0.2" stroke-linecap="butt" fill="#2E8B57"/>
    <rect x="435.48" y="322.58" width="16.13" height="16.13" stroke="#2E8B57" stroke-width="0.2" stroke-linecap="butt" fill="#2E8B57"/>
    <rect x="435.48" y="338.71" width="16.13" height="16.13" stroke="#2E8B57" stroke-width="0.2" stroke-linecap="butt" fill="#2E8B57"/>
    <rect x="435.48" y="354.84" width="16.13" height="16.13" stroke="#2E8B57" stroke-width="0.2" stroke-linecap="butt" fill="#2E8B57"/>
    <rect x="435.48" y="370.97" width="16.13" height="16.13" stroke="#2E8B57" stroke-width="0.2" stroke-linecap="butt" fill="#2E8B57"/>
    <rect x="435.48" y="403.23" width="16.13" height="16.13" stroke="#2E8B57" stroke-width="0.2" stroke-linecap="butt" fill="#2E8B57"/>
    <rect x="435.48" y="435.48" width="16.13" height="16.13" stroke="#2E8B57" stroke-width="0.2" stroke-linecap="butt" fill="#2E8B57"/>
  </g>
</svg>
