<?xml version="1.0" encoding="utf-8"?>
<!-- Generator: Adobe Illustrator 16.0.0, SVG Export Plug-In . SVG Version: 6.00 Build 0)  -->
<!DOCTYPE svg PUBLIC "-//W3C//DTD SVG 1.1//EN" "http://www.w3.org/Graphics/SVG/1.1/DTD/svg11.dtd">
<svg version="1.1" id="_x32_" xmlns="http://www.w3.org/2000/svg" xmlns:xlink="http://www.w3.org/1999/xlink" x="0px" y="0px"
	 width="800px" height="800px" viewBox="0 0 800 800" enable-background="new 0 0 800 800" xml:space="preserve">
<g>
	<path fill="#17462C" d="M743.155,461.716l-64.697-137.135c0.171-4.102,0.317-8.228,0.317-12.353
		c0-172.436-139.795-312.231-312.231-312.231c-172.436,0-312.256,139.795-312.256,312.231c0,96.973,44.214,183.594,113.55,240.869
		v110.377c0,10.767,6.445,20.508,16.333,24.683l258.619,109.717c8.251,3.516,17.748,2.638,25.269-2.318
		c7.495-4.981,12.013-13.38,12.013-22.364v-93.506c0-14.819,12.012-26.831,26.831-26.831h132.422
		c14.818,0,26.806-12.036,26.806-26.832v-80.639c0-10.255,5.885-19.63,15.113-24.122l49.365-23.975
		C743.814,490.865,749.405,474.997,743.155,461.716z M366.543,524.558c-117.261,0-212.329-95.044-212.329-212.33
		c0-117.261,95.068-212.305,212.329-212.305c117.262,0,212.305,95.044,212.305,212.305
		C578.848,429.514,483.805,524.558,366.543,524.558z"/>
	<path fill="#17462C" d="M516.3,338.474c5.737-0.439,10.131-5.2,10.131-10.963v-26.197c0-5.762-4.396-10.522-10.131-10.986
		l-34.741-2.709c-2.173-0.147-4.102-1.538-4.931-3.589l-11.45-27.587c-0.83-2.027-0.464-4.371,0.951-6.055l22.656-26.489
		c3.736-4.345,3.491-10.841-0.586-14.892l-18.529-18.555c-4.077-4.053-10.572-4.297-14.917-0.586l-26.489,22.656
		c-1.661,1.416-4.028,1.806-6.03,0.977l-27.587-11.45c-2.052-0.83-3.442-2.759-3.614-4.956l-2.686-34.717
		c-0.465-5.763-5.249-10.156-10.986-10.156H351.14c-5.737,0-10.521,4.396-10.962,10.156l-2.687,34.717
		c-0.17,2.197-1.587,4.126-3.637,4.956l-27.564,11.45c-2.052,0.83-4.37,0.439-6.055-0.977l-26.489-22.656
		c-4.37-3.711-10.863-3.467-14.917,0.586L240.3,209.006c-4.054,4.053-4.322,10.547-0.586,14.892l22.656,26.489
		c1.415,1.684,1.806,4.028,0.951,6.055l-11.427,27.587c-0.829,2.051-2.782,3.442-4.98,3.589l-34.741,2.709
		c-5.712,0.464-10.107,5.225-10.107,10.986v26.197c0,5.763,4.396,10.522,10.107,10.963l34.741,2.709
		c2.196,0.17,4.149,1.563,4.98,3.614l11.427,27.587c0.854,2.001,0.464,4.371-0.951,6.03l-22.656,26.514
		c-3.736,4.346-3.468,10.841,0.586,14.893l18.529,18.529c4.054,4.077,10.547,4.322,14.917,0.611l26.489-22.682
		c1.685-1.392,4.005-1.782,6.055-0.928l27.564,11.427c2.051,0.829,3.467,2.759,3.637,4.931l2.687,34.766
		c0.438,5.713,5.225,10.132,10.962,10.132h26.221c5.737,0,10.521-4.419,10.986-10.132l2.686-34.766
		c0.17-2.173,1.563-4.102,3.614-4.931l27.587-11.427c2.002-0.854,4.371-0.464,6.03,0.928l26.489,22.682
		c4.345,3.711,10.84,3.467,14.917-0.611l18.529-18.529c4.077-4.053,4.322-10.547,0.586-14.893l-22.656-26.514
		c-1.415-1.661-1.782-4.028-0.951-6.03l11.45-27.587c0.829-2.052,2.759-3.442,4.931-3.614L516.3,338.474z M364.248,369.236
		c-14.648,0-28.419-5.712-38.771-16.064s-16.04-24.122-16.04-38.745c0-14.648,5.688-28.419,16.04-38.771
		c10.352-10.376,24.122-16.064,38.771-16.064s28.419,5.689,38.771,16.064c10.352,10.352,16.04,24.122,16.04,38.771
		c0,14.623-5.688,28.394-16.04,38.745S378.897,369.236,364.248,369.236z"/>
</g>
</svg>
