<?xml version="1.0" encoding="utf-8"?>
<!-- Generator: Adobe Illustrator 16.0.0, SVG Export Plug-In . SVG Version: 6.00 Build 0)  -->
<!DOCTYPE svg PUBLIC "-//W3C//DTD SVG 1.1//EN" "http://www.w3.org/Graphics/SVG/1.1/DTD/svg11.dtd">
<svg version="1.1" id="Layer_1" xmlns="http://www.w3.org/2000/svg" xmlns:xlink="http://www.w3.org/1999/xlink" x="0px" y="0px"
	 width="320px" height="480px" viewBox="0 0 320 480" enable-background="new 0 0 320 480" xml:space="preserve">
<rect fill="#E7F7ED" width="320" height="480"/>
<g>
	<text transform="matrix(1 0 0 1 34.3789 200.3765)"><tspan x="0" y="0" fill="#013914" font-family="'Poppins-Medium'" font-size="28">annual diet plan</tspan><tspan x="2.897" y="29.6" fill="#013914" font-family="'Poppins-Medium'" font-size="28">for your health</tspan></text>
</g>
<g>
	<g opacity="0.4">
		
			<text transform="matrix(1 0 0 1 55.5898 357.8711)" fill="#013914" font-family="'Poppins-Medium'" font-size="18" letter-spacing="6">per day</text>
	</g>
	<g opacity="0.4">
		
			<text transform="matrix(1 0 0 1 55.144 280.4316)" fill="#013914" font-family="'Poppins-Medium'" font-size="18" letter-spacing="6">simply invest</text>
	</g>
	<g>
		<g>
			<g>
				<path fill="#013914" d="M75.603,287.203c11.089,0,17.065,6.337,17.065,14.258c0,6.912-4.32,10.585-7.921,11.809v0.288
					c5.256,1.729,8.857,5.761,8.857,12.673c0,8.857-6.336,15.193-17.354,15.193c-10.945,0-18.866-5.184-19.226-17.064h11.953
					c0.072,4.104,2.305,6.84,6.841,6.84c3.816,0,5.904-2.448,5.904-5.904c0-4.681-2.808-6.553-9.217-6.553h-2.304v-10.009h2.304
					c4.177,0,8.209-1.009,8.209-5.761c0-3.527-2.088-5.473-5.4-5.473c-3.96,0-5.4,2.881-5.617,5.761H57.673
					C58.105,292.893,64.874,287.203,75.603,287.203z"/>
				<path fill="#013914" d="M119.494,287.348c14.977,0,20.234,11.232,20.234,26.643c0,15.553-5.257,26.786-20.234,26.786
					c-14.978,0-20.234-11.233-20.234-26.786C99.26,298.58,104.517,287.348,119.494,287.348z M119.494,298.869
					c-7.273,0-8.137,7.057-8.137,15.121c0,8.353,0.864,15.266,8.137,15.266c7.272,0,8.137-6.913,8.137-15.266
					C127.631,305.926,126.767,298.869,119.494,298.869z"/>
				<path fill="#013914" d="M149.869,299.877h-7.128v-11.449h19.946v52.564h-12.817V299.877z"/>
				<path fill="#013914" d="M190.478,287.348c14.977,0,20.234,11.232,20.234,26.643c0,15.553-5.258,26.786-20.234,26.786
					s-20.234-11.233-20.234-26.786C170.243,298.58,175.501,287.348,190.478,287.348z M190.478,298.869
					c-7.273,0-8.137,7.057-8.137,15.121c0,8.353,0.863,15.266,8.137,15.266s8.137-6.913,8.137-15.266
					C198.614,305.926,197.751,298.869,190.478,298.869z"/>
			</g>
		</g>
		<g>
			<text transform="matrix(1 0 0 1 210.0391 308.3711)" fill="#013914" font-family="'Poppins-Medium'" font-size="28">tsh</text>
		</g>
	</g>
</g>
<g>
	<path fill="#013914" d="M35.934,146.296c0,4.418,3.582,8,8,8h233.109c4.418,0,8-3.582,8-8v-36.476c0-4.418-3.582-8-8-8H43.934
		c-4.418,0-8,3.582-8,8V146.296z"/>
</g>
<g>
	<g>
		<g>
			<g>
				<path fill="#00480F" d="M119.158,57.951c-0.099,0.473-0.275,0.916-0.504,1.337c-0.985,1.81-3.07,3.063-5.461,3.063
					c-2.39,0-4.476-1.253-5.461-3.063c-0.229-0.421-0.397-0.864-0.504-1.337h1.382c0.146,0.489,0.397,0.932,0.726,1.337
					c0.863,1.046,2.269,1.726,3.857,1.726s3.002-0.679,3.857-1.726c0.329-0.397,0.581-0.848,0.726-1.337H119.158z"/>
			</g>
			<g>
				<g>
					<path fill="#00480F" d="M96.573,36.533c0,0.091,0,0.183,0.008,0.275v-0.42C96.573,36.441,96.573,36.479,96.573,36.533z"/>
					<path fill="#00480F" d="M129.081,52.535c0,8.921-7.256,16.178-16.178,16.178c-8.784,0-15.956-7.035-16.169-15.773
						c-0.008-0.03-0.008-0.068-0.008-0.107v-0.046l-0.007-0.153v-0.153l-0.145-15.673v-0.535c0-0.114,0.007-0.221,0.007-0.336
						c0.313-7.974,6.89-14.359,14.94-14.359c2.833,0,5.484,0.794,7.745,2.169c1.298,0.787,2.467,1.772,3.46,2.91
						c2.33,2.635,3.743,6.095,3.743,9.876c0,2.009-0.397,3.926-1.123,5.675c-0.52-0.619-1.077-1.207-1.68-1.741
						c0.405-1.237,0.619-2.566,0.619-3.934c0-4.43-2.261-8.333-5.69-10.624c-1.161-0.779-2.459-1.375-3.85-1.734
						c-1.031-0.275-2.116-0.413-3.231-0.413c-6.989,0-12.687,5.637-12.763,12.611c-0.007,0.053-0.007,0.106-0.007,0.16
						c0,0.115,0,0.229,0.007,0.344l0.069,7.539v0.145l0.069,7.913l0.008,0.198c0.068,7.653,6.324,13.855,13.992,13.855
						c7.714,0,14-6.286,14-14c0-0.504-0.03-1.008-0.084-1.497c0.695-0.474,1.359-1.008,1.963-1.597
						C128.974,50.442,129.081,51.474,129.081,52.535z"/>
				</g>
				<path fill="#00480F" d="M128.103,46.99c-0.642-1.757-1.581-3.369-2.757-4.774c-0.52-0.619-1.077-1.207-1.681-1.741
					c-2.856-2.559-6.637-4.117-10.77-4.117c-2.597,0-5.057,0.619-7.233,1.711c-0.764,0.375-1.489,0.817-2.177,1.322
					c0.038,0.855,0.145,1.688,0.336,2.505c0.55,2.513,1.742,4.797,3.384,6.661c0.993,1.138,2.162,2.124,3.46,2.91
					c2.261,1.375,4.911,2.169,7.745,2.169c3.117,0,6.004-0.955,8.402-2.589c0.695-0.473,1.36-1.008,1.963-1.596
					C128.614,48.594,128.385,47.769,128.103,46.99z M115.187,51.03c-1.39-0.367-2.681-0.955-3.842-1.734
					c-2.949-1.971-5.041-5.141-5.561-8.807c2.085-1.245,4.522-1.956,7.119-1.956c3.842,0,7.325,1.551,9.853,4.071
					c0.55,0.542,1.054,1.13,1.497,1.757c0.634,0.878,1.161,1.84,1.581,2.856c-1.872-0.595-3.735-1.199-5.599-1.833
					c-2.368-0.81-4.728-1.635-7.05-2.59c2.154,1.283,4.384,2.444,6.622,3.597c1.91,0.978,3.819,1.925,5.751,2.857
					c-2.04,1.382-4.499,2.2-7.149,2.2C117.302,51.443,116.218,51.297,115.187,51.03z"/>
			</g>
		</g>
		<g>
			<g>
				<path fill="#010101" d="M145.174,53.062h-5.362V38.688h5.156c3.032,0,4.56,1.649,4.56,3.651c0,1.818-1.138,2.864-2.521,3.323
					c1.566,0.267,2.849,1.771,2.849,3.552C149.856,51.374,148.145,53.062,145.174,53.062z M144.799,40.23h-3.116v4.659h3.154
					c1.757,0,2.765-0.863,2.765-2.33C147.61,41.139,146.64,40.23,144.799,40.23z M144.944,46.44h-3.261v5.072h3.323
					c1.855,0,2.971-0.932,2.971-2.498C147.977,47.433,146.778,46.44,144.944,46.44z"/>
				<path fill="#010101" d="M152.14,38.641c0-0.725,0.558-1.275,1.284-1.275c0.679,0,1.237,0.558,1.237,1.275
					c0,0.726-0.558,1.284-1.237,1.284C152.697,39.925,152.14,39.367,152.14,38.641z M152.453,41.758h1.879v11.304h-1.879V41.758z"/>
				<path fill="#010101" d="M162.459,53.252c-3.201,0-5.629-2.268-5.629-5.858c0-3.567,2.521-5.82,5.713-5.82
					c3.215,0,5.713,2.246,5.713,5.82C168.256,50.977,165.674,53.252,162.459,53.252z M162.459,51.604
					c1.963,0,3.881-1.344,3.881-4.208c0-2.849-1.881-4.186-3.82-4.186c-1.979,0-3.773,1.344-3.773,4.186
					C158.747,50.259,160.495,51.604,162.459,51.604z"/>
				<path fill="#010101" d="M182.035,38.664v14.397h-1.879l-7.555-11.449v11.449h-1.879V38.664h1.879l7.555,11.427V38.664H182.035z"
					/>
				<path fill="#010101" d="M195.258,53.062h-1.879V51.39c-0.727,1.176-2.102,1.833-3.613,1.833c-2.598,0-4.645-1.611-4.645-4.85
					V41.75h1.857v6.378c0,2.292,1.26,3.468,3.154,3.468c1.939,0,3.238-1.199,3.238-3.628v-6.209h1.879v11.304H195.258
					L195.258,53.062z"/>
				<path fill="#010101" d="M198.848,43.308h-1.467v-1.55h1.467v-2.849h1.879v2.849h2.947v1.55h-2.947v6.66
					c0,1.116,0.412,1.505,1.566,1.505h1.381v1.588h-1.688c-2.002,0-3.139-0.824-3.139-3.093V43.308L198.848,43.308z"/>
				<path fill="#010101" d="M207.822,53.062h-1.879V41.758h1.879v1.833c0.641-1.26,1.855-2.04,3.65-2.04v1.94h-0.496
					c-1.795,0-3.154,0.802-3.154,3.422V53.062L207.822,53.062z"/>
				<path fill="#010101" d="M218.301,41.574c2.102,0,3.553,1.07,4.209,2.246v-2.062h1.895v11.304h-1.895v-2.1
					c-0.68,1.214-2.146,2.291-4.23,2.291c-3.01,0-5.348-2.375-5.348-5.881C212.939,43.843,215.27,41.574,218.301,41.574z
					 M218.668,43.202c-2.063,0-3.818,1.504-3.818,4.17c0,2.658,1.756,4.231,3.818,4.231s3.834-1.551,3.834-4.208
					C222.51,44.767,220.738,43.202,218.668,43.202z"/>
			</g>
		</g>
	</g>
</g>
<g>
	<path fill="#FFFFFF" d="M46.186,118.273h5.433l3.808,8.232l3.78-8.232h5.376l-6.804,13.16v6.496h-4.788v-6.496L46.186,118.273z"/>
	<path fill="#FFFFFF" d="M79.487,122.109h-7.252v3.976h6.412v3.696h-6.412v4.312h7.252v3.836h-12.04v-19.656h12.04V122.109z"/>
	<path fill="#FFFFFF" d="M91.98,118.273c4.815,0,7.224,2.772,7.224,6.188c0,2.464-1.344,4.788-4.368,5.684l4.536,7.784h-5.404
		l-4.088-7.42h-1.147v7.42h-4.788v-19.656H91.98z M91.7,122.249h-2.968v4.872H91.7c1.792,0,2.632-0.924,2.632-2.464
		C94.332,123.201,93.492,122.249,91.7,122.249z"/>
	<path fill="#FFFFFF" d="M111.003,130.873h-2.969v7.056h-4.788v-19.656h7.757c4.815,0,7.224,2.716,7.224,6.328
		C118.227,127.849,116.015,130.873,111.003,130.873z M110.639,127.065c1.903,0,2.716-0.952,2.716-2.464
		c0-1.512-0.813-2.464-2.716-2.464h-2.604v4.928H110.639z"/>
	<path fill="#FFFFFF" d="M136.651,130.873h-2.969v7.056h-4.788v-19.656h7.757c4.815,0,7.224,2.716,7.224,6.328
		C143.875,127.849,141.663,130.873,136.651,130.873z M136.287,127.065c1.903,0,2.716-0.952,2.716-2.464
		c0-1.512-0.813-2.464-2.716-2.464h-2.604v4.928H136.287z"/>
	<path fill="#FFFFFF" d="M155.127,118.273c4.815,0,7.224,2.772,7.224,6.188c0,2.464-1.344,4.788-4.368,5.684l4.536,7.784h-5.405
		l-4.088-7.42h-1.147v7.42h-4.788v-19.656H155.127z M154.847,122.249h-2.968v4.872h2.968c1.793,0,2.633-0.924,2.633-2.464
		C157.48,123.201,156.64,122.249,154.847,122.249z"/>
	<path fill="#FFFFFF" d="M175.318,138.125c-5.572,0-10.107-4.172-10.107-10.08c0-5.908,4.535-10.052,10.107-10.052
		c5.6,0,10.053,4.144,10.053,10.052C185.371,133.953,180.891,138.125,175.318,138.125z M175.318,133.757
		c3.137,0,5.18-2.268,5.18-5.712c0-3.5-2.043-5.712-5.18-5.712c-3.191,0-5.209,2.212-5.209,5.712
		C170.109,131.489,172.127,133.757,175.318,133.757z"/>
	<path fill="#FFFFFF" d="M207.361,124.489h-5.293c-0.727-1.316-2.07-2.016-3.863-2.016c-3.08,0-5.123,2.184-5.123,5.6
		c0,3.64,2.07,5.768,5.516,5.768c2.379,0,4.031-1.26,4.76-3.472h-6.076v-3.528h10.416v4.452c-1.008,3.388-4.285,6.776-9.465,6.776
		c-5.879,0-10.023-4.116-10.023-9.996s4.115-10.024,9.996-10.024C202.908,118.049,206.324,120.457,207.361,124.489z"/>
	<path fill="#FFFFFF" d="M219.709,118.273c4.816,0,7.225,2.772,7.225,6.188c0,2.464-1.344,4.788-4.369,5.684l4.537,7.784h-5.404
		l-4.088-7.42h-1.148v7.42h-4.787v-19.656H219.709z M219.43,122.249h-2.969v4.872h2.969c1.791,0,2.631-0.924,2.631-2.464
		C222.061,123.201,221.221,122.249,219.43,122.249z"/>
	<path fill="#FFFFFF" d="M243.299,134.457h-7.336l-1.176,3.472h-5.012l7.111-19.656h5.543l7.113,19.656h-5.068L243.299,134.457z
		 M239.631,123.565l-2.408,7.196h4.844L239.631,123.565z"/>
	<path fill="#FFFFFF" d="M252.531,118.273h5.654l5.518,13.608l5.459-13.608h5.629v19.656h-4.789v-11.788l-4.396,11.788h-3.863
		l-4.424-11.816v11.816h-4.787V118.273z"/>
</g>
<g>
	<rect x="39.198" y="386.674" fill="#013914" width="172.623" height="64.5"/>
	<g>
		<g>
			<path fill="#D9FDD3" d="M67.251,411.439c3.254,0,5.9,1.742,6.887,4.744h-3.381c-0.692-1.406-1.952-2.1-3.527-2.1
				c-2.561,0-4.388,1.869-4.388,4.851c0,2.96,1.827,4.851,4.388,4.851c1.575,0,2.835-0.693,3.527-2.121h3.381
				c-0.986,3.023-3.633,4.745-6.887,4.745c-4.221,0-7.433-3.087-7.433-7.475S63.031,411.439,67.251,411.439z"/>
			<path fill="#D9FDD3" d="M79.39,411.628v12.325h4.829v2.33h-7.769v-14.655H79.39z"/>
			<path fill="#D9FDD3" d="M95.252,423.49h-5.837l-0.966,2.793h-3.087l5.271-14.676h3.423l5.27,14.676h-3.107L95.252,423.49z
				 M92.333,415.008l-2.12,6.131h4.241L92.333,415.008z"/>
			<path fill="#D9FDD3" d="M100.978,411.628h2.939v14.655h-2.939V411.628z"/>
			<path fill="#D9FDD3" d="M106.886,411.628h3.338l4.661,10.897l4.661-10.897h3.317v14.655h-2.939v-9.532l-3.927,9.532h-2.225
				l-3.947-9.532v9.532h-2.939V411.628z"/>
			<g>
				<g>
					<path fill="#D9FDD3" d="M137.565,426.43c-4.136,0-7.517-3.107-7.517-7.516c0-4.389,3.381-7.496,7.517-7.496
						c4.179,0,7.495,3.107,7.495,7.496C145.06,423.322,141.722,426.43,137.565,426.43z M137.565,423.806
						c2.646,0,4.472-1.911,4.472-4.892c0-2.982-1.826-4.851-4.472-4.851c-2.667,0-4.493,1.868-4.493,4.851
						C133.072,421.895,134.898,423.806,137.565,423.806z"/>
				</g>
			</g>
			<path fill="#D9FDD3" d="M147.297,411.628h9.05V414h-6.11v3.759h4.683v2.331h-4.683v6.193h-2.939V411.628z"/>
			<path fill="#D9FDD3" d="M158.039,411.628h9.049V414h-6.11v3.759h4.682v2.331h-4.682v6.193h-2.939V411.628z"/>
			<path fill="#D9FDD3" d="M177.283,414h-5.563v3.675h4.934v2.331h-4.934v3.884h5.563v2.394h-8.502v-14.676h8.502V414z"/>
			<path fill="#D9FDD3" d="M185.424,411.628c3.527,0,5.291,2.036,5.291,4.493c0,1.785-0.986,3.59-3.338,4.221l3.506,5.941h-3.4
				l-3.234-5.711h-1.385v5.711h-2.939v-14.655H185.424z M185.318,414.063h-2.455v4.304h2.455c1.639,0,2.373-0.86,2.373-2.184
				C187.691,414.883,186.957,414.063,185.318,414.063z"/>
		</g>
	</g>
	<g>
		<rect x="217.857" y="386.674" fill="#D9FDD3" stroke="#013914" stroke-miterlimit="10" width="63.922" height="63.92"/>
		<rect x="223.336" y="392.151" fill="#013914" stroke="#013914" stroke-width="0.2" width="1.826" height="1.827"/>
		<rect x="223.336" y="393.979" fill="#013914" stroke="#013914" stroke-width="0.2" width="1.826" height="1.826"/>
		<rect x="223.336" y="395.806" fill="#013914" stroke="#013914" stroke-width="0.2" width="1.826" height="1.827"/>
		<rect x="223.336" y="397.633" fill="#013914" stroke="#013914" stroke-width="0.2" width="1.826" height="1.824"/>
		<rect x="223.336" y="399.457" fill="#013914" stroke="#013914" stroke-width="0.2" width="1.826" height="1.826"/>
		<rect x="223.336" y="401.283" fill="#013914" stroke="#013914" stroke-width="0.2" width="1.826" height="1.826"/>
		<rect x="223.336" y="403.109" fill="#013914" stroke="#013914" stroke-width="0.2" width="1.826" height="1.826"/>
		<rect x="223.336" y="406.764" fill="#013914" stroke="#013914" stroke-width="0.2" width="1.826" height="1.825"/>
		<rect x="223.336" y="410.415" fill="#013914" stroke="#013914" stroke-width="0.2" width="1.826" height="1.827"/>
		<rect x="223.336" y="414.067" fill="#013914" stroke="#013914" stroke-width="0.2" width="1.826" height="1.826"/>
		<rect x="223.336" y="417.72" fill="#013914" stroke="#013914" stroke-width="0.2" width="1.826" height="1.826"/>
		<rect x="223.336" y="421.374" fill="#013914" stroke="#013914" stroke-width="0.2" width="1.826" height="1.825"/>
		<rect x="223.336" y="425.025" fill="#013914" stroke="#013914" stroke-width="0.2" width="1.826" height="1.827"/>
		<rect x="223.336" y="428.679" fill="#013914" stroke="#013914" stroke-width="0.2" width="1.826" height="1.825"/>
		<rect x="223.336" y="432.332" fill="#013914" stroke="#013914" stroke-width="0.2" width="1.826" height="1.826"/>
		<rect x="223.336" y="434.158" fill="#013914" stroke="#013914" stroke-width="0.2" width="1.826" height="1.826"/>
		<rect x="223.336" y="435.984" fill="#013914" stroke="#013914" stroke-width="0.2" width="1.826" height="1.826"/>
		<rect x="223.336" y="437.811" fill="#013914" stroke="#013914" stroke-width="0.2" width="1.826" height="1.825"/>
		<rect x="223.336" y="439.636" fill="#013914" stroke="#013914" stroke-width="0.2" width="1.826" height="1.827"/>
		<rect x="223.336" y="441.463" fill="#013914" stroke="#013914" stroke-width="0.2" width="1.826" height="1.825"/>
		<rect x="223.336" y="443.288" fill="#013914" stroke="#013914" stroke-width="0.2" width="1.826" height="1.826"/>
		<rect x="225.164" y="392.151" fill="#013914" stroke="#013914" stroke-width="0.2" width="1.826" height="1.827"/>
		<rect x="225.164" y="403.109" fill="#013914" stroke="#013914" stroke-width="0.2" width="1.826" height="1.826"/>
		<rect x="225.164" y="406.764" fill="#013914" stroke="#013914" stroke-width="0.2" width="1.826" height="1.825"/>
		<rect x="225.164" y="412.242" fill="#013914" stroke="#013914" stroke-width="0.2" width="1.826" height="1.825"/>
		<rect x="225.164" y="415.894" fill="#013914" stroke="#013914" stroke-width="0.2" width="1.826" height="1.826"/>
		<rect x="225.164" y="417.72" fill="#013914" stroke="#013914" stroke-width="0.2" width="1.826" height="1.826"/>
		<rect x="225.164" y="421.374" fill="#013914" stroke="#013914" stroke-width="0.2" width="1.826" height="1.825"/>
		<rect x="225.164" y="426.853" fill="#013914" stroke="#013914" stroke-width="0.2" width="1.826" height="1.826"/>
		<rect x="225.164" y="432.332" fill="#013914" stroke="#013914" stroke-width="0.2" width="1.826" height="1.826"/>
		<rect x="225.164" y="443.288" fill="#013914" stroke="#013914" stroke-width="0.2" width="1.826" height="1.826"/>
		<rect x="226.99" y="392.151" fill="#013914" stroke="#013914" stroke-width="0.2" width="1.826" height="1.827"/>
		<rect x="226.99" y="395.806" fill="#013914" stroke="#013914" stroke-width="0.2" width="1.826" height="1.827"/>
		<rect x="226.99" y="397.633" fill="#013914" stroke="#013914" stroke-width="0.2" width="1.826" height="1.824"/>
		<rect x="226.99" y="399.457" fill="#013914" stroke="#013914" stroke-width="0.2" width="1.826" height="1.826"/>
		<rect x="226.99" y="403.109" fill="#013914" stroke="#013914" stroke-width="0.2" width="1.826" height="1.826"/>
		<rect x="226.99" y="406.764" fill="#013914" stroke="#013914" stroke-width="0.2" width="1.826" height="1.825"/>
		<rect x="226.99" y="408.589" fill="#013914" stroke="#013914" stroke-width="0.2" width="1.826" height="1.826"/>
		<rect x="226.99" y="410.415" fill="#013914" stroke="#013914" stroke-width="0.2" width="1.826" height="1.827"/>
		<rect x="226.99" y="412.242" fill="#013914" stroke="#013914" stroke-width="0.2" width="1.826" height="1.825"/>
		<rect x="226.99" y="414.067" fill="#013914" stroke="#013914" stroke-width="0.2" width="1.826" height="1.826"/>
		<rect x="226.99" y="417.72" fill="#013914" stroke="#013914" stroke-width="0.2" width="1.826" height="1.826"/>
		<rect x="226.99" y="419.548" fill="#013914" stroke="#013914" stroke-width="0.2" width="1.826" height="1.826"/>
		<rect x="226.99" y="425.025" fill="#013914" stroke="#013914" stroke-width="0.2" width="1.826" height="1.827"/>
		<rect x="226.99" y="426.853" fill="#013914" stroke="#013914" stroke-width="0.2" width="1.826" height="1.826"/>
		<rect x="226.99" y="432.332" fill="#013914" stroke="#013914" stroke-width="0.2" width="1.826" height="1.826"/>
		<rect x="226.99" y="435.984" fill="#013914" stroke="#013914" stroke-width="0.2" width="1.826" height="1.826"/>
		<rect x="226.99" y="437.811" fill="#013914" stroke="#013914" stroke-width="0.2" width="1.826" height="1.825"/>
		<rect x="226.99" y="439.636" fill="#013914" stroke="#013914" stroke-width="0.2" width="1.826" height="1.827"/>
		<rect x="226.99" y="443.288" fill="#013914" stroke="#013914" stroke-width="0.2" width="1.826" height="1.826"/>
		<rect x="228.816" y="392.151" fill="#013914" stroke="#013914" stroke-width="0.2" width="1.826" height="1.827"/>
		<rect x="228.816" y="395.806" fill="#013914" stroke="#013914" stroke-width="0.2" width="1.826" height="1.827"/>
		<rect x="228.816" y="397.633" fill="#013914" stroke="#013914" stroke-width="0.2" width="1.826" height="1.824"/>
		<rect x="228.816" y="399.457" fill="#013914" stroke="#013914" stroke-width="0.2" width="1.826" height="1.826"/>
		<rect x="228.816" y="403.109" fill="#013914" stroke="#013914" stroke-width="0.2" width="1.826" height="1.826"/>
		<rect x="228.816" y="408.589" fill="#013914" stroke="#013914" stroke-width="0.2" width="1.826" height="1.826"/>
		<rect x="228.816" y="417.72" fill="#013914" stroke="#013914" stroke-width="0.2" width="1.826" height="1.826"/>
		<rect x="228.816" y="421.374" fill="#013914" stroke="#013914" stroke-width="0.2" width="1.826" height="1.825"/>
		<rect x="228.816" y="426.853" fill="#013914" stroke="#013914" stroke-width="0.2" width="1.826" height="1.826"/>
		<rect x="228.816" y="432.332" fill="#013914" stroke="#013914" stroke-width="0.2" width="1.826" height="1.826"/>
		<rect x="228.816" y="435.984" fill="#013914" stroke="#013914" stroke-width="0.2" width="1.826" height="1.826"/>
		<rect x="228.816" y="437.811" fill="#013914" stroke="#013914" stroke-width="0.2" width="1.826" height="1.825"/>
		<rect x="228.816" y="439.636" fill="#013914" stroke="#013914" stroke-width="0.2" width="1.826" height="1.827"/>
		<rect x="228.816" y="443.288" fill="#013914" stroke="#013914" stroke-width="0.2" width="1.826" height="1.826"/>
		<rect x="230.643" y="392.151" fill="#013914" stroke="#013914" stroke-width="0.2" width="1.826" height="1.827"/>
		<rect x="230.643" y="395.806" fill="#013914" stroke="#013914" stroke-width="0.2" width="1.826" height="1.827"/>
		<rect x="230.643" y="397.633" fill="#013914" stroke="#013914" stroke-width="0.2" width="1.826" height="1.824"/>
		<rect x="230.643" y="399.457" fill="#013914" stroke="#013914" stroke-width="0.2" width="1.826" height="1.826"/>
		<rect x="230.643" y="403.109" fill="#013914" stroke="#013914" stroke-width="0.2" width="1.826" height="1.826"/>
		<rect x="230.643" y="406.764" fill="#013914" stroke="#013914" stroke-width="0.2" width="1.826" height="1.825"/>
		<rect x="230.643" y="410.415" fill="#013914" stroke="#013914" stroke-width="0.2" width="1.826" height="1.827"/>
		<rect x="230.643" y="412.242" fill="#013914" stroke="#013914" stroke-width="0.2" width="1.826" height="1.825"/>
		<rect x="230.643" y="414.067" fill="#013914" stroke="#013914" stroke-width="0.2" width="1.826" height="1.826"/>
		<rect x="230.643" y="417.72" fill="#013914" stroke="#013914" stroke-width="0.2" width="1.826" height="1.826"/>
		<rect x="230.643" y="421.374" fill="#013914" stroke="#013914" stroke-width="0.2" width="1.826" height="1.825"/>
		<rect x="230.643" y="425.025" fill="#013914" stroke="#013914" stroke-width="0.2" width="1.826" height="1.827"/>
		<rect x="230.643" y="432.332" fill="#013914" stroke="#013914" stroke-width="0.2" width="1.826" height="1.826"/>
		<rect x="230.643" y="435.984" fill="#013914" stroke="#013914" stroke-width="0.2" width="1.826" height="1.826"/>
		<rect x="230.643" y="437.811" fill="#013914" stroke="#013914" stroke-width="0.2" width="1.826" height="1.825"/>
		<rect x="230.643" y="439.636" fill="#013914" stroke="#013914" stroke-width="0.2" width="1.826" height="1.827"/>
		<rect x="230.643" y="443.288" fill="#013914" stroke="#013914" stroke-width="0.2" width="1.826" height="1.826"/>
		<rect x="232.469" y="392.151" fill="#013914" stroke="#013914" stroke-width="0.2" width="1.824" height="1.827"/>
		<rect x="232.469" y="403.109" fill="#013914" stroke="#013914" stroke-width="0.2" width="1.824" height="1.826"/>
		<rect x="232.469" y="406.764" fill="#013914" stroke="#013914" stroke-width="0.2" width="1.824" height="1.825"/>
		<rect x="232.469" y="410.415" fill="#013914" stroke="#013914" stroke-width="0.2" width="1.824" height="1.827"/>
		<rect x="232.469" y="412.242" fill="#013914" stroke="#013914" stroke-width="0.2" width="1.824" height="1.825"/>
		<rect x="232.469" y="415.894" fill="#013914" stroke="#013914" stroke-width="0.2" width="1.824" height="1.826"/>
		<rect x="232.469" y="417.72" fill="#013914" stroke="#013914" stroke-width="0.2" width="1.824" height="1.826"/>
		<rect x="232.469" y="432.332" fill="#013914" stroke="#013914" stroke-width="0.2" width="1.824" height="1.826"/>
		<rect x="232.469" y="443.288" fill="#013914" stroke="#013914" stroke-width="0.2" width="1.824" height="1.826"/>
		<rect x="234.293" y="392.151" fill="#013914" stroke="#013914" stroke-width="0.2" width="1.828" height="1.827"/>
		<rect x="234.293" y="393.979" fill="#013914" stroke="#013914" stroke-width="0.2" width="1.828" height="1.826"/>
		<rect x="234.293" y="395.806" fill="#013914" stroke="#013914" stroke-width="0.2" width="1.828" height="1.827"/>
		<rect x="234.293" y="397.633" fill="#013914" stroke="#013914" stroke-width="0.2" width="1.828" height="1.824"/>
		<rect x="234.293" y="399.457" fill="#013914" stroke="#013914" stroke-width="0.2" width="1.828" height="1.826"/>
		<rect x="234.293" y="401.283" fill="#013914" stroke="#013914" stroke-width="0.2" width="1.828" height="1.826"/>
		<rect x="234.293" y="403.109" fill="#013914" stroke="#013914" stroke-width="0.2" width="1.828" height="1.826"/>
		<rect x="234.293" y="406.764" fill="#013914" stroke="#013914" stroke-width="0.2" width="1.828" height="1.825"/>
		<rect x="234.293" y="410.415" fill="#013914" stroke="#013914" stroke-width="0.2" width="1.828" height="1.827"/>
		<rect x="234.293" y="414.067" fill="#013914" stroke="#013914" stroke-width="0.2" width="1.828" height="1.826"/>
		<rect x="234.293" y="417.72" fill="#013914" stroke="#013914" stroke-width="0.2" width="1.828" height="1.826"/>
		<rect x="234.293" y="421.374" fill="#013914" stroke="#013914" stroke-width="0.2" width="1.828" height="1.825"/>
		<rect x="234.293" y="425.025" fill="#013914" stroke="#013914" stroke-width="0.2" width="1.828" height="1.827"/>
		<rect x="234.293" y="428.679" fill="#013914" stroke="#013914" stroke-width="0.2" width="1.828" height="1.825"/>
		<rect x="234.293" y="432.332" fill="#013914" stroke="#013914" stroke-width="0.2" width="1.828" height="1.826"/>
		<rect x="234.293" y="434.158" fill="#013914" stroke="#013914" stroke-width="0.2" width="1.828" height="1.826"/>
		<rect x="234.293" y="435.984" fill="#013914" stroke="#013914" stroke-width="0.2" width="1.828" height="1.826"/>
		<rect x="234.293" y="437.811" fill="#013914" stroke="#013914" stroke-width="0.2" width="1.828" height="1.825"/>
		<rect x="234.293" y="439.636" fill="#013914" stroke="#013914" stroke-width="0.2" width="1.828" height="1.827"/>
		<rect x="234.293" y="441.463" fill="#013914" stroke="#013914" stroke-width="0.2" width="1.828" height="1.825"/>
		<rect x="234.293" y="443.288" fill="#013914" stroke="#013914" stroke-width="0.2" width="1.828" height="1.826"/>
		<rect x="236.121" y="406.764" fill="#013914" stroke="#013914" stroke-width="0.2" width="1.826" height="1.825"/>
		<rect x="236.121" y="408.589" fill="#013914" stroke="#013914" stroke-width="0.2" width="1.826" height="1.826"/>
		<rect x="236.121" y="412.242" fill="#013914" stroke="#013914" stroke-width="0.2" width="1.826" height="1.825"/>
		<rect x="236.121" y="414.067" fill="#013914" stroke="#013914" stroke-width="0.2" width="1.826" height="1.826"/>
		<rect x="236.121" y="417.72" fill="#013914" stroke="#013914" stroke-width="0.2" width="1.826" height="1.826"/>
		<rect x="236.121" y="425.025" fill="#013914" stroke="#013914" stroke-width="0.2" width="1.826" height="1.827"/>
		<rect x="236.121" y="428.679" fill="#013914" stroke="#013914" stroke-width="0.2" width="1.826" height="1.825"/>
		<rect x="237.949" y="395.806" fill="#013914" stroke="#013914" stroke-width="0.2" width="1.824" height="1.827"/>
		<rect x="237.949" y="403.109" fill="#013914" stroke="#013914" stroke-width="0.2" width="1.824" height="1.826"/>
		<rect x="237.949" y="404.936" fill="#013914" stroke="#013914" stroke-width="0.2" width="1.824" height="1.826"/>
		<rect x="237.949" y="406.764" fill="#013914" stroke="#013914" stroke-width="0.2" width="1.824" height="1.825"/>
		<rect x="237.949" y="408.589" fill="#013914" stroke="#013914" stroke-width="0.2" width="1.824" height="1.826"/>
		<rect x="237.949" y="410.415" fill="#013914" stroke="#013914" stroke-width="0.2" width="1.824" height="1.827"/>
		<rect x="237.949" y="412.242" fill="#013914" stroke="#013914" stroke-width="0.2" width="1.824" height="1.825"/>
		<rect x="237.949" y="417.72" fill="#013914" stroke="#013914" stroke-width="0.2" width="1.824" height="1.826"/>
		<rect x="237.949" y="421.374" fill="#013914" stroke="#013914" stroke-width="0.2" width="1.824" height="1.825"/>
		<rect x="237.949" y="425.025" fill="#013914" stroke="#013914" stroke-width="0.2" width="1.824" height="1.827"/>
		<rect x="237.949" y="426.853" fill="#013914" stroke="#013914" stroke-width="0.2" width="1.824" height="1.826"/>
		<rect x="237.949" y="430.504" fill="#013914" stroke="#013914" stroke-width="0.2" width="1.824" height="1.825"/>
		<rect x="237.949" y="432.332" fill="#013914" stroke="#013914" stroke-width="0.2" width="1.824" height="1.826"/>
		<rect x="237.949" y="434.158" fill="#013914" stroke="#013914" stroke-width="0.2" width="1.824" height="1.826"/>
		<rect x="237.949" y="435.984" fill="#013914" stroke="#013914" stroke-width="0.2" width="1.824" height="1.826"/>
		<rect x="237.949" y="439.636" fill="#013914" stroke="#013914" stroke-width="0.2" width="1.824" height="1.827"/>
		<rect x="237.949" y="441.463" fill="#013914" stroke="#013914" stroke-width="0.2" width="1.824" height="1.825"/>
		<rect x="237.949" y="443.288" fill="#013914" stroke="#013914" stroke-width="0.2" width="1.824" height="1.826"/>
		<rect x="239.773" y="393.979" fill="#013914" stroke="#013914" stroke-width="0.2" width="1.826" height="1.826"/>
		<rect x="239.773" y="397.633" fill="#013914" stroke="#013914" stroke-width="0.2" width="1.826" height="1.824"/>
		<rect x="239.773" y="399.457" fill="#013914" stroke="#013914" stroke-width="0.2" width="1.826" height="1.826"/>
		<rect x="239.773" y="408.589" fill="#013914" stroke="#013914" stroke-width="0.2" width="1.826" height="1.826"/>
		<rect x="239.773" y="412.242" fill="#013914" stroke="#013914" stroke-width="0.2" width="1.826" height="1.825"/>
		<rect x="239.773" y="415.894" fill="#013914" stroke="#013914" stroke-width="0.2" width="1.826" height="1.826"/>
		<rect x="239.773" y="417.72" fill="#013914" stroke="#013914" stroke-width="0.2" width="1.826" height="1.826"/>
		<rect x="239.773" y="425.025" fill="#013914" stroke="#013914" stroke-width="0.2" width="1.826" height="1.827"/>
		<rect x="239.773" y="426.853" fill="#013914" stroke="#013914" stroke-width="0.2" width="1.826" height="1.826"/>
		<rect x="239.773" y="432.332" fill="#013914" stroke="#013914" stroke-width="0.2" width="1.826" height="1.826"/>
		<rect x="239.773" y="434.158" fill="#013914" stroke="#013914" stroke-width="0.2" width="1.826" height="1.826"/>
		<rect x="239.773" y="439.636" fill="#013914" stroke="#013914" stroke-width="0.2" width="1.826" height="1.827"/>
		<rect x="241.6" y="392.151" fill="#013914" stroke="#013914" stroke-width="0.2" width="1.828" height="1.827"/>
		<rect x="241.6" y="401.283" fill="#013914" stroke="#013914" stroke-width="0.2" width="1.828" height="1.826"/>
		<rect x="241.6" y="403.109" fill="#013914" stroke="#013914" stroke-width="0.2" width="1.828" height="1.826"/>
		<rect x="241.6" y="410.415" fill="#013914" stroke="#013914" stroke-width="0.2" width="1.828" height="1.827"/>
		<rect x="241.6" y="412.242" fill="#013914" stroke="#013914" stroke-width="0.2" width="1.828" height="1.825"/>
		<rect x="241.6" y="414.067" fill="#013914" stroke="#013914" stroke-width="0.2" width="1.828" height="1.826"/>
		<rect x="241.6" y="415.894" fill="#013914" stroke="#013914" stroke-width="0.2" width="1.828" height="1.826"/>
		<rect x="241.6" y="419.548" fill="#013914" stroke="#013914" stroke-width="0.2" width="1.828" height="1.826"/>
		<rect x="241.6" y="426.853" fill="#013914" stroke="#013914" stroke-width="0.2" width="1.828" height="1.826"/>
		<rect x="241.6" y="430.504" fill="#013914" stroke="#013914" stroke-width="0.2" width="1.828" height="1.825"/>
		<rect x="241.6" y="432.332" fill="#013914" stroke="#013914" stroke-width="0.2" width="1.828" height="1.826"/>
		<rect x="241.6" y="435.984" fill="#013914" stroke="#013914" stroke-width="0.2" width="1.828" height="1.826"/>
		<rect x="241.6" y="437.811" fill="#013914" stroke="#013914" stroke-width="0.2" width="1.828" height="1.825"/>
		<rect x="241.6" y="439.636" fill="#013914" stroke="#013914" stroke-width="0.2" width="1.828" height="1.827"/>
		<rect x="243.428" y="395.806" fill="#013914" stroke="#013914" stroke-width="0.2" width="1.824" height="1.827"/>
		<rect x="243.428" y="401.283" fill="#013914" stroke="#013914" stroke-width="0.2" width="1.824" height="1.826"/>
		<rect x="243.428" y="404.936" fill="#013914" stroke="#013914" stroke-width="0.2" width="1.824" height="1.826"/>
		<rect x="243.428" y="408.589" fill="#013914" stroke="#013914" stroke-width="0.2" width="1.824" height="1.826"/>
		<rect x="243.428" y="410.415" fill="#013914" stroke="#013914" stroke-width="0.2" width="1.824" height="1.827"/>
		<rect x="243.428" y="414.067" fill="#013914" stroke="#013914" stroke-width="0.2" width="1.824" height="1.826"/>
		<rect x="243.428" y="415.894" fill="#013914" stroke="#013914" stroke-width="0.2" width="1.824" height="1.826"/>
		<rect x="243.428" y="419.548" fill="#013914" stroke="#013914" stroke-width="0.2" width="1.824" height="1.826"/>
		<rect x="243.428" y="423.199" fill="#013914" stroke="#013914" stroke-width="0.2" width="1.824" height="1.826"/>
		<rect x="243.428" y="425.025" fill="#013914" stroke="#013914" stroke-width="0.2" width="1.824" height="1.827"/>
		<rect x="243.428" y="428.679" fill="#013914" stroke="#013914" stroke-width="0.2" width="1.824" height="1.825"/>
		<rect x="243.428" y="430.504" fill="#013914" stroke="#013914" stroke-width="0.2" width="1.824" height="1.825"/>
		<rect x="243.428" y="434.158" fill="#013914" stroke="#013914" stroke-width="0.2" width="1.824" height="1.826"/>
		<rect x="243.428" y="437.811" fill="#013914" stroke="#013914" stroke-width="0.2" width="1.824" height="1.825"/>
		<rect x="243.428" y="439.636" fill="#013914" stroke="#013914" stroke-width="0.2" width="1.824" height="1.827"/>
		<rect x="243.428" y="443.288" fill="#013914" stroke="#013914" stroke-width="0.2" width="1.824" height="1.826"/>
		<rect x="245.252" y="397.633" fill="#013914" stroke="#013914" stroke-width="0.2" width="1.826" height="1.824"/>
		<rect x="245.252" y="399.457" fill="#013914" stroke="#013914" stroke-width="0.2" width="1.826" height="1.826"/>
		<rect x="245.252" y="401.283" fill="#013914" stroke="#013914" stroke-width="0.2" width="1.826" height="1.826"/>
		<rect x="245.252" y="403.109" fill="#013914" stroke="#013914" stroke-width="0.2" width="1.826" height="1.826"/>
		<rect x="245.252" y="406.764" fill="#013914" stroke="#013914" stroke-width="0.2" width="1.826" height="1.825"/>
		<rect x="245.252" y="408.589" fill="#013914" stroke="#013914" stroke-width="0.2" width="1.826" height="1.826"/>
		<rect x="245.252" y="410.415" fill="#013914" stroke="#013914" stroke-width="0.2" width="1.826" height="1.827"/>
		<rect x="245.252" y="412.242" fill="#013914" stroke="#013914" stroke-width="0.2" width="1.826" height="1.825"/>
		<rect x="245.252" y="421.374" fill="#013914" stroke="#013914" stroke-width="0.2" width="1.826" height="1.825"/>
		<rect x="245.252" y="423.199" fill="#013914" stroke="#013914" stroke-width="0.2" width="1.826" height="1.826"/>
		<rect x="245.252" y="425.025" fill="#013914" stroke="#013914" stroke-width="0.2" width="1.826" height="1.827"/>
		<rect x="245.252" y="426.853" fill="#013914" stroke="#013914" stroke-width="0.2" width="1.826" height="1.826"/>
		<rect x="245.252" y="435.984" fill="#013914" stroke="#013914" stroke-width="0.2" width="1.826" height="1.826"/>
		<rect x="245.252" y="437.811" fill="#013914" stroke="#013914" stroke-width="0.2" width="1.826" height="1.825"/>
		<rect x="245.252" y="439.636" fill="#013914" stroke="#013914" stroke-width="0.2" width="1.826" height="1.827"/>
		<rect x="245.252" y="441.463" fill="#013914" stroke="#013914" stroke-width="0.2" width="1.826" height="1.825"/>
		<rect x="247.078" y="393.979" fill="#013914" stroke="#013914" stroke-width="0.2" width="1.826" height="1.826"/>
		<rect x="247.078" y="397.633" fill="#013914" stroke="#013914" stroke-width="0.2" width="1.826" height="1.824"/>
		<rect x="247.078" y="399.457" fill="#013914" stroke="#013914" stroke-width="0.2" width="1.826" height="1.826"/>
		<rect x="247.078" y="408.589" fill="#013914" stroke="#013914" stroke-width="0.2" width="1.826" height="1.826"/>
		<rect x="247.078" y="412.242" fill="#013914" stroke="#013914" stroke-width="0.2" width="1.826" height="1.825"/>
		<rect x="247.078" y="417.72" fill="#013914" stroke="#013914" stroke-width="0.2" width="1.826" height="1.826"/>
		<rect x="247.078" y="423.199" fill="#013914" stroke="#013914" stroke-width="0.2" width="1.826" height="1.826"/>
		<rect x="247.078" y="426.853" fill="#013914" stroke="#013914" stroke-width="0.2" width="1.826" height="1.826"/>
		<rect x="247.078" y="432.332" fill="#013914" stroke="#013914" stroke-width="0.2" width="1.826" height="1.826"/>
		<rect x="247.078" y="437.811" fill="#013914" stroke="#013914" stroke-width="0.2" width="1.826" height="1.825"/>
		<rect x="247.078" y="441.463" fill="#013914" stroke="#013914" stroke-width="0.2" width="1.826" height="1.825"/>
		<rect x="248.904" y="392.151" fill="#013914" stroke="#013914" stroke-width="0.2" width="1.826" height="1.827"/>
		<rect x="248.904" y="401.283" fill="#013914" stroke="#013914" stroke-width="0.2" width="1.826" height="1.826"/>
		<rect x="248.904" y="403.109" fill="#013914" stroke="#013914" stroke-width="0.2" width="1.826" height="1.826"/>
		<rect x="248.904" y="410.415" fill="#013914" stroke="#013914" stroke-width="0.2" width="1.826" height="1.827"/>
		<rect x="248.904" y="412.242" fill="#013914" stroke="#013914" stroke-width="0.2" width="1.826" height="1.825"/>
		<rect x="248.904" y="414.067" fill="#013914" stroke="#013914" stroke-width="0.2" width="1.826" height="1.826"/>
		<rect x="248.904" y="415.894" fill="#013914" stroke="#013914" stroke-width="0.2" width="1.826" height="1.826"/>
		<rect x="248.904" y="425.025" fill="#013914" stroke="#013914" stroke-width="0.2" width="1.826" height="1.827"/>
		<rect x="248.904" y="426.853" fill="#013914" stroke="#013914" stroke-width="0.2" width="1.826" height="1.826"/>
		<rect x="248.904" y="428.679" fill="#013914" stroke="#013914" stroke-width="0.2" width="1.826" height="1.825"/>
		<rect x="248.904" y="430.504" fill="#013914" stroke="#013914" stroke-width="0.2" width="1.826" height="1.825"/>
		<rect x="248.904" y="439.636" fill="#013914" stroke="#013914" stroke-width="0.2" width="1.826" height="1.827"/>
		<rect x="248.904" y="441.463" fill="#013914" stroke="#013914" stroke-width="0.2" width="1.826" height="1.825"/>
		<rect x="248.904" y="443.288" fill="#013914" stroke="#013914" stroke-width="0.2" width="1.826" height="1.826"/>
		<rect x="250.732" y="395.806" fill="#013914" stroke="#013914" stroke-width="0.2" width="1.826" height="1.827"/>
		<rect x="250.732" y="401.283" fill="#013914" stroke="#013914" stroke-width="0.2" width="1.826" height="1.826"/>
		<rect x="250.732" y="406.764" fill="#013914" stroke="#013914" stroke-width="0.2" width="1.826" height="1.825"/>
		<rect x="250.732" y="412.242" fill="#013914" stroke="#013914" stroke-width="0.2" width="1.826" height="1.825"/>
		<rect x="250.732" y="426.853" fill="#013914" stroke="#013914" stroke-width="0.2" width="1.826" height="1.826"/>
		<rect x="250.732" y="434.158" fill="#013914" stroke="#013914" stroke-width="0.2" width="1.826" height="1.826"/>
		<rect x="250.732" y="435.984" fill="#013914" stroke="#013914" stroke-width="0.2" width="1.826" height="1.826"/>
		<rect x="250.732" y="443.288" fill="#013914" stroke="#013914" stroke-width="0.2" width="1.826" height="1.826"/>
		<rect x="252.559" y="399.457" fill="#013914" stroke="#013914" stroke-width="0.2" width="1.826" height="1.826"/>
		<rect x="252.559" y="401.283" fill="#013914" stroke="#013914" stroke-width="0.2" width="1.826" height="1.826"/>
		<rect x="252.559" y="403.109" fill="#013914" stroke="#013914" stroke-width="0.2" width="1.826" height="1.826"/>
		<rect x="252.559" y="404.936" fill="#013914" stroke="#013914" stroke-width="0.2" width="1.826" height="1.826"/>
		<rect x="252.559" y="406.764" fill="#013914" stroke="#013914" stroke-width="0.2" width="1.826" height="1.825"/>
		<rect x="252.559" y="410.415" fill="#013914" stroke="#013914" stroke-width="0.2" width="1.826" height="1.827"/>
		<rect x="252.559" y="415.894" fill="#013914" stroke="#013914" stroke-width="0.2" width="1.826" height="1.826"/>
		<rect x="252.559" y="417.72" fill="#013914" stroke="#013914" stroke-width="0.2" width="1.826" height="1.826"/>
		<rect x="252.559" y="423.199" fill="#013914" stroke="#013914" stroke-width="0.2" width="1.826" height="1.826"/>
		<rect x="252.559" y="426.853" fill="#013914" stroke="#013914" stroke-width="0.2" width="1.826" height="1.826"/>
		<rect x="252.559" y="428.679" fill="#013914" stroke="#013914" stroke-width="0.2" width="1.826" height="1.825"/>
		<rect x="252.559" y="430.504" fill="#013914" stroke="#013914" stroke-width="0.2" width="1.826" height="1.825"/>
		<rect x="252.559" y="437.811" fill="#013914" stroke="#013914" stroke-width="0.2" width="1.826" height="1.825"/>
		<rect x="252.559" y="441.463" fill="#013914" stroke="#013914" stroke-width="0.2" width="1.826" height="1.825"/>
		<rect x="252.559" y="443.288" fill="#013914" stroke="#013914" stroke-width="0.2" width="1.826" height="1.826"/>
		<rect x="254.385" y="393.979" fill="#013914" stroke="#013914" stroke-width="0.2" width="1.824" height="1.826"/>
		<rect x="254.385" y="401.283" fill="#013914" stroke="#013914" stroke-width="0.2" width="1.824" height="1.826"/>
		<rect x="254.385" y="404.936" fill="#013914" stroke="#013914" stroke-width="0.2" width="1.824" height="1.826"/>
		<rect x="254.385" y="406.764" fill="#013914" stroke="#013914" stroke-width="0.2" width="1.824" height="1.825"/>
		<rect x="254.385" y="408.589" fill="#013914" stroke="#013914" stroke-width="0.2" width="1.824" height="1.826"/>
		<rect x="254.385" y="412.242" fill="#013914" stroke="#013914" stroke-width="0.2" width="1.824" height="1.825"/>
		<rect x="254.385" y="414.067" fill="#013914" stroke="#013914" stroke-width="0.2" width="1.824" height="1.826"/>
		<rect x="254.385" y="415.894" fill="#013914" stroke="#013914" stroke-width="0.2" width="1.824" height="1.826"/>
		<rect x="254.385" y="417.72" fill="#013914" stroke="#013914" stroke-width="0.2" width="1.824" height="1.826"/>
		<rect x="254.385" y="419.548" fill="#013914" stroke="#013914" stroke-width="0.2" width="1.824" height="1.826"/>
		<rect x="254.385" y="421.374" fill="#013914" stroke="#013914" stroke-width="0.2" width="1.824" height="1.825"/>
		<rect x="254.385" y="425.025" fill="#013914" stroke="#013914" stroke-width="0.2" width="1.824" height="1.827"/>
		<rect x="254.385" y="426.853" fill="#013914" stroke="#013914" stroke-width="0.2" width="1.824" height="1.826"/>
		<rect x="254.385" y="428.679" fill="#013914" stroke="#013914" stroke-width="0.2" width="1.824" height="1.825"/>
		<rect x="254.385" y="434.158" fill="#013914" stroke="#013914" stroke-width="0.2" width="1.824" height="1.826"/>
		<rect x="254.385" y="435.984" fill="#013914" stroke="#013914" stroke-width="0.2" width="1.824" height="1.826"/>
		<rect x="254.385" y="439.636" fill="#013914" stroke="#013914" stroke-width="0.2" width="1.824" height="1.827"/>
		<rect x="254.385" y="441.463" fill="#013914" stroke="#013914" stroke-width="0.2" width="1.824" height="1.825"/>
		<rect x="254.385" y="443.288" fill="#013914" stroke="#013914" stroke-width="0.2" width="1.824" height="1.826"/>
		<rect x="256.209" y="392.151" fill="#013914" stroke="#013914" stroke-width="0.2" width="1.828" height="1.827"/>
		<rect x="256.209" y="397.633" fill="#013914" stroke="#013914" stroke-width="0.2" width="1.828" height="1.824"/>
		<rect x="256.209" y="403.109" fill="#013914" stroke="#013914" stroke-width="0.2" width="1.828" height="1.826"/>
		<rect x="256.209" y="408.589" fill="#013914" stroke="#013914" stroke-width="0.2" width="1.828" height="1.826"/>
		<rect x="256.209" y="410.415" fill="#013914" stroke="#013914" stroke-width="0.2" width="1.828" height="1.827"/>
		<rect x="256.209" y="415.894" fill="#013914" stroke="#013914" stroke-width="0.2" width="1.828" height="1.826"/>
		<rect x="256.209" y="417.72" fill="#013914" stroke="#013914" stroke-width="0.2" width="1.828" height="1.826"/>
		<rect x="256.209" y="419.548" fill="#013914" stroke="#013914" stroke-width="0.2" width="1.828" height="1.826"/>
		<rect x="256.209" y="421.374" fill="#013914" stroke="#013914" stroke-width="0.2" width="1.828" height="1.825"/>
		<rect x="256.209" y="432.332" fill="#013914" stroke="#013914" stroke-width="0.2" width="1.828" height="1.826"/>
		<rect x="256.209" y="434.158" fill="#013914" stroke="#013914" stroke-width="0.2" width="1.828" height="1.826"/>
		<rect x="256.209" y="441.463" fill="#013914" stroke="#013914" stroke-width="0.2" width="1.828" height="1.825"/>
		<rect x="256.209" y="443.288" fill="#013914" stroke="#013914" stroke-width="0.2" width="1.828" height="1.826"/>
		<rect x="258.037" y="392.151" fill="#013914" stroke="#013914" stroke-width="0.2" width="1.826" height="1.827"/>
		<rect x="258.037" y="393.979" fill="#013914" stroke="#013914" stroke-width="0.2" width="1.826" height="1.826"/>
		<rect x="258.037" y="399.457" fill="#013914" stroke="#013914" stroke-width="0.2" width="1.826" height="1.826"/>
		<rect x="258.037" y="401.283" fill="#013914" stroke="#013914" stroke-width="0.2" width="1.826" height="1.826"/>
		<rect x="258.037" y="406.764" fill="#013914" stroke="#013914" stroke-width="0.2" width="1.826" height="1.825"/>
		<rect x="258.037" y="412.242" fill="#013914" stroke="#013914" stroke-width="0.2" width="1.826" height="1.825"/>
		<rect x="258.037" y="414.067" fill="#013914" stroke="#013914" stroke-width="0.2" width="1.826" height="1.826"/>
		<rect x="258.037" y="419.548" fill="#013914" stroke="#013914" stroke-width="0.2" width="1.826" height="1.826"/>
		<rect x="258.037" y="421.374" fill="#013914" stroke="#013914" stroke-width="0.2" width="1.826" height="1.825"/>
		<rect x="258.037" y="432.332" fill="#013914" stroke="#013914" stroke-width="0.2" width="1.826" height="1.826"/>
		<rect x="258.037" y="437.811" fill="#013914" stroke="#013914" stroke-width="0.2" width="1.826" height="1.825"/>
		<rect x="258.037" y="439.636" fill="#013914" stroke="#013914" stroke-width="0.2" width="1.826" height="1.827"/>
		<rect x="258.037" y="441.463" fill="#013914" stroke="#013914" stroke-width="0.2" width="1.826" height="1.825"/>
		<rect x="259.863" y="393.979" fill="#013914" stroke="#013914" stroke-width="0.2" width="1.824" height="1.826"/>
		<rect x="259.863" y="395.806" fill="#013914" stroke="#013914" stroke-width="0.2" width="1.824" height="1.827"/>
		<rect x="259.863" y="397.633" fill="#013914" stroke="#013914" stroke-width="0.2" width="1.824" height="1.824"/>
		<rect x="259.863" y="403.109" fill="#013914" stroke="#013914" stroke-width="0.2" width="1.824" height="1.826"/>
		<rect x="259.863" y="404.936" fill="#013914" stroke="#013914" stroke-width="0.2" width="1.824" height="1.826"/>
		<rect x="259.863" y="406.764" fill="#013914" stroke="#013914" stroke-width="0.2" width="1.824" height="1.825"/>
		<rect x="259.863" y="408.589" fill="#013914" stroke="#013914" stroke-width="0.2" width="1.824" height="1.826"/>
		<rect x="259.863" y="414.067" fill="#013914" stroke="#013914" stroke-width="0.2" width="1.824" height="1.826"/>
		<rect x="259.863" y="415.894" fill="#013914" stroke="#013914" stroke-width="0.2" width="1.824" height="1.826"/>
		<rect x="259.863" y="417.72" fill="#013914" stroke="#013914" stroke-width="0.2" width="1.824" height="1.826"/>
		<rect x="259.863" y="421.374" fill="#013914" stroke="#013914" stroke-width="0.2" width="1.824" height="1.825"/>
		<rect x="259.863" y="423.199" fill="#013914" stroke="#013914" stroke-width="0.2" width="1.824" height="1.826"/>
		<rect x="259.863" y="428.679" fill="#013914" stroke="#013914" stroke-width="0.2" width="1.824" height="1.825"/>
		<rect x="259.863" y="430.504" fill="#013914" stroke="#013914" stroke-width="0.2" width="1.824" height="1.825"/>
		<rect x="259.863" y="432.332" fill="#013914" stroke="#013914" stroke-width="0.2" width="1.824" height="1.826"/>
		<rect x="259.863" y="434.158" fill="#013914" stroke="#013914" stroke-width="0.2" width="1.824" height="1.826"/>
		<rect x="259.863" y="435.984" fill="#013914" stroke="#013914" stroke-width="0.2" width="1.824" height="1.826"/>
		<rect x="259.863" y="437.811" fill="#013914" stroke="#013914" stroke-width="0.2" width="1.824" height="1.825"/>
		<rect x="259.863" y="441.463" fill="#013914" stroke="#013914" stroke-width="0.2" width="1.824" height="1.825"/>
		<rect x="259.863" y="443.288" fill="#013914" stroke="#013914" stroke-width="0.2" width="1.824" height="1.826"/>
		<rect x="261.688" y="406.764" fill="#013914" stroke="#013914" stroke-width="0.2" width="1.826" height="1.825"/>
		<rect x="261.688" y="410.415" fill="#013914" stroke="#013914" stroke-width="0.2" width="1.826" height="1.827"/>
		<rect x="261.688" y="414.067" fill="#013914" stroke="#013914" stroke-width="0.2" width="1.826" height="1.826"/>
		<rect x="261.688" y="417.72" fill="#013914" stroke="#013914" stroke-width="0.2" width="1.826" height="1.826"/>
		<rect x="261.688" y="419.548" fill="#013914" stroke="#013914" stroke-width="0.2" width="1.826" height="1.826"/>
		<rect x="261.688" y="421.374" fill="#013914" stroke="#013914" stroke-width="0.2" width="1.826" height="1.825"/>
		<rect x="261.688" y="426.853" fill="#013914" stroke="#013914" stroke-width="0.2" width="1.826" height="1.826"/>
		<rect x="261.688" y="428.679" fill="#013914" stroke="#013914" stroke-width="0.2" width="1.826" height="1.825"/>
		<rect x="261.688" y="435.984" fill="#013914" stroke="#013914" stroke-width="0.2" width="1.826" height="1.826"/>
		<rect x="261.688" y="441.463" fill="#013914" stroke="#013914" stroke-width="0.2" width="1.826" height="1.825"/>
		<rect x="261.688" y="443.288" fill="#013914" stroke="#013914" stroke-width="0.2" width="1.826" height="1.826"/>
		<rect x="263.516" y="392.151" fill="#013914" stroke="#013914" stroke-width="0.2" width="1.828" height="1.827"/>
		<rect x="263.516" y="393.979" fill="#013914" stroke="#013914" stroke-width="0.2" width="1.828" height="1.826"/>
		<rect x="263.516" y="395.806" fill="#013914" stroke="#013914" stroke-width="0.2" width="1.828" height="1.827"/>
		<rect x="263.516" y="397.633" fill="#013914" stroke="#013914" stroke-width="0.2" width="1.828" height="1.824"/>
		<rect x="263.516" y="399.457" fill="#013914" stroke="#013914" stroke-width="0.2" width="1.828" height="1.826"/>
		<rect x="263.516" y="401.283" fill="#013914" stroke="#013914" stroke-width="0.2" width="1.828" height="1.826"/>
		<rect x="263.516" y="403.109" fill="#013914" stroke="#013914" stroke-width="0.2" width="1.828" height="1.826"/>
		<rect x="263.516" y="406.764" fill="#013914" stroke="#013914" stroke-width="0.2" width="1.828" height="1.825"/>
		<rect x="263.516" y="408.589" fill="#013914" stroke="#013914" stroke-width="0.2" width="1.828" height="1.826"/>
		<rect x="263.516" y="410.415" fill="#013914" stroke="#013914" stroke-width="0.2" width="1.828" height="1.827"/>
		<rect x="263.516" y="414.067" fill="#013914" stroke="#013914" stroke-width="0.2" width="1.828" height="1.826"/>
		<rect x="263.516" y="415.894" fill="#013914" stroke="#013914" stroke-width="0.2" width="1.828" height="1.826"/>
		<rect x="263.516" y="417.72" fill="#013914" stroke="#013914" stroke-width="0.2" width="1.828" height="1.826"/>
		<rect x="263.516" y="421.374" fill="#013914" stroke="#013914" stroke-width="0.2" width="1.828" height="1.825"/>
		<rect x="263.516" y="423.199" fill="#013914" stroke="#013914" stroke-width="0.2" width="1.828" height="1.826"/>
		<rect x="263.516" y="425.025" fill="#013914" stroke="#013914" stroke-width="0.2" width="1.828" height="1.827"/>
		<rect x="263.516" y="426.853" fill="#013914" stroke="#013914" stroke-width="0.2" width="1.828" height="1.826"/>
		<rect x="263.516" y="428.679" fill="#013914" stroke="#013914" stroke-width="0.2" width="1.828" height="1.825"/>
		<rect x="263.516" y="432.332" fill="#013914" stroke="#013914" stroke-width="0.2" width="1.828" height="1.826"/>
		<rect x="263.516" y="435.984" fill="#013914" stroke="#013914" stroke-width="0.2" width="1.828" height="1.826"/>
		<rect x="263.516" y="443.288" fill="#013914" stroke="#013914" stroke-width="0.2" width="1.828" height="1.826"/>
		<rect x="265.344" y="392.151" fill="#013914" stroke="#013914" stroke-width="0.2" width="1.826" height="1.827"/>
		<rect x="265.344" y="403.109" fill="#013914" stroke="#013914" stroke-width="0.2" width="1.826" height="1.826"/>
		<rect x="265.344" y="417.72" fill="#013914" stroke="#013914" stroke-width="0.2" width="1.826" height="1.826"/>
		<rect x="265.344" y="425.025" fill="#013914" stroke="#013914" stroke-width="0.2" width="1.826" height="1.827"/>
		<rect x="265.344" y="426.853" fill="#013914" stroke="#013914" stroke-width="0.2" width="1.826" height="1.826"/>
		<rect x="265.344" y="428.679" fill="#013914" stroke="#013914" stroke-width="0.2" width="1.826" height="1.825"/>
		<rect x="265.344" y="435.984" fill="#013914" stroke="#013914" stroke-width="0.2" width="1.826" height="1.826"/>
		<rect x="265.344" y="437.811" fill="#013914" stroke="#013914" stroke-width="0.2" width="1.826" height="1.825"/>
		<rect x="265.344" y="439.636" fill="#013914" stroke="#013914" stroke-width="0.2" width="1.826" height="1.827"/>
		<rect x="265.344" y="441.463" fill="#013914" stroke="#013914" stroke-width="0.2" width="1.826" height="1.825"/>
		<rect x="267.17" y="392.151" fill="#013914" stroke="#013914" stroke-width="0.2" width="1.824" height="1.827"/>
		<rect x="267.17" y="395.806" fill="#013914" stroke="#013914" stroke-width="0.2" width="1.824" height="1.827"/>
		<rect x="267.17" y="397.633" fill="#013914" stroke="#013914" stroke-width="0.2" width="1.824" height="1.824"/>
		<rect x="267.17" y="399.457" fill="#013914" stroke="#013914" stroke-width="0.2" width="1.824" height="1.826"/>
		<rect x="267.17" y="403.109" fill="#013914" stroke="#013914" stroke-width="0.2" width="1.824" height="1.826"/>
		<rect x="267.17" y="412.242" fill="#013914" stroke="#013914" stroke-width="0.2" width="1.824" height="1.825"/>
		<rect x="267.17" y="419.548" fill="#013914" stroke="#013914" stroke-width="0.2" width="1.824" height="1.826"/>
		<rect x="267.17" y="425.025" fill="#013914" stroke="#013914" stroke-width="0.2" width="1.824" height="1.827"/>
		<rect x="267.17" y="426.853" fill="#013914" stroke="#013914" stroke-width="0.2" width="1.824" height="1.826"/>
		<rect x="267.17" y="428.679" fill="#013914" stroke="#013914" stroke-width="0.2" width="1.824" height="1.825"/>
		<rect x="267.17" y="430.504" fill="#013914" stroke="#013914" stroke-width="0.2" width="1.824" height="1.825"/>
		<rect x="267.17" y="432.332" fill="#013914" stroke="#013914" stroke-width="0.2" width="1.824" height="1.826"/>
		<rect x="267.17" y="434.158" fill="#013914" stroke="#013914" stroke-width="0.2" width="1.824" height="1.826"/>
		<rect x="267.17" y="435.984" fill="#013914" stroke="#013914" stroke-width="0.2" width="1.824" height="1.826"/>
		<rect x="267.17" y="437.811" fill="#013914" stroke="#013914" stroke-width="0.2" width="1.824" height="1.825"/>
		<rect x="267.17" y="439.636" fill="#013914" stroke="#013914" stroke-width="0.2" width="1.824" height="1.827"/>
		<rect x="267.17" y="441.463" fill="#013914" stroke="#013914" stroke-width="0.2" width="1.824" height="1.825"/>
		<rect x="267.17" y="443.288" fill="#013914" stroke="#013914" stroke-width="0.2" width="1.824" height="1.826"/>
		<rect x="268.994" y="392.151" fill="#013914" stroke="#013914" stroke-width="0.2" width="1.826" height="1.827"/>
		<rect x="268.994" y="395.806" fill="#013914" stroke="#013914" stroke-width="0.2" width="1.826" height="1.827"/>
		<rect x="268.994" y="397.633" fill="#013914" stroke="#013914" stroke-width="0.2" width="1.826" height="1.824"/>
		<rect x="268.994" y="399.457" fill="#013914" stroke="#013914" stroke-width="0.2" width="1.826" height="1.826"/>
		<rect x="268.994" y="403.109" fill="#013914" stroke="#013914" stroke-width="0.2" width="1.826" height="1.826"/>
		<rect x="268.994" y="408.589" fill="#013914" stroke="#013914" stroke-width="0.2" width="1.826" height="1.826"/>
		<rect x="268.994" y="414.067" fill="#013914" stroke="#013914" stroke-width="0.2" width="1.826" height="1.826"/>
		<rect x="268.994" y="415.894" fill="#013914" stroke="#013914" stroke-width="0.2" width="1.826" height="1.826"/>
		<rect x="268.994" y="417.72" fill="#013914" stroke="#013914" stroke-width="0.2" width="1.826" height="1.826"/>
		<rect x="268.994" y="419.548" fill="#013914" stroke="#013914" stroke-width="0.2" width="1.826" height="1.826"/>
		<rect x="268.994" y="421.374" fill="#013914" stroke="#013914" stroke-width="0.2" width="1.826" height="1.825"/>
		<rect x="268.994" y="423.199" fill="#013914" stroke="#013914" stroke-width="0.2" width="1.826" height="1.826"/>
		<rect x="268.994" y="426.853" fill="#013914" stroke="#013914" stroke-width="0.2" width="1.826" height="1.826"/>
		<rect x="268.994" y="432.332" fill="#013914" stroke="#013914" stroke-width="0.2" width="1.826" height="1.826"/>
		<rect x="268.994" y="434.158" fill="#013914" stroke="#013914" stroke-width="0.2" width="1.826" height="1.826"/>
		<rect x="268.994" y="439.636" fill="#013914" stroke="#013914" stroke-width="0.2" width="1.826" height="1.827"/>
		<rect x="270.82" y="392.151" fill="#013914" stroke="#013914" stroke-width="0.2" width="1.828" height="1.827"/>
		<rect x="270.82" y="395.806" fill="#013914" stroke="#013914" stroke-width="0.2" width="1.828" height="1.827"/>
		<rect x="270.82" y="397.633" fill="#013914" stroke="#013914" stroke-width="0.2" width="1.828" height="1.824"/>
		<rect x="270.82" y="399.457" fill="#013914" stroke="#013914" stroke-width="0.2" width="1.828" height="1.826"/>
		<rect x="270.82" y="403.109" fill="#013914" stroke="#013914" stroke-width="0.2" width="1.828" height="1.826"/>
		<rect x="270.82" y="406.764" fill="#013914" stroke="#013914" stroke-width="0.2" width="1.828" height="1.825"/>
		<rect x="270.82" y="410.415" fill="#013914" stroke="#013914" stroke-width="0.2" width="1.828" height="1.827"/>
		<rect x="270.82" y="423.199" fill="#013914" stroke="#013914" stroke-width="0.2" width="1.828" height="1.826"/>
		<rect x="270.82" y="430.504" fill="#013914" stroke="#013914" stroke-width="0.2" width="1.828" height="1.825"/>
		<rect x="270.82" y="437.811" fill="#013914" stroke="#013914" stroke-width="0.2" width="1.828" height="1.825"/>
		<rect x="272.648" y="392.151" fill="#013914" stroke="#013914" stroke-width="0.2" width="1.824" height="1.827"/>
		<rect x="272.648" y="403.109" fill="#013914" stroke="#013914" stroke-width="0.2" width="1.824" height="1.826"/>
		<rect x="272.648" y="410.415" fill="#013914" stroke="#013914" stroke-width="0.2" width="1.824" height="1.827"/>
		<rect x="272.648" y="412.242" fill="#013914" stroke="#013914" stroke-width="0.2" width="1.824" height="1.825"/>
		<rect x="272.648" y="414.067" fill="#013914" stroke="#013914" stroke-width="0.2" width="1.824" height="1.826"/>
		<rect x="272.648" y="417.72" fill="#013914" stroke="#013914" stroke-width="0.2" width="1.824" height="1.826"/>
		<rect x="272.648" y="419.548" fill="#013914" stroke="#013914" stroke-width="0.2" width="1.824" height="1.826"/>
		<rect x="272.648" y="421.374" fill="#013914" stroke="#013914" stroke-width="0.2" width="1.824" height="1.825"/>
		<rect x="272.648" y="425.025" fill="#013914" stroke="#013914" stroke-width="0.2" width="1.824" height="1.827"/>
		<rect x="272.648" y="426.853" fill="#013914" stroke="#013914" stroke-width="0.2" width="1.824" height="1.826"/>
		<rect x="272.648" y="430.504" fill="#013914" stroke="#013914" stroke-width="0.2" width="1.824" height="1.825"/>
		<rect x="272.648" y="432.332" fill="#013914" stroke="#013914" stroke-width="0.2" width="1.824" height="1.826"/>
		<rect x="272.648" y="437.811" fill="#013914" stroke="#013914" stroke-width="0.2" width="1.824" height="1.825"/>
		<rect x="272.648" y="441.463" fill="#013914" stroke="#013914" stroke-width="0.2" width="1.824" height="1.825"/>
		<rect x="272.648" y="443.288" fill="#013914" stroke="#013914" stroke-width="0.2" width="1.824" height="1.826"/>
		<rect x="274.473" y="392.151" fill="#013914" stroke="#013914" stroke-width="0.2" width="1.826" height="1.827"/>
		<rect x="274.473" y="393.979" fill="#013914" stroke="#013914" stroke-width="0.2" width="1.826" height="1.826"/>
		<rect x="274.473" y="395.806" fill="#013914" stroke="#013914" stroke-width="0.2" width="1.826" height="1.827"/>
		<rect x="274.473" y="397.633" fill="#013914" stroke="#013914" stroke-width="0.2" width="1.826" height="1.824"/>
		<rect x="274.473" y="399.457" fill="#013914" stroke="#013914" stroke-width="0.2" width="1.826" height="1.826"/>
		<rect x="274.473" y="401.283" fill="#013914" stroke="#013914" stroke-width="0.2" width="1.826" height="1.826"/>
		<rect x="274.473" y="403.109" fill="#013914" stroke="#013914" stroke-width="0.2" width="1.826" height="1.826"/>
		<rect x="274.473" y="408.589" fill="#013914" stroke="#013914" stroke-width="0.2" width="1.826" height="1.826"/>
		<rect x="274.473" y="410.415" fill="#013914" stroke="#013914" stroke-width="0.2" width="1.826" height="1.827"/>
		<rect x="274.473" y="414.067" fill="#013914" stroke="#013914" stroke-width="0.2" width="1.826" height="1.826"/>
		<rect x="274.473" y="415.894" fill="#013914" stroke="#013914" stroke-width="0.2" width="1.826" height="1.826"/>
		<rect x="274.473" y="417.72" fill="#013914" stroke="#013914" stroke-width="0.2" width="1.826" height="1.826"/>
		<rect x="274.473" y="421.374" fill="#013914" stroke="#013914" stroke-width="0.2" width="1.826" height="1.825"/>
		<rect x="274.473" y="423.199" fill="#013914" stroke="#013914" stroke-width="0.2" width="1.826" height="1.826"/>
		<rect x="274.473" y="425.025" fill="#013914" stroke="#013914" stroke-width="0.2" width="1.826" height="1.827"/>
		<rect x="274.473" y="430.504" fill="#013914" stroke="#013914" stroke-width="0.2" width="1.826" height="1.825"/>
		<rect x="274.473" y="432.332" fill="#013914" stroke="#013914" stroke-width="0.2" width="1.826" height="1.826"/>
		<rect x="274.473" y="434.158" fill="#013914" stroke="#013914" stroke-width="0.2" width="1.826" height="1.826"/>
		<rect x="274.473" y="435.984" fill="#013914" stroke="#013914" stroke-width="0.2" width="1.826" height="1.826"/>
		<rect x="274.473" y="437.811" fill="#013914" stroke="#013914" stroke-width="0.2" width="1.826" height="1.825"/>
		<rect x="274.473" y="439.636" fill="#013914" stroke="#013914" stroke-width="0.2" width="1.826" height="1.827"/>
		<rect x="274.473" y="443.288" fill="#013914" stroke="#013914" stroke-width="0.2" width="1.826" height="1.826"/>
	</g>
</g>
<g>
	<g opacity="0.1">
		<g>
			<path fill="#00480F" d="M292.574,342.516c-0.043,0.206-0.119,0.399-0.219,0.582c-0.43,0.789-1.339,1.335-2.381,1.335
				s-1.95-0.546-2.38-1.335c-0.101-0.183-0.174-0.376-0.22-0.582h0.603c0.063,0.213,0.173,0.405,0.315,0.582
				c0.377,0.456,0.989,0.753,1.682,0.753s1.309-0.297,1.682-0.753c0.143-0.173,0.253-0.369,0.315-0.582H292.574z"/>
		</g>
		<g>
			<g>
				<path fill="#00480F" d="M282.73,333.18c0,0.04,0,0.08,0.003,0.12v-0.184C282.73,333.14,282.73,333.156,282.73,333.18z"/>
				<path fill="#00480F" d="M296.899,340.154c0,3.889-3.163,7.052-7.051,7.052c-3.829,0-6.955-3.066-7.048-6.875
					c-0.004-0.013-0.004-0.03-0.004-0.047v-0.02l-0.003-0.066v-0.067l-0.063-6.831v-0.233c0-0.05,0.003-0.096,0.003-0.146
					c0.137-3.476,3.004-6.259,6.513-6.259c1.234,0,2.391,0.346,3.375,0.945c0.566,0.343,1.076,0.772,1.509,1.269
					c1.016,1.148,1.631,2.656,1.631,4.305c0,0.876-0.173,1.711-0.489,2.474c-0.227-0.27-0.469-0.525-0.732-0.759
					c0.177-0.539,0.271-1.119,0.271-1.715c0-1.931-0.986-3.632-2.48-4.631c-0.506-0.34-1.072-0.6-1.679-0.756
					c-0.449-0.12-0.922-0.18-1.408-0.18c-3.046,0-5.529,2.457-5.563,5.497c-0.004,0.023-0.004,0.046-0.004,0.069
					c0,0.05,0,0.1,0.004,0.149l0.029,3.286v0.063l0.03,3.449l0.004,0.087c0.029,3.336,2.756,6.039,6.099,6.039
					c3.362,0,6.103-2.74,6.103-6.103c0-0.22-0.014-0.439-0.037-0.652c0.304-0.206,0.593-0.439,0.856-0.696
					C296.854,339.242,296.899,339.692,296.899,340.154z"/>
			</g>
			<path fill="#00480F" d="M296.474,337.737c-0.28-0.766-0.689-1.468-1.202-2.08c-0.227-0.271-0.469-0.526-0.732-0.76
				c-1.245-1.115-2.893-1.794-4.693-1.794c-1.133,0-2.204,0.27-3.153,0.745c-0.333,0.164-0.649,0.356-0.948,0.576
				c0.016,0.373,0.063,0.736,0.146,1.092c0.238,1.096,0.759,2.091,1.474,2.904c0.434,0.495,0.942,0.925,1.509,1.268
				c0.985,0.6,2.141,0.945,3.376,0.945c1.358,0,2.616-0.416,3.662-1.128c0.303-0.207,0.593-0.439,0.855-0.696
				C296.697,338.437,296.597,338.077,296.474,337.737z M290.844,339.499c-0.605-0.16-1.169-0.416-1.674-0.756
				c-1.286-0.859-2.197-2.241-2.425-3.839c0.909-0.543,1.972-0.852,3.104-0.852c1.674,0,3.192,0.676,4.294,1.773
				c0.24,0.237,0.46,0.493,0.653,0.767c0.276,0.383,0.506,0.802,0.688,1.244c-0.815-0.259-1.628-0.522-2.439-0.798
				c-1.032-0.354-2.062-0.713-3.073-1.129c0.938,0.559,1.911,1.065,2.887,1.567c0.832,0.427,1.664,0.84,2.507,1.245
				c-0.89,0.603-1.961,0.959-3.116,0.959C291.766,339.679,291.293,339.615,290.844,339.499z"/>
		</g>
	</g>
	<g opacity="0.1">
		<g>
			<path fill="#00480F" d="M186.574,267.516c-0.043,0.206-0.119,0.399-0.219,0.582c-0.43,0.789-1.339,1.335-2.381,1.335
				s-1.95-0.546-2.38-1.335c-0.101-0.183-0.174-0.376-0.22-0.582h0.603c0.063,0.213,0.173,0.405,0.315,0.582
				c0.377,0.456,0.989,0.753,1.682,0.753s1.309-0.297,1.682-0.753c0.143-0.173,0.253-0.369,0.315-0.582H186.574z"/>
		</g>
		<g>
			<g>
				<path fill="#00480F" d="M176.73,258.18c0,0.04,0,0.08,0.003,0.12v-0.184C176.73,258.14,176.73,258.156,176.73,258.18z"/>
				<path fill="#00480F" d="M190.899,265.154c0,3.889-3.163,7.052-7.051,7.052c-3.829,0-6.955-3.066-7.048-6.875
					c-0.004-0.013-0.004-0.03-0.004-0.047v-0.02l-0.003-0.066v-0.067l-0.063-6.831v-0.233c0-0.05,0.003-0.096,0.003-0.146
					c0.137-3.476,3.004-6.259,6.513-6.259c1.234,0,2.391,0.346,3.375,0.945c0.566,0.343,1.076,0.772,1.509,1.269
					c1.016,1.148,1.631,2.656,1.631,4.305c0,0.876-0.173,1.711-0.489,2.474c-0.227-0.27-0.469-0.525-0.732-0.759
					c0.177-0.539,0.271-1.119,0.271-1.715c0-1.931-0.986-3.632-2.48-4.631c-0.506-0.34-1.072-0.6-1.679-0.756
					c-0.449-0.12-0.922-0.18-1.408-0.18c-3.046,0-5.529,2.457-5.563,5.497c-0.004,0.023-0.004,0.046-0.004,0.069
					c0,0.05,0,0.1,0.004,0.149l0.029,3.286v0.063l0.03,3.449l0.004,0.087c0.029,3.336,2.756,6.039,6.099,6.039
					c3.362,0,6.103-2.74,6.103-6.103c0-0.22-0.014-0.439-0.037-0.652c0.304-0.206,0.593-0.439,0.856-0.696
					C190.854,264.242,190.899,264.692,190.899,265.154z"/>
			</g>
			<path fill="#00480F" d="M190.474,262.737c-0.28-0.766-0.689-1.468-1.202-2.08c-0.227-0.271-0.469-0.526-0.732-0.76
				c-1.245-1.115-2.893-1.794-4.693-1.794c-1.133,0-2.204,0.27-3.153,0.745c-0.333,0.164-0.649,0.356-0.948,0.576
				c0.016,0.373,0.063,0.736,0.146,1.092c0.238,1.096,0.759,2.091,1.474,2.904c0.434,0.495,0.942,0.925,1.509,1.268
				c0.985,0.6,2.141,0.945,3.376,0.945c1.358,0,2.616-0.416,3.662-1.128c0.303-0.207,0.593-0.439,0.855-0.696
				C190.697,263.437,190.597,263.077,190.474,262.737z M184.844,264.499c-0.605-0.16-1.169-0.416-1.674-0.756
				c-1.286-0.859-2.197-2.241-2.425-3.839c0.909-0.543,1.972-0.852,3.104-0.852c1.674,0,3.192,0.676,4.294,1.773
				c0.24,0.237,0.46,0.493,0.653,0.767c0.276,0.383,0.506,0.802,0.688,1.244c-0.815-0.259-1.628-0.522-2.439-0.798
				c-1.032-0.354-2.062-0.713-3.073-1.129c0.938,0.559,1.911,1.065,2.887,1.567c0.832,0.427,1.664,0.84,2.507,1.245
				c-0.89,0.603-1.961,0.959-3.116,0.959C185.766,264.679,185.293,264.615,184.844,264.499z"/>
		</g>
	</g>
	<g opacity="0.1">
		<g>
			<path fill="#00480F" d="M61.574,264.516c-0.043,0.206-0.119,0.399-0.219,0.582c-0.43,0.789-1.339,1.335-2.381,1.335
				s-1.95-0.546-2.38-1.335c-0.101-0.183-0.174-0.376-0.22-0.582h0.603c0.063,0.213,0.173,0.405,0.315,0.582
				c0.377,0.456,0.989,0.753,1.682,0.753s1.309-0.297,1.682-0.753c0.143-0.173,0.253-0.369,0.315-0.582H61.574z"/>
		</g>
		<g>
			<g>
				<path fill="#00480F" d="M51.73,255.18c0,0.04,0,0.08,0.003,0.12v-0.184C51.73,255.14,51.73,255.156,51.73,255.18z"/>
				<path fill="#00480F" d="M65.899,262.154c0,3.889-3.163,7.052-7.051,7.052c-3.829,0-6.955-3.066-7.048-6.875
					c-0.004-0.013-0.004-0.03-0.004-0.047v-0.02l-0.003-0.066v-0.067L51.73,255.3v-0.233c0-0.05,0.003-0.096,0.003-0.146
					c0.137-3.476,3.004-6.259,6.513-6.259c1.234,0,2.391,0.346,3.375,0.945c0.566,0.343,1.076,0.772,1.509,1.269
					c1.016,1.148,1.631,2.656,1.631,4.305c0,0.876-0.173,1.711-0.489,2.474c-0.227-0.27-0.469-0.525-0.732-0.759
					c0.177-0.539,0.271-1.119,0.271-1.715c0-1.931-0.986-3.632-2.48-4.631c-0.506-0.34-1.072-0.6-1.679-0.756
					c-0.449-0.12-0.922-0.18-1.408-0.18c-3.046,0-5.529,2.457-5.563,5.497c-0.004,0.023-0.004,0.046-0.004,0.069
					c0,0.05,0,0.1,0.004,0.149l0.029,3.286v0.063l0.03,3.449l0.004,0.087c0.029,3.336,2.756,6.039,6.099,6.039
					c3.362,0,6.103-2.74,6.103-6.103c0-0.22-0.014-0.439-0.037-0.652c0.304-0.206,0.593-0.439,0.856-0.696
					C65.854,261.242,65.899,261.692,65.899,262.154z"/>
			</g>
			<path fill="#00480F" d="M65.474,259.737c-0.28-0.766-0.689-1.468-1.202-2.08c-0.227-0.271-0.469-0.526-0.732-0.76
				c-1.245-1.115-2.893-1.794-4.693-1.794c-1.133,0-2.204,0.27-3.153,0.745c-0.333,0.164-0.649,0.356-0.948,0.576
				c0.016,0.373,0.063,0.736,0.146,1.092c0.238,1.096,0.759,2.091,1.474,2.904c0.434,0.495,0.942,0.925,1.509,1.268
				c0.985,0.6,2.141,0.945,3.376,0.945c1.358,0,2.616-0.416,3.662-1.128c0.303-0.207,0.593-0.439,0.855-0.696
				C65.697,260.437,65.597,260.077,65.474,259.737z M59.844,261.499c-0.605-0.16-1.169-0.416-1.674-0.756
				c-1.286-0.859-2.197-2.241-2.425-3.839c0.909-0.543,1.972-0.852,3.104-0.852c1.674,0,3.192,0.676,4.294,1.773
				c0.24,0.237,0.46,0.493,0.653,0.767c0.276,0.383,0.506,0.802,0.688,1.244c-0.815-0.259-1.628-0.522-2.439-0.798
				c-1.032-0.354-2.062-0.713-3.073-1.129c0.938,0.559,1.911,1.065,2.887,1.567c0.832,0.427,1.664,0.84,2.507,1.245
				c-0.89,0.603-1.961,0.959-3.116,0.959C60.766,261.679,60.293,261.615,59.844,261.499z"/>
		</g>
	</g>
	<g opacity="0.1">
		<g>
			<path fill="#00480F" d="M41.005,58.644c-0.043,0.206-0.119,0.399-0.219,0.582c-0.43,0.789-1.339,1.335-2.381,1.335
				s-1.95-0.546-2.38-1.335c-0.101-0.183-0.174-0.376-0.22-0.582h0.603c0.063,0.213,0.173,0.405,0.315,0.582
				c0.377,0.456,0.989,0.753,1.682,0.753s1.309-0.297,1.682-0.753c0.143-0.173,0.253-0.369,0.315-0.582H41.005z"/>
		</g>
		<g>
			<g>
				<path fill="#00480F" d="M31.161,49.308c0,0.04,0,0.08,0.003,0.12v-0.184C31.161,49.268,31.161,49.284,31.161,49.308z"/>
				<path fill="#00480F" d="M45.33,56.282c0,3.889-3.163,7.052-7.051,7.052c-3.829,0-6.955-3.066-7.048-6.875
					c-0.004-0.013-0.004-0.03-0.004-0.047v-0.02l-0.003-0.066v-0.067l-0.063-6.831v-0.233c0-0.05,0.003-0.096,0.003-0.146
					c0.137-3.476,3.004-6.259,6.513-6.259c1.234,0,2.391,0.346,3.375,0.945c0.566,0.343,1.076,0.772,1.509,1.269
					c1.016,1.148,1.631,2.656,1.631,4.305c0,0.876-0.173,1.711-0.489,2.474c-0.227-0.27-0.469-0.525-0.732-0.759
					c0.177-0.539,0.271-1.119,0.271-1.715c0-1.931-0.986-3.632-2.48-4.631c-0.506-0.34-1.072-0.6-1.679-0.756
					c-0.449-0.12-0.922-0.18-1.408-0.18c-3.046,0-5.529,2.457-5.563,5.497c-0.004,0.023-0.004,0.046-0.004,0.069
					c0,0.05,0,0.1,0.004,0.149l0.029,3.286v0.063l0.03,3.449l0.004,0.087c0.029,3.336,2.756,6.039,6.099,6.039
					c3.362,0,6.103-2.74,6.103-6.103c0-0.22-0.014-0.439-0.037-0.652c0.304-0.206,0.593-0.439,0.856-0.696
					C45.284,55.37,45.33,55.82,45.33,56.282z"/>
			</g>
			<path fill="#00480F" d="M44.904,53.865c-0.28-0.766-0.689-1.468-1.202-2.08c-0.227-0.271-0.469-0.526-0.732-0.76
				c-1.245-1.115-2.893-1.794-4.693-1.794c-1.133,0-2.204,0.27-3.153,0.745c-0.333,0.164-0.649,0.356-0.948,0.576
				c0.016,0.373,0.063,0.736,0.146,1.092c0.238,1.096,0.759,2.091,1.474,2.904c0.434,0.495,0.942,0.925,1.509,1.268
				c0.985,0.6,2.141,0.945,3.376,0.945c1.358,0,2.616-0.416,3.662-1.128c0.303-0.207,0.593-0.439,0.855-0.696
				C45.128,54.564,45.027,54.205,44.904,53.865z M39.274,55.627c-0.605-0.16-1.169-0.416-1.674-0.756
				c-1.286-0.859-2.197-2.241-2.425-3.839c0.909-0.543,1.972-0.852,3.104-0.852c1.674,0,3.192,0.676,4.294,1.773
				c0.24,0.237,0.46,0.493,0.653,0.767c0.276,0.383,0.506,0.802,0.688,1.244c-0.815-0.259-1.628-0.522-2.439-0.798
				c-1.032-0.354-2.062-0.713-3.073-1.129c0.938,0.559,1.911,1.065,2.887,1.567c0.832,0.427,1.664,0.84,2.507,1.245
				c-0.89,0.603-1.961,0.959-3.116,0.959C40.196,55.807,39.724,55.743,39.274,55.627z"/>
		</g>
	</g>
	<g opacity="0.1">
		<g>
			<path fill="#00480F" d="M233.362,84.567c-0.043,0.206-0.119,0.399-0.219,0.582c-0.43,0.789-1.339,1.335-2.381,1.335
				s-1.95-0.546-2.38-1.335c-0.101-0.183-0.174-0.376-0.22-0.582h0.603c0.063,0.213,0.173,0.405,0.315,0.582
				c0.377,0.456,0.989,0.753,1.682,0.753s1.309-0.297,1.682-0.753c0.143-0.173,0.253-0.369,0.315-0.582H233.362z"/>
		</g>
		<g>
			<g>
				<path fill="#00480F" d="M223.519,75.231c0,0.04,0,0.08,0.003,0.12v-0.184C223.519,75.191,223.519,75.208,223.519,75.231z"/>
				<path fill="#00480F" d="M237.688,82.206c0,3.889-3.163,7.052-7.051,7.052c-3.829,0-6.955-3.066-7.048-6.875
					c-0.004-0.013-0.004-0.03-0.004-0.047v-0.02l-0.003-0.066v-0.067l-0.063-6.831v-0.233c0-0.05,0.003-0.096,0.003-0.146
					c0.137-3.476,3.004-6.259,6.513-6.259c1.234,0,2.391,0.346,3.375,0.945c0.566,0.343,1.076,0.772,1.509,1.269
					c1.016,1.148,1.631,2.656,1.631,4.305c0,0.876-0.173,1.711-0.489,2.474c-0.227-0.27-0.469-0.525-0.732-0.759
					c0.177-0.539,0.271-1.119,0.271-1.715c0-1.931-0.986-3.632-2.48-4.631c-0.506-0.34-1.072-0.6-1.679-0.756
					c-0.449-0.12-0.922-0.18-1.408-0.18c-3.046,0-5.529,2.457-5.563,5.497c-0.004,0.023-0.004,0.046-0.004,0.069
					c0,0.05,0,0.1,0.004,0.149l0.029,3.286v0.063l0.03,3.449l0.004,0.087c0.029,3.336,2.756,6.039,6.099,6.039
					c3.362,0,6.103-2.74,6.103-6.103c0-0.22-0.014-0.439-0.037-0.652c0.304-0.206,0.593-0.439,0.856-0.696
					C237.642,81.293,237.688,81.744,237.688,82.206z"/>
			</g>
			<path fill="#00480F" d="M237.262,79.789c-0.28-0.766-0.689-1.468-1.202-2.08c-0.227-0.271-0.469-0.526-0.732-0.76
				c-1.245-1.115-2.893-1.794-4.693-1.794c-1.133,0-2.204,0.27-3.153,0.745c-0.333,0.164-0.649,0.356-0.948,0.576
				c0.016,0.373,0.063,0.736,0.146,1.092c0.238,1.096,0.759,2.091,1.474,2.904c0.434,0.495,0.942,0.925,1.509,1.268
				c0.985,0.6,2.141,0.945,3.376,0.945c1.358,0,2.616-0.416,3.662-1.128c0.303-0.207,0.593-0.439,0.855-0.696
				C237.485,80.488,237.385,80.128,237.262,79.789z M231.632,81.55c-0.605-0.16-1.169-0.416-1.674-0.756
				c-1.286-0.859-2.197-2.241-2.425-3.839c0.909-0.543,1.972-0.852,3.104-0.852c1.674,0,3.192,0.676,4.294,1.773
				c0.24,0.237,0.46,0.493,0.653,0.767c0.276,0.383,0.506,0.802,0.688,1.244c-0.815-0.259-1.628-0.522-2.439-0.798
				c-1.032-0.354-2.062-0.713-3.073-1.129c0.938,0.559,1.911,1.065,2.887,1.567c0.832,0.427,1.664,0.84,2.507,1.245
				c-0.89,0.603-1.961,0.959-3.116,0.959C232.554,81.73,232.081,81.667,231.632,81.55z"/>
		</g>
	</g>
	<g opacity="0.1">
		<g>
			<path fill="#00480F" d="M33.921,339.742c-0.043,0.206-0.119,0.399-0.219,0.582c-0.43,0.789-1.339,1.335-2.381,1.335
				s-1.95-0.546-2.38-1.335c-0.101-0.183-0.174-0.376-0.22-0.582h0.603c0.063,0.213,0.173,0.405,0.315,0.582
				c0.377,0.456,0.989,0.753,1.682,0.753s1.309-0.297,1.682-0.753c0.143-0.173,0.253-0.369,0.315-0.582H33.921z"/>
		</g>
		<g>
			<g>
				<path fill="#00480F" d="M24.077,330.406c0,0.04,0,0.08,0.003,0.12v-0.184C24.077,330.366,24.077,330.383,24.077,330.406z"/>
				<path fill="#00480F" d="M38.246,337.381c0,3.889-3.163,7.052-7.051,7.052c-3.829,0-6.955-3.066-7.048-6.875
					c-0.004-0.013-0.004-0.03-0.004-0.047v-0.02l-0.003-0.066v-0.067l-0.063-6.831v-0.233c0-0.05,0.003-0.096,0.003-0.146
					c0.137-3.476,3.004-6.259,6.513-6.259c1.234,0,2.391,0.346,3.375,0.945c0.566,0.343,1.076,0.772,1.509,1.269
					c1.016,1.148,1.631,2.656,1.631,4.305c0,0.876-0.173,1.711-0.489,2.474c-0.227-0.27-0.469-0.525-0.732-0.759
					c0.177-0.539,0.271-1.119,0.271-1.715c0-1.931-0.986-3.632-2.48-4.631c-0.506-0.34-1.072-0.6-1.679-0.756
					c-0.449-0.12-0.922-0.18-1.408-0.18c-3.046,0-5.529,2.457-5.563,5.497c-0.004,0.023-0.004,0.046-0.004,0.069
					c0,0.05,0,0.1,0.004,0.149l0.029,3.286v0.063l0.03,3.449l0.004,0.087c0.029,3.336,2.756,6.039,6.099,6.039
					c3.362,0,6.103-2.74,6.103-6.103c0-0.22-0.014-0.439-0.037-0.652c0.304-0.206,0.593-0.439,0.856-0.696
					C38.2,336.469,38.246,336.919,38.246,337.381z"/>
			</g>
			<path fill="#00480F" d="M37.82,334.964c-0.28-0.766-0.689-1.468-1.202-2.08c-0.227-0.271-0.469-0.526-0.732-0.76
				c-1.245-1.115-2.893-1.794-4.693-1.794c-1.133,0-2.204,0.27-3.153,0.745c-0.333,0.164-0.649,0.356-0.948,0.576
				c0.016,0.373,0.063,0.736,0.146,1.092c0.238,1.096,0.759,2.091,1.474,2.904c0.434,0.495,0.942,0.925,1.509,1.268
				c0.985,0.6,2.141,0.945,3.376,0.945c1.358,0,2.616-0.416,3.662-1.128c0.303-0.207,0.593-0.439,0.855-0.696
				C38.044,335.663,37.943,335.304,37.82,334.964z M32.19,336.726c-0.605-0.16-1.169-0.416-1.674-0.756
				c-1.286-0.859-2.197-2.241-2.425-3.839c0.909-0.543,1.972-0.852,3.104-0.852c1.674,0,3.192,0.676,4.294,1.773
				c0.24,0.237,0.46,0.493,0.653,0.767c0.276,0.383,0.506,0.802,0.688,1.244c-0.815-0.259-1.628-0.522-2.439-0.798
				c-1.032-0.354-2.062-0.713-3.073-1.129c0.938,0.559,1.911,1.065,2.887,1.567c0.832,0.427,1.664,0.84,2.507,1.245
				c-0.89,0.603-1.961,0.959-3.116,0.959C33.112,336.905,32.64,336.842,32.19,336.726z"/>
		</g>
	</g>
	<g opacity="0.1">
		<g>
			<path fill="#00480F" d="M162.819,377c-0.043,0.206-0.119,0.399-0.219,0.582c-0.43,0.789-1.339,1.335-2.381,1.335
				s-1.95-0.546-2.38-1.335c-0.101-0.183-0.174-0.376-0.22-0.582h0.603c0.063,0.213,0.173,0.405,0.315,0.582
				c0.377,0.456,0.989,0.753,1.682,0.753s1.309-0.297,1.682-0.753c0.143-0.173,0.253-0.369,0.315-0.582H162.819z"/>
		</g>
		<g>
			<g>
				<path fill="#00480F" d="M152.976,367.664c0,0.04,0,0.08,0.003,0.12v-0.184C152.976,367.624,152.976,367.641,152.976,367.664z"/>
				<path fill="#00480F" d="M167.145,374.639c0,3.889-3.163,7.052-7.051,7.052c-3.829,0-6.955-3.066-7.048-6.875
					c-0.004-0.013-0.004-0.03-0.004-0.047v-0.02l-0.003-0.066v-0.067l-0.063-6.831v-0.233c0-0.05,0.003-0.096,0.003-0.146
					c0.137-3.476,3.004-6.259,6.513-6.259c1.234,0,2.391,0.346,3.375,0.945c0.566,0.343,1.076,0.772,1.509,1.269
					c1.016,1.148,1.631,2.656,1.631,4.305c0,0.876-0.173,1.711-0.489,2.474c-0.227-0.27-0.469-0.525-0.732-0.759
					c0.177-0.539,0.271-1.119,0.271-1.715c0-1.931-0.986-3.632-2.48-4.631c-0.506-0.34-1.072-0.6-1.679-0.756
					c-0.449-0.12-0.922-0.18-1.408-0.18c-3.046,0-5.529,2.457-5.563,5.497c-0.004,0.023-0.004,0.046-0.004,0.069
					c0,0.05,0,0.1,0.004,0.149l0.029,3.286v0.063l0.03,3.449l0.004,0.087c0.029,3.336,2.756,6.039,6.099,6.039
					c3.362,0,6.103-2.74,6.103-6.103c0-0.22-0.014-0.439-0.037-0.652c0.304-0.206,0.593-0.439,0.856-0.696
					C167.099,373.727,167.145,374.177,167.145,374.639z"/>
			</g>
			<path fill="#00480F" d="M166.719,372.222c-0.28-0.766-0.689-1.468-1.202-2.08c-0.227-0.271-0.469-0.526-0.732-0.76
				c-1.245-1.115-2.893-1.794-4.693-1.794c-1.133,0-2.204,0.27-3.153,0.745c-0.333,0.164-0.649,0.356-0.948,0.576
				c0.016,0.373,0.063,0.736,0.146,1.092c0.238,1.096,0.759,2.091,1.474,2.904c0.434,0.495,0.942,0.925,1.509,1.268
				c0.985,0.6,2.141,0.945,3.376,0.945c1.358,0,2.616-0.416,3.662-1.128c0.303-0.207,0.593-0.439,0.855-0.696
				C166.942,372.921,166.842,372.562,166.719,372.222z M161.089,373.983c-0.605-0.16-1.169-0.416-1.674-0.756
				c-1.286-0.859-2.197-2.241-2.425-3.839c0.909-0.543,1.972-0.852,3.104-0.852c1.674,0,3.192,0.676,4.294,1.773
				c0.24,0.237,0.46,0.493,0.653,0.767c0.276,0.383,0.506,0.802,0.688,1.244c-0.815-0.259-1.628-0.522-2.439-0.798
				c-1.032-0.354-2.062-0.713-3.073-1.129c0.938,0.559,1.911,1.065,2.887,1.567c0.832,0.427,1.664,0.84,2.507,1.245
				c-0.89,0.603-1.961,0.959-3.116,0.959C162.011,374.163,161.538,374.1,161.089,373.983z"/>
		</g>
	</g>
	<g opacity="0.1">
		<g>
			<path fill="#00480F" d="M34.08,470.996c-0.043,0.206-0.119,0.399-0.219,0.582c-0.43,0.789-1.339,1.335-2.381,1.335
				s-1.95-0.546-2.38-1.335c-0.101-0.183-0.174-0.376-0.22-0.582h0.603c0.063,0.213,0.173,0.405,0.315,0.582
				c0.377,0.456,0.989,0.753,1.682,0.753s1.309-0.297,1.682-0.753c0.143-0.173,0.253-0.369,0.315-0.582H34.08z"/>
		</g>
		<g>
			<g>
				<path fill="#00480F" d="M24.236,461.66c0,0.04,0,0.08,0.003,0.12v-0.184C24.236,461.62,24.236,461.637,24.236,461.66z"/>
				<path fill="#00480F" d="M38.405,468.635c0,3.889-3.163,7.052-7.051,7.052c-3.829,0-6.955-3.066-7.048-6.875
					c-0.004-0.013-0.004-0.03-0.004-0.047v-0.02l-0.003-0.066v-0.067l-0.063-6.831v-0.233c0-0.05,0.003-0.096,0.003-0.146
					c0.137-3.476,3.004-6.259,6.513-6.259c1.234,0,2.391,0.346,3.375,0.945c0.566,0.343,1.076,0.772,1.509,1.269
					c1.016,1.148,1.631,2.656,1.631,4.305c0,0.876-0.173,1.711-0.489,2.474c-0.227-0.27-0.469-0.525-0.732-0.759
					c0.177-0.539,0.271-1.119,0.271-1.715c0-1.931-0.986-3.632-2.48-4.631c-0.506-0.34-1.072-0.6-1.679-0.756
					c-0.449-0.12-0.922-0.18-1.408-0.18c-3.046,0-5.529,2.457-5.563,5.497c-0.004,0.023-0.004,0.046-0.004,0.069
					c0,0.05,0,0.1,0.004,0.149l0.029,3.286v0.063l0.03,3.449l0.004,0.087c0.029,3.336,2.756,6.039,6.099,6.039
					c3.362,0,6.103-2.74,6.103-6.103c0-0.22-0.014-0.439-0.037-0.652c0.304-0.206,0.593-0.439,0.856-0.696
					C38.359,467.723,38.405,468.173,38.405,468.635z"/>
			</g>
			<path fill="#00480F" d="M37.979,466.218c-0.28-0.766-0.689-1.468-1.202-2.08c-0.227-0.271-0.469-0.526-0.732-0.76
				c-1.245-1.115-2.893-1.794-4.693-1.794c-1.133,0-2.204,0.27-3.153,0.745c-0.333,0.164-0.649,0.356-0.948,0.576
				c0.016,0.373,0.063,0.736,0.146,1.092c0.238,1.096,0.759,2.091,1.474,2.904c0.434,0.495,0.942,0.925,1.509,1.268
				c0.985,0.6,2.141,0.945,3.376,0.945c1.358,0,2.616-0.416,3.662-1.128c0.303-0.207,0.593-0.439,0.855-0.696
				C38.203,466.917,38.103,466.558,37.979,466.218z M32.35,467.979c-0.605-0.16-1.169-0.416-1.674-0.756
				c-1.286-0.859-2.197-2.241-2.425-3.839c0.909-0.543,1.972-0.852,3.104-0.852c1.674,0,3.192,0.676,4.294,1.773
				c0.24,0.237,0.46,0.493,0.653,0.767c0.276,0.383,0.506,0.802,0.688,1.244c-0.815-0.259-1.628-0.522-2.439-0.798
				c-1.032-0.354-2.062-0.713-3.073-1.129c0.938,0.559,1.911,1.065,2.887,1.567c0.832,0.427,1.664,0.84,2.507,1.245
				c-0.89,0.603-1.961,0.959-3.116,0.959C33.271,468.159,32.799,468.096,32.35,467.979z"/>
		</g>
	</g>
	<g opacity="0.1">
		<g>
			<path fill="#00480F" d="M186.574,222.516c-0.043,0.206-0.119,0.399-0.219,0.582c-0.43,0.789-1.339,1.335-2.381,1.335
				s-1.95-0.546-2.38-1.335c-0.101-0.183-0.174-0.376-0.22-0.582h0.603c0.063,0.213,0.173,0.405,0.315,0.582
				c0.377,0.456,0.989,0.753,1.682,0.753s1.309-0.297,1.682-0.753c0.143-0.173,0.253-0.369,0.315-0.582H186.574z"/>
		</g>
		<g>
			<g>
				<path fill="#00480F" d="M176.73,213.18c0,0.04,0,0.08,0.003,0.12v-0.184C176.73,213.14,176.73,213.156,176.73,213.18z"/>
				<path fill="#00480F" d="M190.899,220.154c0,3.889-3.163,7.052-7.051,7.052c-3.829,0-6.955-3.066-7.048-6.875
					c-0.004-0.013-0.004-0.03-0.004-0.047v-0.02l-0.003-0.066v-0.067l-0.063-6.831v-0.233c0-0.05,0.003-0.096,0.003-0.146
					c0.137-3.476,3.004-6.259,6.513-6.259c1.234,0,2.391,0.346,3.375,0.945c0.566,0.343,1.076,0.772,1.509,1.269
					c1.016,1.148,1.631,2.656,1.631,4.305c0,0.876-0.173,1.711-0.489,2.474c-0.227-0.27-0.469-0.525-0.732-0.759
					c0.177-0.539,0.271-1.119,0.271-1.715c0-1.931-0.986-3.632-2.48-4.631c-0.506-0.34-1.072-0.6-1.679-0.756
					c-0.449-0.12-0.922-0.18-1.408-0.18c-3.046,0-5.529,2.457-5.563,5.497c-0.004,0.023-0.004,0.046-0.004,0.069
					c0,0.05,0,0.1,0.004,0.149l0.029,3.286v0.063l0.03,3.449l0.004,0.087c0.029,3.336,2.756,6.039,6.099,6.039
					c3.362,0,6.103-2.74,6.103-6.103c0-0.22-0.014-0.439-0.037-0.652c0.304-0.206,0.593-0.439,0.856-0.696
					C190.854,219.242,190.899,219.692,190.899,220.154z"/>
			</g>
			<path fill="#00480F" d="M190.474,217.737c-0.28-0.766-0.689-1.468-1.202-2.08c-0.227-0.271-0.469-0.526-0.732-0.76
				c-1.245-1.115-2.893-1.794-4.693-1.794c-1.133,0-2.204,0.27-3.153,0.745c-0.333,0.164-0.649,0.356-0.948,0.576
				c0.016,0.373,0.063,0.736,0.146,1.092c0.238,1.096,0.759,2.091,1.474,2.904c0.434,0.495,0.942,0.925,1.509,1.268
				c0.985,0.6,2.141,0.945,3.376,0.945c1.358,0,2.616-0.416,3.662-1.128c0.303-0.207,0.593-0.439,0.855-0.696
				C190.697,218.437,190.597,218.077,190.474,217.737z M184.844,219.499c-0.605-0.16-1.169-0.416-1.674-0.756
				c-1.286-0.859-2.197-2.241-2.425-3.839c0.909-0.543,1.972-0.852,3.104-0.852c1.674,0,3.192,0.676,4.294,1.773
				c0.24,0.237,0.46,0.493,0.653,0.767c0.276,0.383,0.506,0.802,0.688,1.244c-0.815-0.259-1.628-0.522-2.439-0.798
				c-1.032-0.354-2.062-0.713-3.073-1.129c0.938,0.559,1.911,1.065,2.887,1.567c0.832,0.427,1.664,0.84,2.507,1.245
				c-0.89,0.603-1.961,0.959-3.116,0.959C185.766,219.679,185.293,219.615,184.844,219.499z"/>
		</g>
	</g>
	<g opacity="0.1">
		<g>
			<path fill="#00480F" d="M186.005,173.644c-0.043,0.206-0.119,0.399-0.219,0.582c-0.43,0.789-1.339,1.335-2.381,1.335
				s-1.95-0.546-2.38-1.335c-0.101-0.183-0.174-0.376-0.22-0.582h0.603c0.063,0.213,0.173,0.405,0.315,0.582
				c0.377,0.456,0.989,0.753,1.682,0.753s1.309-0.297,1.682-0.753c0.143-0.173,0.253-0.369,0.315-0.582H186.005z"/>
		</g>
		<g>
			<g>
				<path fill="#00480F" d="M176.161,164.308c0,0.04,0,0.08,0.003,0.12v-0.184C176.161,164.268,176.161,164.284,176.161,164.308z"/>
				<path fill="#00480F" d="M190.33,171.282c0,3.889-3.163,7.052-7.051,7.052c-3.829,0-6.955-3.066-7.048-6.875
					c-0.004-0.013-0.004-0.03-0.004-0.047v-0.02l-0.003-0.066v-0.067l-0.063-6.831v-0.233c0-0.05,0.003-0.096,0.003-0.146
					c0.137-3.476,3.004-6.259,6.513-6.259c1.234,0,2.391,0.346,3.375,0.945c0.566,0.343,1.076,0.772,1.509,1.269
					c1.016,1.148,1.631,2.656,1.631,4.305c0,0.876-0.173,1.711-0.489,2.474c-0.227-0.27-0.469-0.525-0.732-0.759
					c0.177-0.539,0.271-1.119,0.271-1.715c0-1.931-0.986-3.632-2.48-4.631c-0.506-0.34-1.072-0.6-1.679-0.756
					c-0.449-0.12-0.922-0.18-1.408-0.18c-3.046,0-5.529,2.457-5.563,5.497c-0.004,0.023-0.004,0.046-0.004,0.069
					c0,0.05,0,0.1,0.004,0.149l0.029,3.286v0.063l0.03,3.449l0.004,0.087c0.029,3.336,2.756,6.039,6.099,6.039
					c3.362,0,6.103-2.74,6.103-6.103c0-0.22-0.014-0.439-0.037-0.652c0.304-0.206,0.593-0.439,0.856-0.696
					C190.284,170.37,190.33,170.82,190.33,171.282z"/>
			</g>
			<path fill="#00480F" d="M189.904,168.865c-0.28-0.766-0.689-1.468-1.202-2.08c-0.227-0.271-0.469-0.526-0.732-0.76
				c-1.245-1.115-2.893-1.794-4.693-1.794c-1.133,0-2.204,0.27-3.153,0.745c-0.333,0.164-0.649,0.356-0.948,0.576
				c0.016,0.373,0.063,0.736,0.146,1.092c0.238,1.096,0.759,2.091,1.474,2.904c0.434,0.495,0.942,0.925,1.509,1.268
				c0.985,0.6,2.141,0.945,3.376,0.945c1.358,0,2.616-0.416,3.662-1.128c0.303-0.207,0.593-0.439,0.855-0.696
				C190.128,169.564,190.027,169.205,189.904,168.865z M184.274,170.627c-0.605-0.16-1.169-0.416-1.674-0.756
				c-1.286-0.859-2.197-2.241-2.425-3.839c0.909-0.543,1.972-0.852,3.104-0.852c1.674,0,3.192,0.676,4.294,1.773
				c0.24,0.237,0.46,0.493,0.653,0.767c0.276,0.383,0.506,0.802,0.688,1.244c-0.815-0.259-1.628-0.522-2.439-0.798
				c-1.032-0.354-2.062-0.713-3.073-1.129c0.938,0.559,1.911,1.065,2.887,1.567c0.832,0.427,1.664,0.84,2.507,1.245
				c-0.89,0.603-1.961,0.959-3.116,0.959C185.196,170.807,184.724,170.743,184.274,170.627z"/>
		</g>
	</g>
</g>
</svg>
