<?xml version="1.0" encoding="utf-8"?>
<!-- Generator: Adobe Illustrator 24.0.0, SVG Export Plug-In . SVG Version: 6.00 Build 0)  -->
<svg version="1.1" id="Layer_1" xmlns="http://www.w3.org/2000/svg" xmlns:xlink="http://www.w3.org/1999/xlink" x="0px" y="0px"
	 viewBox="0 0 143.14 128.57" style="enable-background:new 0 0 143.14 128.57;" xml:space="preserve">
<style type="text/css">
	.st0{fill:#118341;}
	.st1{fill:#010101;}
</style>
<g>
	<g>
		<path class="st0" d="M82.04,85.44c-0.17,0.78-0.45,1.52-0.83,2.21c-1.63,3-5.07,5.06-9.03,5.06c-3.96,0-7.4-2.07-9.03-5.06
			c-0.38-0.69-0.66-1.43-0.83-2.21h2.28c0.24,0.8,0.65,1.55,1.2,2.21c1.42,1.73,3.75,2.86,6.38,2.86c2.63,0,4.96-1.13,6.38-2.86
			c0.54-0.66,0.96-1.41,1.2-2.21H82.04z"/>
	</g>
	<g>
		<g>
			<path class="st0" d="M44.71,50.05c0,0.15,0,0.3,0.01,0.45v-0.68C44.71,49.9,44.71,49.97,44.71,50.05z"/>
			<path class="st0" d="M98.43,76.49c0,14.74-11.99,26.74-26.74,26.74c-14.52,0-26.37-11.62-26.72-26.06
				c-0.01-0.05-0.01-0.12-0.01-0.17v-0.08l-0.01-0.25v-0.25L44.72,50.5v-0.88c0-0.19,0.01-0.37,0.02-0.55
				c0.51-13.17,11.39-23.73,24.68-23.73c4.68,0,9.07,1.32,12.8,3.59c2.14,1.3,4.08,2.93,5.72,4.8c3.85,4.35,6.18,10.07,6.18,16.32
				c0,3.32-0.66,6.49-1.86,9.38c-0.86-1.03-1.78-1.99-2.78-2.87c0.67-2.05,1.03-4.24,1.03-6.51c0-7.32-3.73-13.77-9.4-17.55
				c-1.92-1.29-4.06-2.27-6.36-2.87c-1.7-0.45-3.5-0.68-5.33-0.68c-11.55,0-20.96,9.32-21.1,20.83c-0.01,0.09-0.01,0.18-0.01,0.27
				c0,0.19,0,0.38,0.02,0.57l0.11,12.46v0.23l0.12,13.08l0.01,0.33c0.12,12.64,10.45,22.9,23.12,22.9
				c12.75,0,23.13-10.38,23.13-23.13c0-0.84-0.05-1.67-0.14-2.48c1.15-0.78,2.24-1.67,3.24-2.64
				C98.26,73.03,98.43,74.74,98.43,76.49z"/>
		</g>
		<path class="st0" d="M96.82,67.33c-1.06-2.9-2.61-5.57-4.55-7.89c-0.86-1.03-1.78-1.99-2.78-2.87c-4.72-4.23-10.97-6.8-17.8-6.8
			c-4.29,0-8.35,1.02-11.95,2.83c-1.26,0.62-2.46,1.35-3.6,2.18c0.06,1.41,0.24,2.79,0.55,4.14c0.91,4.15,2.87,7.92,5.6,11
			c1.64,1.87,3.58,3.51,5.72,4.8c3.73,2.27,8.12,3.59,12.8,3.59c5.15,0,9.92-1.58,13.88-4.28c1.15-0.78,2.24-1.67,3.24-2.64
			C97.66,69.98,97.29,68.63,96.82,67.33z M75.48,74.01c-2.3-0.6-4.43-1.58-6.35-2.87c-4.88-3.25-8.33-8.49-9.19-14.55
			c3.45-2.05,7.47-3.23,11.76-3.23c6.34,0,12.1,2.57,16.28,6.72c0.91,0.89,1.74,1.87,2.48,2.9c1.05,1.45,1.92,3.04,2.62,4.72
			c-3.09-0.98-6.18-1.99-9.25-3.03c-3.91-1.34-7.81-2.7-11.64-4.28c3.56,2.12,7.25,4.05,10.94,5.94c3.15,1.61,6.32,3.18,9.5,4.72
			c-3.37,2.29-7.44,3.64-11.81,3.64C78.97,74.69,77.18,74.46,75.48,74.01z"/>
	</g>
</g>
</svg>
