<?xml version="1.0" encoding="utf-8"?>
<!-- Generator: Adobe Illustrator 24.0.0, SVG Export Plug-In . SVG Version: 6.00 Build 0)  -->
<svg version="1.1" id="Layer_1" xmlns="http://www.w3.org/2000/svg" xmlns:xlink="http://www.w3.org/1999/xlink" x="0px" y="0px"
	 viewBox="0 0 199.5 93.38" style="enable-background:new 0 0 199.5 93.38;" xml:space="preserve">
<style type="text/css">
	.st0{fill:#118341;}
	.st1{fill:#010101;}
</style>
<g>
	<g>
		<g>
			<path class="st0" d="M46.07,63.63c-0.13,0.62-0.36,1.2-0.66,1.75c-1.29,2.37-4.02,4.01-7.15,4.01s-5.86-1.64-7.15-4.01
				c-0.3-0.55-0.52-1.13-0.66-1.75h1.81c0.19,0.64,0.52,1.22,0.95,1.75c1.13,1.37,2.97,2.26,5.05,2.26s3.93-0.89,5.05-2.26
				c0.43-0.52,0.76-1.11,0.95-1.75H46.07z"/>
		</g>
		<g>
			<g>
				<path class="st0" d="M16.5,35.59c0,0.12,0,0.24,0.01,0.36V35.4C16.5,35.47,16.5,35.52,16.5,35.59z"/>
				<path class="st0" d="M59.06,56.54c0,11.68-9.5,21.18-21.18,21.18c-11.5,0-20.89-9.21-21.17-20.65
					c-0.01-0.04-0.01-0.09-0.01-0.14v-0.06l-0.01-0.2v-0.2L16.5,35.95v-0.7c0-0.15,0.01-0.29,0.01-0.44
					c0.41-10.44,9.02-18.8,19.56-18.8c3.71,0,7.18,1.04,10.14,2.84c1.7,1.03,3.23,2.32,4.53,3.81c3.05,3.45,4.9,7.98,4.9,12.93
					c0,2.63-0.52,5.14-1.47,7.43c-0.68-0.81-1.41-1.58-2.2-2.28c0.53-1.62,0.81-3.36,0.81-5.15c0-5.8-2.96-10.91-7.45-13.91
					c-1.52-1.02-3.22-1.8-5.04-2.27c-1.35-0.36-2.77-0.54-4.23-0.54c-9.15,0-16.61,7.38-16.71,16.51c-0.01,0.07-0.01,0.14-0.01,0.21
					c0,0.15,0,0.3,0.01,0.45l0.09,9.87v0.19l0.09,10.36l0.01,0.26c0.09,10.02,8.28,18.14,18.32,18.14c10.1,0,18.33-8.23,18.33-18.33
					c0-0.66-0.04-1.32-0.11-1.96c0.91-0.62,1.78-1.32,2.57-2.09C58.92,53.8,59.06,55.15,59.06,56.54z"/>
			</g>
			<path class="st0" d="M57.78,49.28c-0.84-2.3-2.07-4.41-3.61-6.25c-0.68-0.81-1.41-1.58-2.2-2.28c-3.74-3.35-8.69-5.39-14.1-5.39
				c-3.4,0-6.62,0.81-9.47,2.24c-1,0.49-1.95,1.07-2.85,1.73c0.05,1.12,0.19,2.21,0.44,3.28c0.72,3.29,2.28,6.28,4.43,8.72
				c1.3,1.49,2.83,2.78,4.53,3.81c2.96,1.8,6.43,2.84,10.14,2.84c4.08,0,7.86-1.25,11-3.39c0.91-0.62,1.78-1.32,2.57-2.09
				C58.45,51.38,58.15,50.3,57.78,49.28z M40.87,54.57c-1.82-0.48-3.51-1.25-5.03-2.27c-3.86-2.58-6.6-6.73-7.28-11.53
				c2.73-1.63,5.92-2.56,9.32-2.56c5.03,0,9.59,2.03,12.9,5.33c0.72,0.71,1.38,1.48,1.96,2.3c0.83,1.15,1.52,2.41,2.07,3.74
				c-2.45-0.78-4.89-1.57-7.33-2.4c-3.1-1.06-6.19-2.14-9.23-3.39c2.82,1.68,5.74,3.2,8.67,4.71c2.5,1.28,5,2.52,7.53,3.74
				c-2.67,1.81-5.89,2.88-9.36,2.88C43.64,55.11,42.22,54.92,40.87,54.57z"/>
		</g>
	</g>
	<g>
		<g>
			<path class="st1" d="M80.13,57.23h-7.02V38.41h6.75c3.97,0,5.97,2.16,5.97,4.78c0,2.38-1.49,3.75-3.3,4.35
				c2.05,0.35,3.73,2.32,3.73,4.65C86.26,55.02,84.02,57.23,80.13,57.23z M79.64,40.43h-4.08v6.1h4.13c2.3,0,3.62-1.13,3.62-3.05
				C83.32,41.62,82.05,40.43,79.64,40.43z M79.83,48.56h-4.27v6.64h4.35c2.43,0,3.89-1.22,3.89-3.27
				C83.8,49.86,82.23,48.56,79.83,48.56z"/>
			<path class="st1" d="M89.25,38.35c0-0.95,0.73-1.67,1.68-1.67c0.89,0,1.62,0.73,1.62,1.67c0,0.95-0.73,1.68-1.62,1.68
				C89.98,40.03,89.25,39.3,89.25,38.35z M89.66,42.43h2.46v14.8h-2.46V42.43z"/>
			<path class="st1" d="M102.76,57.48c-4.19,0-7.37-2.97-7.37-7.67c0-4.67,3.3-7.62,7.48-7.62c4.21,0,7.48,2.94,7.48,7.62
				C110.35,54.5,106.97,57.48,102.76,57.48z M102.76,55.32c2.57,0,5.08-1.76,5.08-5.51c0-3.73-2.46-5.48-5-5.48
				c-2.59,0-4.94,1.76-4.94,5.48C97.9,53.56,100.19,55.32,102.76,55.32z"/>
			<path class="st1" d="M128.39,38.38v18.85h-2.46l-9.89-14.99v14.99h-2.46V38.38h2.46l9.89,14.96V38.38H128.39z"/>
			<path class="st1" d="M145.7,57.23h-2.46v-2.19c-0.95,1.54-2.75,2.4-4.73,2.4c-3.4,0-6.08-2.11-6.08-6.35v-8.67h2.43v8.35
				c0,3,1.65,4.54,4.13,4.54c2.54,0,4.24-1.57,4.24-4.75v-8.13h2.46V57.23z"/>
			<path class="st1" d="M150.4,44.46h-1.92v-2.03h1.92V38.7h2.46v3.73h3.86v2.03h-3.86v8.72c0,1.46,0.54,1.97,2.05,1.97h1.81v2.08
				h-2.21c-2.62,0-4.11-1.08-4.11-4.05V44.46z"/>
			<path class="st1" d="M162.15,57.23h-2.46v-14.8h2.46v2.4c0.84-1.65,2.43-2.67,4.78-2.67v2.54h-0.65c-2.35,0-4.13,1.05-4.13,4.48
				V57.23z"/>
			<path class="st1" d="M175.87,42.19c2.75,0,4.65,1.4,5.51,2.94v-2.7h2.48v14.8h-2.48v-2.75c-0.89,1.59-2.81,3-5.54,3
				c-3.94,0-7-3.11-7-7.7C168.85,45.16,171.9,42.19,175.87,42.19z M176.35,44.32c-2.7,0-5,1.97-5,5.46c0,3.48,2.3,5.54,5,5.54
				c2.7,0,5.02-2.03,5.02-5.51C181.38,46.37,179.06,44.32,176.35,44.32z"/>
		</g>
	</g>
</g>
</svg>
