<?xml version="1.0" encoding="utf-8"?>
<!-- Generator: Adobe Illustrator 24.0.0, SVG Export Plug-In . SVG Version: 6.00 Build 0)  -->
<svg version="1.1" id="Layer_1" xmlns="http://www.w3.org/2000/svg" xmlns:xlink="http://www.w3.org/1999/xlink" x="0px" y="0px"
	 viewBox="0 0 199.5 93.38" style="enable-background:new 0 0 199.5 93.38;" xml:space="preserve">
<style type="text/css">
	.st0{fill:#118341;}
	.st1{fill:#010101;}
</style>
<g>
	<g>
		<path class="st0" d="M100.43,35.91v23.38h-3.05L85.12,40.69v18.59h-3.05V35.91h3.05l12.26,18.55V35.91H100.43z"/>
		<path class="st0" d="M121.89,59.28h-3.05v-2.71c-1.17,1.91-3.42,2.98-5.86,2.98c-4.22,0-7.54-2.61-7.54-7.87V40.93h3.01v10.35
			c0,3.72,2.04,5.63,5.12,5.63c3.15,0,5.26-1.94,5.26-5.89V40.93h3.05V59.28z"/>
		<path class="st0" d="M127.71,43.44h-2.38v-2.51h2.38v-4.62h3.05v4.62h4.79v2.51h-4.79v10.82c0,1.81,0.67,2.45,2.54,2.45h2.24v2.58
			h-2.75c-3.25,0-5.09-1.34-5.09-5.02V43.44z"/>
		<path class="st0" d="M142.28,59.28h-3.05V40.93h3.05v2.98c1.04-2.04,3.01-3.32,5.93-3.32v3.15h-0.8c-2.91,0-5.12,1.31-5.12,5.56
			V59.28z"/>
		<path class="st0" d="M159.29,40.63c3.42,0,5.76,1.74,6.83,3.65v-3.35h3.08v18.35h-3.08v-3.42c-1.11,1.98-3.48,3.72-6.87,3.72
			c-4.89,0-8.67-3.85-8.67-9.55C150.59,44.31,154.37,40.63,159.29,40.63z M159.9,43.27c-3.35,0-6.2,2.45-6.2,6.77
			s2.85,6.87,6.2,6.87c3.35,0,6.23-2.51,6.23-6.83C166.13,45.82,163.25,43.27,159.9,43.27z"/>
	</g>
	<g>
		<path class="st0" d="M51.9,35.87c0-1.17,0.9-2.08,2.08-2.08c1.11,0,2.01,0.9,2.01,2.08c0,1.17-0.9,2.08-2.01,2.08
			C52.8,37.95,51.9,37.04,51.9,35.87z M52.4,40.93h3.05v18.35H52.4V40.93z"/>
		<path class="st0" d="M68.64,59.59c-5.19,0-9.14-3.68-9.14-9.51c0-5.79,4.09-9.44,9.28-9.44c5.22,0,9.28,3.65,9.28,9.44
			C78.06,55.9,73.87,59.59,68.64,59.59z M68.64,56.91c3.18,0,6.3-2.18,6.3-6.83c0-4.62-3.05-6.8-6.2-6.8c-3.22,0-6.13,2.18-6.13,6.8
			C62.61,54.73,65.46,56.91,68.64,56.91z"/>
		<g>
			<g>
				<g>
					<path class="st0" d="M42.65,53.7c-0.06,0.26-0.15,0.5-0.28,0.73c-0.54,0.99-1.68,1.68-2.99,1.68c-1.31,0-2.45-0.68-2.99-1.68
						c-0.13-0.23-0.22-0.47-0.28-0.73h0.76c0.08,0.27,0.22,0.51,0.4,0.73c0.47,0.57,1.24,0.95,2.11,0.95c0.87,0,1.64-0.37,2.11-0.95
						c0.18-0.22,0.32-0.47,0.4-0.73H42.65z"/>
				</g>
			</g>
			<g>
				<g>
					<g>
						<path class="st0" d="M30.29,41.98c0,0.05,0,0.1,0,0.15V41.9C30.29,41.93,30.29,41.95,30.29,41.98z"/>
					</g>
					<g>
						<path class="st0" d="M48.08,50.73c0,4.88-3.97,8.85-8.85,8.85c-4.81,0-8.73-3.85-8.85-8.63c0-0.02,0-0.04,0-0.06v-0.03l0-0.08
							v-0.08l-0.08-8.58v-0.29c0-0.06,0-0.12,0.01-0.18c0.17-4.36,3.77-7.86,8.17-7.86c1.55,0,3,0.44,4.24,1.19
							c0.71,0.43,1.35,0.97,1.89,1.59c1.27,1.44,2.05,3.33,2.05,5.4c0,1.1-0.22,2.15-0.61,3.11c-0.28-0.34-0.59-0.66-0.92-0.95
							c0.22-0.68,0.34-1.4,0.34-2.15c0-2.42-1.24-4.56-3.11-5.81c-0.64-0.43-1.35-0.75-2.11-0.95c-0.56-0.15-1.16-0.23-1.77-0.23
							c-3.83,0-6.94,3.09-6.99,6.9c0,0.03,0,0.06,0,0.09c0,0.06,0,0.13,0.01,0.19l0.04,4.13v0.08l0.04,4.33l0,0.11
							c0.04,4.19,3.46,7.58,7.66,7.58c4.22,0,7.66-3.44,7.66-7.66c0-0.28-0.01-0.55-0.04-0.82c0.38-0.26,0.74-0.55,1.07-0.87
							C48.02,49.59,48.08,50.15,48.08,50.73z"/>
					</g>
				</g>
				<g>
					<path class="st0" d="M47.55,47.7c-0.35-0.96-0.87-1.84-1.51-2.61c-0.28-0.34-0.59-0.66-0.92-0.95
						c-1.56-1.4-3.63-2.25-5.89-2.25c-1.42,0-2.77,0.34-3.96,0.94c-0.42,0.21-0.81,0.45-1.19,0.72c0.02,0.47,0.08,0.93,0.18,1.37
						c0.3,1.38,0.95,2.62,1.85,3.64c0.54,0.62,1.18,1.16,1.89,1.59c1.24,0.75,2.69,1.19,4.24,1.19c1.7,0,3.29-0.52,4.6-1.42
						c0.38-0.26,0.74-0.55,1.07-0.87C47.83,48.57,47.7,48.13,47.55,47.7z M40.48,49.91c-0.76-0.2-1.47-0.52-2.1-0.95
						c-1.61-1.08-2.76-2.81-3.04-4.82c1.14-0.68,2.47-1.07,3.89-1.07c2.1,0,4.01,0.85,5.39,2.23c0.3,0.3,0.58,0.62,0.82,0.96
						c0.35,0.48,0.64,1.01,0.87,1.56c-1.02-0.33-2.05-0.66-3.06-1c-1.3-0.44-2.59-0.9-3.86-1.42c1.18,0.7,2.4,1.34,3.62,1.97
						c1.04,0.53,2.09,1.05,3.15,1.56c-1.12,0.76-2.46,1.2-3.91,1.2C41.64,50.14,41.04,50.06,40.48,49.91z"/>
				</g>
			</g>
		</g>
	</g>
</g>
</svg>
