<?xml version="1.0" encoding="utf-8"?>
<!-- Generator: Adobe Illustrator 24.0.0, SVG Export Plug-In . SVG Version: 6.00 Build 0)  -->
<svg version="1.1" id="Layer_1" xmlns="http://www.w3.org/2000/svg" xmlns:xlink="http://www.w3.org/1999/xlink" x="0px" y="0px"
	 viewBox="0 0 143.14 128.57" style="enable-background:new 0 0 143.14 128.57;" xml:space="preserve">
<style type="text/css">
	.st0{fill:#118341;}
	.st1{fill:#010101;}
</style>
<g>
	<g>
		<path d="M100.64,83.71c-0.5,2.3-1.32,4.47-2.45,6.51c-4.82,8.83-14.94,14.92-26.61,14.92s-21.8-6.1-26.61-14.92
			c-1.13-2.04-1.95-4.21-2.45-6.51h6.72c0.72,2.36,1.93,4.55,3.54,6.51c4.19,5.1,11.06,8.42,18.81,8.42s14.62-3.32,18.81-8.42
			c1.61-1.95,2.82-4.14,3.54-6.51H100.64z"/>
	</g>
	<g>
		<g>
			<g>
				<path d="M76.33,48.4c-0.07,0.32-0.19,0.63-0.35,0.92c-0.68,1.24-2.11,2.1-3.75,2.1s-3.07-0.86-3.75-2.1
					c-0.16-0.29-0.28-0.59-0.35-0.92h0.95c0.1,0.33,0.27,0.64,0.5,0.92c0.59,0.72,1.56,1.19,2.65,1.19s2.06-0.47,2.65-1.19
					c0.23-0.28,0.4-0.58,0.5-0.92H76.33z"/>
			</g>
			<g>
				<g>
					<path d="M60.83,33.7c0,0.06,0,0.12,0,0.19V33.6C60.83,33.63,60.83,33.66,60.83,33.7z"/>
					<path d="M83.14,44.68c0,6.12-4.98,11.11-11.11,11.11c-6.03,0-10.95-4.83-11.1-10.83c0-0.02,0-0.05,0-0.07v-0.03l0-0.1v-0.1
						l-0.1-10.76v-0.37c0-0.08,0-0.15,0.01-0.23c0.21-5.47,4.73-9.86,10.25-9.86c1.94,0,3.77,0.55,5.32,1.49
						c0.89,0.54,1.7,1.22,2.38,2c1.6,1.81,2.57,4.18,2.57,6.78c0,1.38-0.27,2.7-0.77,3.9c-0.36-0.43-0.74-0.83-1.15-1.19
						c0.28-0.85,0.43-1.76,0.43-2.7c0-3.04-1.55-5.72-3.9-7.29c-0.8-0.54-1.69-0.94-2.64-1.19c-0.71-0.19-1.45-0.28-2.22-0.28
						c-4.8,0-8.71,3.87-8.76,8.66c0,0.04,0,0.07,0,0.11c0,0.08,0,0.16,0.01,0.24l0.04,5.18v0.1l0.05,5.43l0,0.14
						c0.05,5.25,4.34,9.51,9.61,9.51c5.3,0,9.61-4.31,9.61-9.61c0-0.35-0.02-0.69-0.06-1.03c0.48-0.33,0.93-0.69,1.35-1.1
						C83.07,43.24,83.14,43.96,83.14,44.68z"/>
				</g>
				<path d="M82.47,40.87c-0.44-1.21-1.09-2.31-1.89-3.28c-0.36-0.43-0.74-0.83-1.15-1.19c-1.96-1.76-4.56-2.83-7.39-2.83
					c-1.78,0-3.47,0.42-4.96,1.18c-0.52,0.26-1.02,0.56-1.49,0.91c0.03,0.59,0.1,1.16,0.23,1.72c0.38,1.73,1.19,3.29,2.32,4.57
					c0.68,0.78,1.49,1.46,2.38,2c1.55,0.94,3.37,1.49,5.32,1.49c2.14,0,4.12-0.66,5.77-1.78c0.48-0.33,0.93-0.69,1.35-1.1
					C82.82,41.97,82.67,41.41,82.47,40.87z M73.61,43.65c-0.95-0.25-1.84-0.66-2.64-1.19c-2.03-1.35-3.46-3.53-3.82-6.05
					c1.43-0.85,3.1-1.34,4.89-1.34c2.64,0,5.03,1.07,6.76,2.79c0.38,0.37,0.72,0.77,1.03,1.21c0.44,0.6,0.8,1.26,1.09,1.96
					c-1.28-0.41-2.57-0.83-3.84-1.26c-1.63-0.56-3.25-1.12-4.84-1.78c1.48,0.88,3.01,1.68,4.55,2.47c1.31,0.67,2.62,1.32,3.95,1.96
					c-1.4,0.95-3.09,1.51-4.91,1.51C75.06,43.93,74.31,43.84,73.61,43.65z"/>
			</g>
		</g>
		<g>
			<g>
				<path d="M46.22,73.96h-3.68v-9.87h3.54c2.08,0,3.13,1.13,3.13,2.51c0,1.25-0.78,1.97-1.73,2.28c1.08,0.18,1.95,1.22,1.95,2.44
					C49.43,72.8,48.26,73.96,46.22,73.96z M45.96,65.15h-2.14v3.2h2.17c1.2,0,1.9-0.59,1.9-1.6C47.89,65.77,47.22,65.15,45.96,65.15
					z M46.06,69.41h-2.24v3.48h2.28c1.27,0,2.04-0.64,2.04-1.71C48.14,70.09,47.32,69.41,46.06,69.41z"/>
				<path d="M51,64.06c0-0.5,0.38-0.88,0.88-0.88c0.47,0,0.85,0.38,0.85,0.88c0,0.5-0.38,0.88-0.85,0.88
					C51.38,64.94,51,64.55,51,64.06z M51.21,66.2h1.29v7.76h-1.29V66.2z"/>
				<path d="M58.08,74.08c-2.2,0-3.87-1.56-3.87-4.02c0-2.45,1.73-3.99,3.92-3.99c2.21,0,3.92,1.54,3.92,3.99
					C62.06,72.53,60.29,74.08,58.08,74.08z M58.08,72.95c1.35,0,2.66-0.92,2.66-2.89c0-1.95-1.29-2.88-2.62-2.88
					c-1.36,0-2.59,0.92-2.59,2.88C55.53,72.03,56.74,72.95,58.08,72.95z"/>
				<path d="M71.52,64.07v9.89h-1.29l-5.18-7.86v7.86h-1.29v-9.89h1.29l5.18,7.85v-7.85H71.52z"/>
				<path d="M80.6,73.96h-1.29v-1.15c-0.5,0.81-1.44,1.26-2.48,1.26c-1.78,0-3.19-1.1-3.19-3.33V66.2h1.27v4.38
					c0,1.57,0.86,2.38,2.17,2.38c1.33,0,2.22-0.82,2.22-2.49V66.2h1.29V73.96z"/>
				<path d="M83.06,67.26h-1.01V66.2h1.01v-1.95h1.29v1.95h2.03v1.06h-2.03v4.57c0,0.77,0.28,1.03,1.08,1.03h0.95v1.09h-1.16
					c-1.37,0-2.15-0.57-2.15-2.12V67.26z"/>
				<path d="M89.22,73.96h-1.29V66.2h1.29v1.26c0.44-0.86,1.27-1.4,2.51-1.4v1.33h-0.34c-1.23,0-2.17,0.55-2.17,2.35V73.96z"/>
				<path d="M96.42,66.07c1.44,0,2.44,0.74,2.89,1.54V66.2h1.3v7.76h-1.3v-1.44c-0.47,0.84-1.47,1.57-2.9,1.57
					c-2.07,0-3.67-1.63-3.67-4.04C92.73,67.63,94.33,66.07,96.42,66.07z M96.67,67.19c-1.42,0-2.62,1.03-2.62,2.86
					c0,1.83,1.2,2.9,2.62,2.9c1.42,0,2.63-1.06,2.63-2.89C99.31,68.26,98.09,67.19,96.67,67.19z"/>
			</g>
		</g>
	</g>
</g>
</svg>
