<?xml version="1.0" encoding="utf-8"?>
<!-- Generator: Adobe Illustrator 16.0.0, SVG Export Plug-In . SVG Version: 6.00 Build 0)  -->
<!DOCTYPE svg PUBLIC "-//W3C//DTD SVG 1.1//EN" "http://www.w3.org/Graphics/SVG/1.1/DTD/svg11.dtd">
<svg version="1.1" id="Layer_1" xmlns="http://www.w3.org/2000/svg" xmlns:xlink="http://www.w3.org/1999/xlink" x="0px" y="0px"
	 width="292px" height="310px" viewBox="0 0 292 310" enable-background="new 0 0 292 310" xml:space="preserve">
<rect x="0.396" y="1.708" fill="#C6E3CC" width="291.604" height="308.292"/>
<g>
	<g>
		<path fill="#118341" d="M180.516,219.191c-0.541,2.578-1.498,4.99-2.746,7.276c-5.36,9.856-16.717,16.679-29.731,16.679
			c-13.06,0-24.371-6.82-29.734-16.679c-1.248-2.286-2.164-4.698-2.745-7.276h7.526c0.791,2.662,2.162,5.074,3.951,7.276
			c4.699,5.697,12.352,9.397,21.002,9.397c8.649,0,16.344-3.7,21.002-9.397c1.787-2.161,3.16-4.614,3.951-7.276H180.516z"/>
	</g>
	<g>
		<g>
			<path fill="#118341" d="M57.502,102.581c0,0.5,0,0.998,0.041,1.498v-2.246C57.502,102.083,57.502,102.29,57.502,102.581z"/>
			<path fill="#118341" d="M234.498,189.706c0,48.573-39.508,88.082-88.084,88.082c-47.824,0-86.875-38.302-88.039-85.877
				c-0.041-0.166-0.041-0.375-0.041-0.582v-0.25l-0.043-0.832v-0.832l-0.748-85.338v-2.91c0-0.625,0.041-1.207,0.041-1.83
				c1.705-43.418,37.512-78.185,81.346-78.185c15.429,0,29.859,4.325,42.167,11.812c7.07,4.283,13.435,9.648,18.838,15.845
				c12.688,14.349,20.379,33.187,20.379,53.772c0,10.938-2.16,21.375-6.11,30.898c-2.828-3.369-5.863-6.57-9.147-9.482
				c2.202-6.736,3.366-13.973,3.366-21.416c0-24.121-12.31-45.373-30.981-57.849c-6.32-4.241-13.392-7.485-20.959-9.44
				c-5.614-1.496-11.521-2.245-17.592-2.245c-38.053,0-69.076,30.69-69.492,68.661c-0.041,0.291-0.041,0.582-0.041,0.873
				c0,0.625,0,1.248,0.041,1.873l0.375,41.045v0.791l0.374,43.084l0.041,1.082c0.375,41.67,34.435,75.438,76.188,75.438
				c42.002,0,76.229-34.228,76.229-76.229c0-2.746-0.166-5.489-0.457-8.151c3.783-2.578,7.401-5.49,10.688-8.691
				C233.957,178.271,234.498,183.927,234.498,189.706z"/>
		</g>
		<path fill="#118341" d="M229.217,159.516c-3.494-9.564-8.609-18.341-15.014-25.993c-2.828-3.369-5.863-6.57-9.148-9.482
			c-15.555-13.932-36.141-22.416-58.639-22.416c-14.141,0-27.531,3.369-39.384,9.315c-4.159,2.038-8.108,4.45-11.853,7.195
			c0.207,4.657,0.789,9.19,1.83,13.641c2.994,13.683,9.48,26.117,18.422,36.265c5.406,6.195,11.771,11.561,18.84,15.845
			c12.311,7.485,26.741,11.813,42.168,11.813c16.971,0,32.688-5.199,45.746-14.099c3.785-2.578,7.401-5.49,10.688-8.69
			C232.002,168.206,230.754,163.757,229.217,159.516z M158.893,181.516c-7.57-1.996-14.6-5.199-20.919-9.439
			c-16.053-10.729-27.447-27.988-30.275-47.951c11.354-6.777,24.62-10.646,38.76-10.646c20.918,0,39.883,8.442,53.647,22.166
			c2.994,2.953,5.738,6.155,8.15,9.565c3.451,4.781,6.322,10.021,8.609,15.554c-10.189-3.244-20.336-6.528-30.484-9.98
			c-12.893-4.408-25.744-8.899-38.385-14.098c11.727,6.987,23.871,13.309,36.057,19.586c10.396,5.323,20.793,10.479,31.314,15.555
			c-11.105,7.527-24.494,11.979-38.928,11.979C170.412,183.76,164.506,182.97,158.893,181.516z"/>
	</g>
</g>
</svg>
