<?xml version="1.0" encoding="utf-8"?>
<!-- Generator: Adobe Illustrator 16.0.0, SVG Export Plug-In . SVG Version: 6.00 Build 0)  -->
<!DOCTYPE svg PUBLIC "-//W3C//DTD SVG 1.1//EN" "http://www.w3.org/Graphics/SVG/1.1/DTD/svg11.dtd">
<svg version="1.1" id="Layer_1" xmlns="http://www.w3.org/2000/svg" xmlns:xlink="http://www.w3.org/1999/xlink" x="0px" y="0px"
	 width="95.348px" height="85.13px" viewBox="0 0 95.348 85.13" enable-background="new 0 0 95.348 85.13" xml:space="preserve">
<path fill="#6C8270" d="M12.89,68.921V25.052h69.46v43.869c0,4.021-3.29,7.312-7.311,7.312H20.201
	C16.18,76.232,12.89,72.942,12.89,68.921L12.89,68.921z"/>
<path fill="#49584B" d="M82.35,17.739v10.967H12.89V17.739c0-4.021,3.291-7.312,7.312-7.312h54.838
	C79.06,10.428,82.35,13.718,82.35,17.739z"/>
<path fill="#B71C1C" d="M58.587,17.739c0,3.028,2.455,5.484,5.484,5.484c3.028,0,5.484-2.456,5.484-5.484
	c0-3.029-2.456-5.484-5.484-5.484C61.042,12.255,58.587,14.71,58.587,17.739z"/>
<path fill="#B71C1C" d="M25.685,17.739c0,3.028,2.455,5.484,5.484,5.484c3.028,0,5.483-2.456,5.483-5.484
	c0-3.029-2.455-5.484-5.483-5.484C28.14,12.255,25.685,14.71,25.685,17.739z"/>
<path fill="#FFFFFF" d="M64.071,4.944c-2.011,0-3.656,1.645-3.656,3.656v9.139c0,2.011,1.645,3.656,3.656,3.656
	c2.01,0,3.656-1.645,3.656-3.656V8.6C67.727,6.589,66.082,4.944,64.071,4.944z M31.169,4.944c-2.011,0-3.656,1.645-3.656,3.656
	v9.139c0,2.011,1.645,3.656,3.656,3.656c2.01,0,3.655-1.645,3.655-3.656V8.6C34.824,6.589,33.179,4.944,31.169,4.944z"/>
<rect x="27.513" y="36.018" fill="#FFFFFF" width="7.311" height="7.313"/>
<rect x="38.48" y="36.018" fill="#FFFFFF" width="7.312" height="7.313"/>
<rect x="49.448" y="36.018" fill="#FFFFFF" width="7.312" height="7.313"/>
<rect x="60.416" y="36.018" fill="#FFFFFF" width="7.312" height="7.313"/>
<g>
	<path fill="#EAEAEA" d="M34.012,68.798H22.54c0.131-1.531,0.531-2.973,1.197-4.322s1.917-2.943,3.75-4.779
		c1.12-1.126,1.836-1.98,2.15-2.564c0.313-0.584,0.469-1.139,0.469-1.664c0-0.566-0.155-1.051-0.465-1.453
		c-0.31-0.402-0.699-0.604-1.169-0.604c-0.488,0-0.887,0.208-1.197,0.623c-0.31,0.414-0.518,1.146-0.624,2.195l-3.831-0.418
		c0.15-1.456,0.426-2.592,0.826-3.409s0.965-1.442,1.694-1.879s1.738-0.653,3.028-0.653c1.346,0,2.392,0.207,3.14,0.621
		c0.748,0.415,1.336,1.053,1.765,1.911s0.643,1.821,0.643,2.888c0,1.135-0.246,2.218-0.737,3.25
		c-0.492,1.033-1.385,2.167-2.681,3.402c-0.77,0.72-1.285,1.224-1.544,1.512c-0.26,0.287-0.565,0.664-0.916,1.129h5.971V68.798z"/>
	<path fill="#EAEAEA" d="M35.646,59.417c0-3.538,0.471-6.014,1.413-7.428c0.942-1.413,2.376-2.119,4.304-2.119
		c0.926,0,1.687,0.154,2.281,0.463s1.08,0.711,1.455,1.206s0.671,1.016,0.887,1.562s0.39,1.183,0.521,1.91
		c0.257,1.389,0.385,2.836,0.385,4.342c0,3.377-0.423,5.849-1.268,7.414c-0.845,1.566-2.3,2.35-4.365,2.35
		c-1.158,0-2.094-0.25-2.807-0.75c-0.713-0.499-1.299-1.23-1.756-2.195c-0.332-0.686-0.59-1.623-0.774-2.813
		S35.646,60.855,35.646,59.417z M39.439,59.429c0,2.37,0.155,3.988,0.464,4.856c0.31,0.868,0.759,1.302,1.347,1.302
		c0.388,0,0.725-0.185,1.009-0.553s0.495-0.95,0.629-1.746c0.135-0.795,0.202-2.035,0.202-3.719c0-2.472-0.155-4.133-0.465-4.983
		c-0.31-0.851-0.774-1.276-1.394-1.276c-0.632,0-1.089,0.434-1.371,1.302S39.439,57.085,39.439,59.429z"/>
	<path fill="#EAEAEA" d="M59.66,68.798H48.188c0.131-1.531,0.531-2.973,1.197-4.322s1.917-2.943,3.75-4.779
		c1.12-1.126,1.836-1.98,2.15-2.564c0.313-0.584,0.469-1.139,0.469-1.664c0-0.566-0.155-1.051-0.465-1.453
		c-0.31-0.402-0.699-0.604-1.169-0.604c-0.488,0-0.887,0.208-1.197,0.623c-0.31,0.414-0.518,1.146-0.624,2.195l-3.831-0.418
		c0.15-1.456,0.426-2.592,0.826-3.409s0.965-1.442,1.694-1.879s1.738-0.653,3.028-0.653c1.346,0,2.392,0.207,3.14,0.621
		c0.748,0.415,1.336,1.053,1.765,1.911s0.643,1.821,0.643,2.888c0,1.135-0.246,2.218-0.737,3.25
		c-0.492,1.033-1.385,2.167-2.681,3.402c-0.77,0.72-1.285,1.224-1.544,1.512c-0.26,0.287-0.565,0.664-0.916,1.129h5.971V68.798z"/>
	<path fill="#EAEAEA" d="M62.843,50.187h9.079v4.127h-6.149l-0.329,2.793c0.426-0.271,0.847-0.475,1.263-0.609
		c0.416-0.136,0.828-0.203,1.234-0.203c1.377,0,2.494,0.563,3.352,1.688c0.857,1.126,1.286,2.544,1.286,4.254
		c0,1.201-0.22,2.356-0.662,3.465c-0.441,1.109-1.067,1.955-1.877,2.539c-0.811,0.584-1.848,0.877-3.112,0.877
		c-0.908,0-1.685-0.117-2.333-0.35c-0.647-0.232-1.199-0.58-1.652-1.041s-0.821-0.984-1.103-1.568s-0.516-1.312-0.704-2.184
		l3.868-0.57c0.094,0.838,0.313,1.475,0.657,1.91s0.754,0.654,1.23,0.654c0.532,0,0.972-0.273,1.319-0.819
		c0.348-0.546,0.521-1.36,0.521-2.444c0-1.108-0.175-1.921-0.526-2.438c-0.351-0.516-0.817-0.773-1.399-0.773
		c-0.369,0-0.726,0.122-1.07,0.367c-0.256,0.178-0.538,0.5-0.845,0.965l-3.258-0.635L62.843,50.187z"/>
</g>
</svg>
